<svg version="1.1" xmlns="http://www.w3.org/2000/svg" viewBox="0 0 293.34950864913935 318.3086527562954" width="586.6990172982787" height="636.6173055125907"><!-- svg-source:excalidraw --><metadata></metadata><defs><style class="style-fonts">
      </style></defs><rect x="0" y="0" width="293.34950864913935" height="318.3086527562954" fill="#ffffff"></rect><g stroke-linecap="round" transform="translate(22.561505081203904 10.697327203285568) rotate(359.6765973498838 123.79714872042268 90.06977972957242)"><path d="M32 0 C101.34 0.5, 168.53 -1.55, 215.59 0 C236.39 -0.81, 248.79 9.49, 247.59 32 C245.42 75.26, 242.12 125.99, 247.59 148.14 C245.18 165.99, 238.12 182.2, 215.59 180.14 C172.07 180.22, 133.13 177.7, 32 180.14 C9.78 180.35, 1.52 172.52, 0 148.14 C-3.03 116.13, -0.88 85.98, 0 32 C1.07 7.34, 13.23 2.95, 32 0" stroke="none" stroke-width="0" fill="#a5d8ff"></path><path d="M32 0 C70.63 -3.32, 113 -2.64, 215.59 0 M32 0 C101.34 0.94, 173.05 1.57, 215.59 0 M215.59 0 C237.51 -1.8, 246.79 9.53, 247.59 32 M215.59 0 C236.23 -0.27, 247.28 10.89, 247.59 32 M247.59 32 C248.5 76.94, 246.69 117.93, 247.59 148.14 M247.59 32 C246.7 64.37, 247.27 97.61, 247.59 148.14 M247.59 148.14 C246.76 170.12, 236.97 178.23, 215.59 180.14 M247.59 148.14 C249.51 170.08, 238.74 181.72, 215.59 180.14 M215.59 180.14 C158.46 179.52, 99.48 180.9, 32 180.14 M215.59 180.14 C167.37 181.39, 121.57 181.06, 32 180.14 M32 180.14 C11.05 181.48, 1.9 168.18, 0 148.14 M32 180.14 C11.33 178.14, 1.16 170.1, 0 148.14 M0 148.14 C2.61 108.89, 0.13 68.85, 0 32 M0 148.14 C0.54 114.66, -0.71 82.93, 0 32 M0 32 C1.36 9.96, 11.73 -1.56, 32 0 M0 32 C-1.99 12.7, 9.17 -0.15, 32 0" stroke="#000000" stroke-width="2" fill="none"></path></g><g stroke-linecap="round"><g transform="translate(21.119991670802847 221.12524940519495) rotate(0 126.88846765854078 26.523582591028003)" fill-rule="evenodd"><path d="M-1.13 0.09 L38.6 85.45 L214.18 85.79 L252.73 4.78 L256.71 -31.92 L-2.78 -30.79 L-0.8 -1.04" stroke="none" stroke-width="0" fill="#a5d8ff" fill-rule="evenodd"></path><path d="M0 0 C15.7 32.26, 27.7 62.84, 37.94 86.41 M0 0 C7.82 20.96, 16.58 39.91, 37.94 86.41 M37.94 86.41 C91.99 88.33, 141.96 86.02, 214.66 86.41 M37.94 86.41 C75.11 86.07, 112.54 85.35, 214.66 86.41 M214.66 86.41 C224.11 67.14, 232.65 50.07, 252.67 6.69 M214.66 86.41 C226.17 58.86, 240.1 33.78, 252.67 6.69 M252.67 6.69 C252.16 -5.14, 252.96 -18.65, 255.14 -33.36 M252.67 6.69 C253.67 -0.97, 253.72 -10.25, 255.14 -33.36 M255.14 -33.36 C182.39 -35.51, 108.33 -34.2, -1.36 -30.34 M255.14 -33.36 C200.05 -33.87, 144.23 -33.12, -1.36 -30.34 M-1.36 -30.34 C-1.68 -22.99, -1.58 -13.87, 0 0 M-1.36 -30.34 C-1.34 -21.61, -0.1 -14.15, 0 0 M0 0 C0 0, 0 0, 0 0 M0 0 C0 0, 0 0, 0 0" stroke="#1e1e1e" stroke-width="2" fill="none"></path></g></g><mask></mask><g stroke-linecap="round" transform="translate(15.995622770783939 24.658498738065475) rotate(0 131.93915654117995 129.0683605585355)"><path d="M152.33 2.06 C165.7 1.94, 181.11 7.98, 193.87 14.69 C206.63 21.39, 219.39 32.03, 228.89 42.27 C238.38 52.52, 245.16 63.22, 250.86 76.16 C256.56 89.1, 261.29 105.6, 263.09 119.92 C264.89 134.23, 264.8 148.9, 261.65 162.04 C258.5 175.18, 252.36 187.29, 244.19 198.77 C236.02 210.26, 224.39 222.29, 212.6 230.92 C200.82 239.56, 186.84 246.1, 173.49 250.6 C160.14 255.1, 146.31 257.77, 132.49 257.93 C118.67 258.09, 104.3 256.37, 90.57 251.57 C76.84 246.78, 61.35 237.5, 50.13 229.14 C38.91 220.79, 30.63 212.87, 23.26 201.43 C15.9 189.98, 9.43 174.45, 5.95 160.45 C2.48 146.45, 1.48 131.07, 2.42 117.44 C3.37 103.81, 6.05 91.04, 11.62 78.68 C17.2 66.32, 26.53 53.88, 35.88 43.29 C45.23 32.69, 55.23 22.23, 67.71 15.1 C80.19 7.98, 94.4 2.58, 110.77 0.54 C127.13 -1.49, 155.48 1.12, 165.9 2.88 C176.33 4.64, 173.81 9, 173.32 11.1 M190.39 13.75 C203.6 18.45, 216.54 28.84, 226.32 39.04 C236.1 49.24, 243.2 63.09, 249.07 74.94 C254.94 86.78, 259.77 97.21, 261.54 110.1 C263.31 122.99, 261.92 137.83, 259.67 152.28 C257.42 166.72, 255.26 184.16, 248.02 196.8 C240.79 209.44, 227.87 219.53, 216.28 228.11 C204.7 236.69, 191.67 242.91, 178.5 248.29 C165.33 253.67, 151.56 259.32, 137.25 260.42 C122.95 261.52, 106.48 259.21, 92.67 254.91 C78.86 250.6, 65.41 242.63, 54.4 234.61 C43.39 226.59, 34.34 218.24, 26.59 206.81 C18.83 195.38, 12.22 180.21, 7.87 166.02 C3.51 151.83, 0.04 135.9, 0.48 121.68 C0.91 107.46, 5.03 93.47, 10.49 80.71 C15.96 67.94, 24.02 55.47, 33.26 45.07 C42.49 34.67, 53.93 25.29, 65.92 18.31 C77.9 11.32, 91.47 5.83, 105.18 3.15 C118.88 0.46, 133.96 0.09, 148.15 2.2 C162.33 4.31, 183.34 13.7, 190.29 15.8 C197.23 17.9, 191.19 13.02, 189.8 14.8" stroke="none" stroke-width="0" fill="#a5d8ff"></path><path d="M125.05 0.16 C137.9 -2.66, 150.94 -0.56, 164.65 3.39 C178.37 7.34, 195.02 16.12, 207.34 23.84 C219.66 31.57, 230.41 38.67, 238.57 49.75 C246.73 60.82, 252.39 76.54, 256.33 90.31 C260.27 104.08, 262.54 118.89, 262.2 132.38 C261.87 145.86, 259 158.06, 254.3 171.2 C249.59 184.35, 242.61 200.28, 233.98 211.24 C225.35 222.2, 214.27 229.9, 202.51 236.95 C190.76 244, 177.37 250.1, 163.45 253.54 C149.52 256.99, 133.53 258.94, 118.96 257.64 C104.4 256.34, 88.76 251.92, 76.06 245.75 C63.36 239.58, 53.06 230.35, 42.77 220.64 C32.48 210.93, 21.21 199.61, 14.31 187.51 C7.41 175.41, 3.67 161.9, 1.38 148.01 C-0.92 134.12, -2.36 118.14, 0.53 104.18 C3.41 90.22, 11.46 75.87, 18.69 64.26 C25.91 52.65, 33.31 43.72, 43.87 34.53 C54.43 25.34, 66.72 14.59, 82.05 9.13 C97.37 3.67, 125.02 2.65, 135.84 1.76 C146.66 0.87, 147.3 1.67, 146.96 3.78 M216.21 30.31 C228.24 37.1, 237.86 50.28, 245.4 62.05 C252.94 73.82, 258.92 87.63, 261.46 100.94 C264 114.25, 262.24 128.78, 260.64 141.94 C259.04 155.1, 256.93 166.88, 251.84 179.91 C246.76 192.94, 239.59 209.48, 230.12 220.13 C220.65 230.79, 207.75 238.08, 195.03 243.82 C182.3 249.56, 168.06 252.59, 153.78 254.57 C139.49 256.54, 123.4 257.71, 109.33 255.68 C95.27 253.65, 81.89 249.2, 69.38 242.38 C56.88 235.57, 43.84 224.89, 34.3 214.81 C24.76 204.73, 17.73 194.68, 12.12 181.89 C6.51 169.1, 2.22 152.24, 0.62 138.08 C-0.98 123.93, -0.67 110.68, 2.53 96.95 C5.73 83.23, 11.7 67.09, 19.83 55.75 C27.97 44.41, 39.09 37.09, 51.34 28.92 C63.59 20.74, 79.99 11.38, 93.32 6.69 C106.66 1.99, 117.37 0.35, 131.36 0.74 C145.35 1.12, 163.64 4.85, 177.24 9 C190.84 13.14, 206.67 22.02, 212.95 25.6 C219.23 29.17, 216.54 28.27, 214.9 30.45" stroke="#1e1e1e" stroke-width="2" fill="none"></path></g><g stroke-linecap="round"><g transform="translate(64.74190221660683 299.49198440853) rotate(0 79.58722080586585 -1.6119360817518782)"><path d="M0 0 C26.01 -2.65, 51.38 -1.52, 83.87 -1.54 M0 0 C31.78 0.87, 65.17 -1.23, 83.87 -1.54 M83.87 -1.54 C108.27 -4.11, 130.64 -1.72, 159.17 -3.22 M83.87 -1.54 C108.38 -2.92, 131.22 -2.88, 159.17 -3.22" stroke="#1e1e1e" stroke-width="1" fill="none"></path></g></g><mask></mask><g stroke-linecap="round" transform="translate(20.63100956802191 38.95625427547583) rotate(0 127.58578877674108 117.16544464914338)"><path d="M20.87 55.25 C20.87 55.25, 20.87 55.25, 20.87 55.25 M20.87 55.25 C20.87 55.25, 20.87 55.25, 20.87 55.25 M16.47 68.97 C29.92 50.86, 38.84 33.4, 52.82 29.78 M16.28 67.01 C23.95 55.97, 33.15 45.8, 51.57 25.97 M10.71 80.74 C27.7 56.12, 42.39 42.11, 62.4 19.84 M10.61 78.82 C26.63 59.18, 45.38 36.78, 61.42 20.46 M7.33 88.57 C24.35 66.1, 54.03 39.95, 72.5 15.52 M6.75 93.17 C20.61 70.98, 41.26 51.11, 66.65 20.39 M1.26 94.32 C30.74 70.81, 58.47 41.69, 73.15 17.5 M3.26 99.6 C18.2 80.77, 36.67 62.2, 78.78 16.62 M1.44 103.06 C39.96 63.12, 66.57 28.65, 89.56 4.72 M6.09 104.09 C24.88 80.91, 43.29 58.56, 88.8 7.57 M6.31 111.6 C37.4 78.99, 64.82 48.52, 91.46 9.65 M5.47 111.16 C34.66 75.63, 64.63 41.55, 95.96 6.02 M4.93 114.19 C39.33 80.4, 71.75 37.06, 104.28 8.67 M4.51 117.11 C42.35 75.63, 79.03 33.06, 100.42 7.1 M5.96 127.07 C42.21 82.06, 76.33 40.56, 107.94 8.36 M1.59 124.17 C33.18 96.76, 57.68 66.09, 105.39 6.1 M0.15 128.68 C39.26 95.66, 72.81 53.85, 115.72 3.82 M4.3 132.22 C35.02 92.41, 69.21 51.3, 113.54 2.4 M7.92 137.21 C34.24 103.14, 60.33 73.09, 114.72 4.61 M6.42 133.96 C37.91 97.08, 70.36 59.36, 118.83 4.9 M4.55 140.81 C31.03 110.41, 56.57 84.95, 128.17 1.77 M8.65 136.62 C34.43 106.82, 62.42 74.07, 126.28 4.68 M12.43 145.88 C61.17 86.75, 105 33.07, 131.82 1.78 M8.15 143.87 C36.93 111.86, 64.69 78.27, 131.78 0.47 M6.15 150.74 C51.78 97.83, 88.46 52.17, 133.7 1.16 M11.2 149.03 C42.53 111.82, 77.18 72.12, 135.34 2.85 M14.18 153.49 C47.18 113.11, 87.43 63.77, 138.39 3.31 M12.24 152.47 C61.48 97.94, 110.09 41.04, 140.73 2.62 M9.68 156.1 C41.83 125.78, 70.89 92.08, 144.91 3.43 M11.88 157.17 C57.43 104.65, 102.24 53.94, 146.64 1.52 M16.6 158.28 C51.75 117.88, 90.87 69.22, 152.93 3.54 M14.05 160.51 C61.93 103.39, 111.27 45.02, 149.74 5.45 M19.03 161.44 C68.47 97.43, 126.73 39.17, 154.55 4.44 M15.16 165.35 C56.32 120.74, 91.58 78.66, 153.94 5.34 M17.33 171.27 C72.04 102.98, 126.15 42.33, 155.75 3.97 M16.84 169.58 C57.54 119.27, 100.98 73.51, 160.25 6.48 M20.31 173.62 C60.5 131.53, 98.93 81.66, 162.37 8.06 M18.28 173.22 C66.49 120.82, 110.33 71.86, 164.94 5.8 M22.87 177.69 C63.83 131.68, 110.58 83.23, 166.85 8.71 M19.65 177.46 C59.1 139.43, 91.34 97.73, 169.87 7.7 M26.5 178.73 C76.42 117.71, 135.34 55.81, 176.25 8.77 M24.42 178.48 C57.31 141.92, 89.24 104.67, 173.64 8.64 M23 180.32 C73.68 128.02, 123.49 75.11, 178.81 6.2 M27.87 183.96 C70.71 132.7, 116.77 78.08, 178.92 8.69 M30.96 189.31 C76.66 132.3, 120.84 79.25, 180.82 10.03 M29.43 187.42 C88.91 122.52, 146.67 56.53, 182.6 11.72 M34.77 187.48 C81.98 135.32, 121.6 87.66, 183.76 12.9 M30.49 188.51 C61.66 149.8, 93.93 115.29, 186.75 11.12 M35.5 194.28 C72.98 146.19, 116.05 96.18, 192.08 16.79 M33.97 191.13 C73.66 149.31, 111.03 103.86, 187.18 13.45 M36.57 197.79 C77.35 143.91, 125.41 96.98, 195.54 14.62 M37.94 196.57 C79.22 148.74, 122.39 100.84, 192.34 16.24 M39.64 198 C85.75 148.4, 132.32 95.53, 196.9 21.72 M38.01 199.11 C92.53 140.64, 143.22 81.07, 194.98 17.39 M41.32 201.44 C75.98 160.25, 108.88 124.72, 199.57 18.84 M41.78 202.29 C76.74 165.63, 113.79 123.48, 199.77 21.38 M42.56 203.87 C101.99 141.33, 157.07 71.23, 205.75 19.96 M44.35 204.53 C77.77 163.06, 113.55 119.88, 202.51 21.5 M49.11 207.33 C92.27 156.81, 141.17 103.25, 204.4 22.11 M46.79 207.39 C78.71 169.73, 112.36 132.65, 207.58 26.1 M50.42 207.36 C108.6 139.86, 169.73 74.25, 211.78 30.02 M51.03 209.16 C108.1 148.44, 161 86.2, 209.81 27.83 M52.1 211.47 C111.23 145.18, 171.22 75, 212.91 26.13 M53.75 211.26 C116.48 143.67, 175.57 75.75, 211.95 29.85 M55.9 210.67 C113.41 152.47, 173.67 88.77, 218.77 32.05 M59.05 212.77 C91.62 175.28, 124.33 136.37, 216.58 32.18 M64.45 213.67 C122.21 145.41, 182.69 73.45, 216.35 36.55 M61.2 215.95 C114.45 155.82, 164.17 98.49, 218.91 35.7 M62.54 216.9 C127.35 145.43, 185.05 79.06, 220.58 35.49 M65.26 215.82 C120.65 154.38, 173.77 91.32, 223.31 36.95 M71.78 221.65 C117.91 163.45, 169.47 101.71, 222.33 41.97 M69.76 218.64 C127.9 151.83, 186.39 85.87, 224.11 41.04 M75.78 220.25 C131.42 161.47, 182.85 98.46, 228.45 44.76 M71.41 221.19 C104.77 181.03, 139.09 143.2, 226.84 44.97 M74.93 226.88 C121.52 179.7, 160.67 132.17, 227.5 47.44 M74.43 222.51 C133.37 157.82, 189.81 94.54, 230.39 46.11 M81.18 227.06 C134.34 161.89, 183.27 103.3, 232.21 51.32 M81.25 226.97 C124.3 177.09, 164.49 129.79, 230.07 50.04 M82.89 224.88 C127.36 174.59, 173.74 124.44, 230.81 55.09 M82.26 225.42 C124.1 180.64, 162.46 134.4, 232.76 52.93 M91.55 228.62 C130.5 178.93, 172.43 128.76, 236.5 57.9 M88.52 227.57 C129.58 183.44, 172.2 132.92, 236.41 59.56 M91.25 231.01 C117.7 195.15, 151.43 155.62, 238.45 58.99 M92.78 226.82 C138.7 176.23, 183.13 123.32, 238.32 62.07 M95.68 226.15 C137.86 175.1, 182.49 125.21, 238.49 67.09 M98.48 230.65 C126.73 193.27, 157.02 158.17, 242.52 64.22 M99.09 229.13 C140.06 190.64, 173.34 142.14, 240.48 68.4 M102.9 229.5 C141.7 182.56, 183.8 133.55, 244.94 66.57 M106.87 230.15 C151.41 174.48, 201.75 124.17, 248.75 74.58 M106.42 230.32 C154.59 170.87, 205.8 116.36, 246.89 70.65 M110.28 231.59 C151.15 179.84, 198.99 122.39, 244.75 74.34 M109.66 232.54 C149.67 189.48, 188.35 143.68, 245.52 75.52 M113.05 233.8 C165.63 175.08, 208.91 124.34, 251.25 80.35 M115.02 234.26 C145.87 198.74, 176.84 165.07, 250.02 80.27 M119.7 238.69 C152.62 193.31, 184.45 154.03, 254.33 85.96 M119.45 233.08 C159.77 195.54, 195.73 154.17, 252.15 82.34 M126.82 232.68 C164.9 189.57, 197.85 149.59, 252.35 89.34 M122.97 237.22 C148.7 202.3, 177.64 173.36, 253.04 87.22 M133.56 236.63 C156.7 202.26, 182.34 169.56, 253.95 91.96 M131.2 233 C175.95 184.33, 220.09 134.34, 254.42 93.15 M134.45 232.86 C184.27 184.64, 228.73 129.17, 258.63 98.32 M134.42 235.18 C179.98 182.24, 221.72 134.04, 253.42 96.53 M138.13 230.89 C183.79 184.54, 225.53 138.38, 257.42 105.29 M139.93 234.48 C185.23 180.16, 228.72 131.84, 254.6 100.88 M151.78 233.98 C189.75 180.24, 229.14 132.31, 259.26 105.79 M147.94 231.52 C185.45 185.25, 229.02 141.66, 253.7 110.07 M153.49 232.37 C173.93 207.35, 192.94 179.34, 258.67 118.9 M153.38 231.72 C181.07 205.36, 201.61 176.62, 252.82 113.96 M156.61 232.73 C191.45 194.03, 217.33 157.97, 252.84 122.96 M161.65 230.28 C183.38 207.9, 204.09 183.44, 254.86 123.11 M168.15 226.27 C183.79 203.07, 203.4 185.34, 255.96 127.25 M164.54 229.85 C197.21 190.62, 231.5 153.86, 253.38 127.98 M176.44 222.32 C194.91 204.31, 212.3 185.12, 251.67 137.83 M175.23 225.69 C200.92 192.94, 227.61 162.8, 254.42 134.37 M184.97 221.82 C203.31 196.57, 224.6 172.78, 250.7 145.41 M183.63 220.68 C205.84 193.53, 230.93 168.94, 249.6 142.81 M194.61 215.81 C209.81 194.83, 229.02 172.31, 247.34 159.78 M194.03 215.45 C203.91 205.38, 215.09 190.99, 246.03 156.58 M206.03 213.13 C219.78 194.98, 226.36 181.88, 240.25 168.8 M204.92 209.57 C210.55 203.55, 217.77 195.76, 238.55 172.3" stroke="#a5d8ff" stroke-width="0.5" fill="none"></path><path d="M177.58 7.61 C191.08 10.67, 203.61 19.65, 214.15 29.24 C224.69 38.84, 234.02 53.3, 240.8 65.18 C247.58 77.06, 253.24 87.48, 254.86 100.54 C256.47 113.59, 254.08 130.52, 250.48 143.51 C246.88 156.49, 240.91 167.53, 233.28 178.47 C225.65 189.42, 216.21 200.95, 204.71 209.18 C193.22 217.41, 178.16 223.69, 164.31 227.85 C150.46 232.02, 135.99 234.79, 121.63 234.15 C107.27 233.52, 91.25 229, 78.16 224.05 C65.07 219.1, 53.59 213.52, 43.09 204.45 C32.59 195.38, 21.92 181.79, 15.14 169.63 C8.37 157.47, 4.21 144.48, 2.45 131.47 C0.7 118.46, 1.53 104.27, 4.61 91.55 C7.69 78.84, 13.55 66.55, 20.93 55.18 C28.31 43.8, 37.57 31.4, 48.89 23.29 C60.21 15.19, 74.5 10.2, 88.83 6.55 C103.15 2.91, 115.41 -1.55, 134.82 1.42 C154.22 4.39, 189.7 16.15, 205.26 24.38 C220.82 32.6, 229.56 49.19, 228.18 50.77 M202.44 24.58 C214.17 30.87, 224.12 42.56, 232.35 53.34 C240.58 64.12, 248.48 76.78, 251.83 89.26 C255.17 101.75, 253.92 115.18, 252.44 128.25 C250.96 141.31, 249.33 155.43, 242.93 167.64 C236.53 179.85, 224.83 191.98, 214.06 201.5 C203.29 211.03, 191.6 219.29, 178.3 224.79 C165.01 230.3, 148.32 234.04, 134.29 234.54 C120.26 235.05, 107.57 231.16, 94.12 227.82 C80.66 224.48, 66.03 221.67, 53.57 214.53 C41.1 207.4, 27.72 196.36, 19.32 185.01 C10.93 173.65, 6.16 160.25, 3.21 146.4 C0.26 132.56, -0.2 115.83, 1.61 101.92 C3.41 88.01, 7.48 74.25, 14.05 62.93 C20.61 51.62, 30.18 43.33, 40.99 34.03 C51.79 24.73, 65.97 12.69, 78.86 7.13 C91.74 1.56, 104.18 0.86, 118.28 0.64 C132.38 0.41, 149.73 2.53, 163.46 5.79 C177.18 9.04, 193.96 16.65, 200.62 20.17 C207.28 23.68, 204.53 25.07, 203.42 26.86" stroke="#1e1e1e" stroke-width="1" fill="none"></path></g><g stroke-linecap="round" transform="translate(26.16535139860207 46.665881919421395) rotate(0 119.46920893784136 110.2338820806741)"><path d="M109.99 0.25 C122.76 -2.49, 138.35 -0.24, 151.13 3.19 C163.9 6.63, 175.5 13.75, 186.65 20.88 C197.79 28.02, 210.23 35.76, 217.99 46.01 C225.75 56.26, 229.57 70.08, 233.21 82.38 C236.85 94.69, 240.77 107.69, 239.82 119.85 C238.87 132.02, 233.37 144, 227.49 155.4 C221.61 166.8, 213.76 179.31, 204.56 188.23 C195.35 197.14, 184.88 203.88, 172.28 208.88 C159.69 213.89, 143.04 217, 128.99 218.28 C114.93 219.55, 100.57 219.29, 87.95 216.55 C75.34 213.8, 64.33 208.79, 53.32 201.8 C42.3 194.81, 30.26 184.85, 21.88 174.61 C13.49 164.37, 6.54 152.56, 3 140.35 C-0.54 128.15, -0.44 114.26, 0.63 101.38 C1.7 88.5, 4 74.32, 9.44 63.07 C14.87 51.82, 23.22 42.5, 33.24 33.86 C43.27 25.22, 51.16 16.27, 69.58 11.23 C88 6.19, 126.13 2.88, 143.76 3.61 C161.39 4.34, 175.65 14.15, 175.36 15.63 M202.52 28.55 C212.6 35.91, 219.36 50.73, 224.86 61.98 C230.37 73.24, 234.23 83.4, 235.57 96.08 C236.91 108.75, 235.32 125.14, 232.91 138.02 C230.5 150.9, 228.24 163, 221.1 173.35 C213.96 183.7, 201.58 192.66, 190.07 200.13 C178.56 207.59, 165.56 214.66, 152.06 218.13 C138.57 221.59, 122.57 222.47, 109.1 220.9 C95.63 219.32, 83.46 213.47, 71.25 208.66 C59.05 203.85, 45.78 200.72, 35.89 192.04 C26.01 183.35, 18.06 168.56, 11.96 156.55 C5.85 144.55, 1.09 131.99, -0.72 120.01 C-2.54 108.03, -2.65 96.94, 1.08 84.67 C4.8 72.41, 13.62 57.4, 21.64 46.42 C29.65 35.45, 38.79 25.51, 49.18 18.82 C59.56 12.13, 70.9 9.7, 83.95 6.28 C97 2.86, 113.31 -2.14, 127.48 -1.7 C141.64 -1.27, 156.09 3.75, 168.96 8.89 C181.84 14.04, 199.83 25.33, 204.72 29.17 C209.61 33.01, 200.31 29.94, 198.32 31.92" stroke="none" stroke-width="0" fill="#a5d8ff"></path><path d="M219.34 45.74 C228.78 54.86, 233.84 71.51, 236.81 83.76 C239.78 96.02, 238.5 107.06, 237.17 119.27 C235.84 131.48, 234.79 145.15, 228.83 157.02 C222.87 168.89, 211.21 181.83, 201.42 190.48 C191.63 199.13, 182.06 204.26, 170.07 208.91 C158.08 213.56, 143.51 217.08, 129.48 218.37 C115.45 219.65, 98.98 219.38, 85.88 216.62 C72.78 213.86, 61.64 209.42, 50.87 201.81 C40.11 194.21, 28.92 181.9, 21.28 171.01 C13.64 160.12, 8.39 148.33, 5.04 136.48 C1.68 124.63, 0.34 111.92, 1.17 99.91 C2.01 87.9, 4.62 75.63, 10.04 64.42 C15.46 53.2, 23.62 41.58, 33.68 32.59 C43.75 23.61, 57.43 15.63, 70.43 10.5 C83.43 5.37, 97.95 2.89, 111.69 1.81 C125.44 0.72, 139.76 1.16, 152.89 3.99 C166.03 6.83, 176.29 1.63, 190.49 18.82 C204.68 36.02, 233.19 83.2, 238.08 107.15 C242.96 131.1, 221.54 162.63, 219.78 162.52 M51.25 23.48 C60.83 15.25, 73.01 10.86, 85.77 7.18 C98.53 3.49, 114.06 1.05, 127.83 1.37 C141.6 1.68, 155.88 4.13, 168.4 9.07 C180.92 14.01, 193.71 21.95, 202.95 31.01 C212.2 40.08, 217.73 52.11, 223.88 63.46 C230.03 74.82, 237.5 86.83, 239.86 99.16 C242.21 111.49, 241.16 125.06, 238.02 137.42 C234.88 149.79, 229.56 162.59, 221.01 173.36 C212.46 184.14, 198.07 195.34, 186.74 202.08 C175.4 208.83, 165.3 210.5, 153 213.83 C140.69 217.17, 126.53 222.65, 112.89 222.09 C99.25 221.52, 84.07 215.73, 71.14 210.43 C58.21 205.13, 45.49 198.79, 35.31 190.28 C25.13 181.78, 15.86 170.57, 10.07 159.4 C4.28 148.23, 2.1 135.95, 0.56 123.25 C-0.98 110.55, -2.66 96.14, 0.85 83.2 C4.36 70.27, 13.59 55.83, 21.64 45.63 C29.68 35.44, 44.53 26.19, 49.12 22.05 C53.72 17.92, 47.62 19.12, 49.21 20.81" stroke="#1e1e1e" stroke-width="1" fill="none"></path></g><g stroke-linecap="round" transform="translate(279.17650257869354 125.59678998039226) rotate(0 2.086503035222904 25.85613720929308)"><path d="M1.04 0 C1.61 -0.29, 2.61 0.24, 3.13 0 C3.76 1.44, 4.42 1.93, 4.17 1.04 C3.05 13.29, 3.18 29.9, 4.17 50.67 C2.31 50.91, 1 54.98, 3.13 51.71 C2.89 52.04, 2.1 51.76, 1.04 51.71 C-1.2 51.57, 2.69 51.94, 0 50.67 C-2.61 36.5, 0.69 27.82, 0 1.04 C-3.33 -2.84, -2.85 1.12, 1.04 0" stroke="none" stroke-width="0" fill="#a5d8ff"></path><path d="M1.04 0 C1.63 -0.14, 2.45 -0.1, 3.13 0 M1.04 0 C1.46 0.03, 2.12 -0.01, 3.13 0 M3.13 0 C4.78 0.91, 6.02 -1.36, 4.17 1.04 M3.13 0 C3.43 -0.63, 4.92 0.44, 4.17 1.04 M4.17 1.04 C5.89 16.5, 5.27 28.46, 4.17 50.67 M4.17 1.04 C3.77 14.17, 4.51 26.69, 4.17 50.67 M4.17 50.67 C3.59 50.34, 3.1 50.6, 3.13 51.71 M4.17 50.67 C4.31 51.13, 2.03 52.08, 3.13 51.71 M3.13 51.71 C2.37 51.56, 2.14 51.66, 1.04 51.71 M3.13 51.71 C2.51 51.69, 2.06 51.76, 1.04 51.71 M1.04 51.71 C2.29 52.22, -0.22 51.95, 0 50.67 M1.04 51.71 C-0.04 51.23, 0.45 51.34, 0 50.67 M0 50.67 C0.63 36.56, -1.66 24.29, 0 1.04 M0 50.67 C1.44 36.03, 1.35 23.21, 0 1.04 M0 1.04 C-1.13 2.03, -1.53 1.02, 1.04 0 M0 1.04 C0.18 -1.65, 0.51 -1.54, 1.04 0" stroke="#1e1e1e" stroke-width="1" fill="none"></path></g><g stroke-linecap="round" transform="translate(10 123.25409211952558) rotate(0 2.086503035222904 25.85613720929308)"><path d="M1.04 0 C1.79 -0.25, 2.23 -0.29, 3.13 0 C1.02 1.97, 1.82 1.17, 4.17 1.04 C4.79 13.18, 3.05 28.12, 4.17 50.67 C2.67 51.1, 5.31 52.03, 3.13 51.71 C2.59 51.43, 1.37 52.03, 1.04 51.71 C2.13 50.95, 2.04 49.42, 0 50.67 C-0.52 39.28, 3.56 24.61, 0 1.04 C-2.34 1.1, 3.12 -2.21, 1.04 0" stroke="none" stroke-width="0" fill="#a5d8ff"></path><path d="M1.04 0 C1.85 0.16, 2.55 -0.14, 3.13 0 M1.04 0 C1.69 0.04, 2.45 -0.09, 3.13 0 M3.13 0 C5.35 -0.2, 3.92 1.03, 4.17 1.04 M3.13 0 C4.19 1.92, 2.1 -0.72, 4.17 1.04 M4.17 1.04 C3.46 11.4, 2.55 26.38, 4.17 50.67 M4.17 1.04 C4.29 19.06, 3.95 39.96, 4.17 50.67 M4.17 50.67 C2.85 50.52, 5.08 49.85, 3.13 51.71 M4.17 50.67 C2.34 52.96, 2.24 53.81, 3.13 51.71 M3.13 51.71 C2.46 51.84, 2.16 51.62, 1.04 51.71 M3.13 51.71 C2.61 51.68, 2.19 51.75, 1.04 51.71 M1.04 51.71 C2.23 53.46, 1.65 51.05, 0 50.67 M1.04 51.71 C-0.09 50.97, -0.1 52.71, 0 50.67 M0 50.67 C1.53 38.32, -0.63 21.87, 0 1.04 M0 50.67 C0.02 34.39, 0.67 18.61, 0 1.04 M0 1.04 C1.34 0.62, 0.67 -0.3, 1.04 0 M0 1.04 C1.47 2.52, 0.34 -0.27, 1.04 0" stroke="#1e1e1e" stroke-width="1" fill="none"></path></g></svg>