<svg version="1.1" xmlns="http://www.w3.org/2000/svg" viewBox="0 0 404.4179008971678 682.1257907773643" width="808.8358017943356" height="1364.2515815547285"><defs><style class="style-fonts">
      </style></defs><rect x="0" y="0" width="404.4179008971678" height="682.1257907773643" fill="#ffffff"></rect><g stroke-linecap="round"><g transform="translate(12.4102265034428 228.12379653029348) rotate(0 190.70667562159008 220.2354512017073)" fill-rule="evenodd"><path d="M-1.3 -2.61 L175.73 444.16 L384.93 -4.22 L-3.88 0.88" stroke="none" stroke-width="0" fill="#0056b3" fill-rule="evenodd"></path><path d="M-0.5 0.28 C59.66 136.89, 115.02 276.76, 176.21 444 M-0.16 -0.24 C53.97 140.41, 109.37 278.8, 176.76 443.4 M178.28 441.78 C243.52 292.01, 312.53 139.76, 382.01 -4.1 M177.56 443.15 C246.58 290.48, 317.32 137.32, 381.69 -2.09 M380.91 -0.44 C298.72 -1.3, 214.77 0.35, -0.88 -0.23 M381.56 -1.33 C275.93 -3.63, 170.25 -4.66, -0.61 0.41 M0 0 C0 0, 0 0, 0 0 M0 0 C0 0, 0 0, 0 0" stroke="#000000" stroke-width="2" fill="none"></path></g></g><mask></mask><g stroke-linecap="round" transform="translate(9.999999999999773 10) rotate(0 191.28463932786792 182.0912129283488)"><path d="M143.31 7.28 C158.99 0.78, 180.2 0.92, 197.82 0.95 C215.44 0.98, 231.98 2, 249.03 7.49 C266.09 12.98, 284.89 24.01, 300.15 33.88 C315.41 43.74, 329.51 53.51, 340.6 66.69 C351.7 79.86, 360.11 96.88, 366.73 112.92 C373.35 128.95, 377.92 145.84, 380.32 162.91 C382.72 179.99, 384.3 198.47, 381.13 215.36 C377.95 232.25, 369.2 249.49, 361.26 264.27 C353.33 279.05, 345.47 292.01, 333.51 304.04 C321.56 316.06, 305.12 327.18, 289.52 336.44 C273.92 345.7, 257.45 355.19, 239.91 359.6 C222.38 364.01, 202.41 363.53, 184.32 362.89 C166.23 362.26, 147.98 361.17, 131.37 355.77 C114.75 350.37, 99.43 340, 84.64 330.49 C69.85 320.98, 53.95 311.45, 42.64 298.72 C31.32 285.99, 23.97 270.44, 16.75 254.1 C9.54 237.76, 1.83 217.81, -0.66 200.69 C-3.14 183.57, -1.43 168.12, 1.84 151.37 C5.12 134.62, 10.77 115.3, 19 100.19 C27.22 85.09, 38.87 73.02, 51.17 60.73 C63.47 48.44, 75.65 36.13, 92.8 26.45 C109.96 16.78, 141.82 6.33, 154.11 2.66 C166.4 -1.01, 166.24 1.36, 166.54 4.41 M303.59 33.59 C319.24 40.09, 333.19 56.26, 344.37 70.29 C355.54 84.32, 364.12 101.36, 370.62 117.76 C377.12 134.16, 381.85 151.35, 383.35 168.69 C384.86 186.03, 383.58 205.3, 379.66 221.79 C375.74 238.28, 368.88 252.35, 359.82 267.62 C350.76 282.89, 337.66 300.54, 325.3 313.4 C312.94 326.25, 301.15 336.57, 285.67 344.75 C270.19 352.94, 250.75 359.58, 232.43 362.5 C214.1 365.43, 193.78 363.85, 175.72 362.31 C157.66 360.77, 140.18 359.42, 124.06 353.27 C107.94 347.12, 93.2 335.61, 78.99 325.41 C64.78 315.21, 50.09 305.43, 38.78 292.07 C27.46 278.71, 17.75 260.95, 11.11 245.23 C4.46 229.51, -0.44 214.53, -1.11 197.73 C-1.77 180.92, 3.13 161.98, 7.11 144.42 C11.09 126.85, 14.29 107.77, 22.76 92.33 C31.24 76.89, 45.08 63.07, 57.95 51.77 C70.82 40.47, 84.86 31.98, 99.99 24.52 C115.12 17.05, 131.6 10.64, 148.72 6.96 C165.85 3.27, 184.06 1.49, 202.76 2.4 C221.45 3.31, 243.27 6.6, 260.89 12.4 C278.52 18.21, 301.62 32.69, 308.48 37.23 C315.34 41.76, 304.22 37.05, 302.05 39.62" stroke="none" stroke-width="0" fill="#0056b3"></path><path d="M41.47 68.79 C49.68 54.24, 67.89 41.41, 82.77 31.42 C97.64 21.43, 113.81 14.04, 130.73 8.85 C147.65 3.66, 165.91 0.86, 184.28 0.27 C202.65 -0.32, 223.4 1.24, 240.93 5.31 C258.46 9.39, 274.19 15.76, 289.47 24.71 C304.75 33.66, 320.25 46.23, 332.61 59.02 C344.96 71.81, 355.56 86.5, 363.61 101.44 C371.66 116.39, 378.08 131.94, 380.93 148.71 C383.77 165.48, 382.98 185.14, 380.67 202.06 C378.35 218.99, 373.71 234.84, 367.05 250.27 C360.39 265.7, 351.73 281.01, 340.72 294.64 C329.7 308.27, 316.1 321.84, 300.96 332.05 C285.81 342.26, 266.96 350.73, 249.84 355.91 C232.73 361.08, 216.25 362.61, 198.28 363.09 C180.3 363.57, 159.78 362.76, 141.97 358.78 C124.17 354.79, 106.45 348.28, 91.44 339.19 C76.43 330.1, 63.6 316.76, 51.92 304.25 C40.25 291.74, 29.62 278.89, 21.39 264.15 C13.16 249.4, 5.95 232.94, 2.56 215.78 C-0.84 198.62, -0.79 178.5, 1.02 161.19 C2.83 143.88, -1.89 134.58, 13.44 111.92 C28.77 89.27, 69.02 43.04, 92.99 25.27 C116.96 7.51, 155.73 2.67, 157.28 5.35 M344.21 73.71 C356.56 84.97, 363.69 105.74, 370.17 122.6 C376.66 139.47, 381.5 157.77, 383.11 174.91 C384.71 192.06, 384.56 209.43, 379.79 225.47 C375.02 241.51, 363.8 256.28, 354.48 271.17 C345.17 286.06, 336.79 303.03, 323.9 314.81 C311.01 326.59, 292.71 334.29, 277.13 341.84 C261.56 349.4, 247.14 356.34, 230.47 360.14 C213.79 363.94, 194.87 365.84, 177.1 364.63 C159.33 363.43, 140.56 359.41, 123.84 352.94 C107.13 346.46, 91.44 336.2, 76.82 325.79 C62.2 315.37, 47 304.25, 36.12 290.47 C25.24 276.68, 17.66 259.86, 11.52 243.09 C5.39 226.31, 0.54 206.83, -0.7 189.83 C-1.94 172.82, -0.68 157.62, 4.06 141.08 C8.8 124.55, 19.14 105.51, 27.73 90.61 C36.32 75.71, 42.64 63.75, 55.6 51.68 C68.56 39.61, 89.08 26.65, 105.49 18.17 C121.89 9.7, 136.61 3.78, 154.01 0.83 C171.41 -2.11, 191.5 -1.77, 209.88 0.52 C228.26 2.8, 247.55 7.94, 264.29 14.55 C281.02 21.16, 296.47 30.08, 310.27 40.17 C324.08 50.26, 341.95 68.9, 347.13 75.09 C352.32 81.28, 343.69 75.37, 341.41 77.32" stroke="#000000" stroke-width="2" fill="none"></path></g><g stroke-linecap="round" transform="translate(98.31477168403603 61.72096542564395) rotate(0 108.45120022152616 110.22652571554408)"><path d="M80.5 2.83 C91.83 -1.93, 105.59 0.96, 117.98 2.21 C130.37 3.47, 143.33 4.68, 154.84 10.35 C166.35 16.02, 177.76 26.21, 187.04 36.24 C196.32 46.27, 205.34 58.12, 210.51 70.54 C215.68 82.96, 218.13 97.77, 218.07 110.75 C218.01 123.74, 215.29 136.46, 210.14 148.48 C204.98 160.5, 196.21 172.94, 187.15 182.86 C178.08 192.79, 167.49 202.11, 155.75 208.02 C144.02 213.92, 129.57 217.06, 116.75 218.31 C103.92 219.56, 91.24 218.96, 78.79 215.52 C66.34 212.09, 52.54 205.33, 42.03 197.72 C31.51 190.12, 22.41 180.8, 15.69 169.9 C8.98 158.99, 4.24 145.51, 1.74 132.29 C-0.76 119.07, -1.63 103.99, 0.69 90.58 C3.01 77.17, 8.66 63.18, 15.66 51.83 C22.67 40.48, 26.57 31.09, 42.72 22.48 C58.86 13.87, 95.47 2.48, 112.53 0.17 C129.59 -2.13, 144.99 6.63, 145.07 8.63 M28.84 37.55 C35.93 26.76, 44.88 18.29, 56.48 12.04 C68.09 5.78, 84.96 1.06, 98.45 0.04 C111.95 -0.99, 125.39 2.58, 137.46 5.89 C149.54 9.2, 160.88 12.74, 170.89 19.92 C180.9 27.1, 190.46 37.25, 197.52 48.96 C204.59 60.66, 210.24 77.32, 213.26 90.15 C216.29 102.98, 218 113.59, 215.64 125.93 C213.29 138.28, 205.54 152.28, 199.13 164.22 C192.72 176.16, 186.86 189.38, 177.17 197.57 C167.48 205.77, 153.99 209.84, 140.97 213.4 C127.95 216.96, 112.61 219.66, 99.06 218.95 C85.5 218.24, 71.49 214.79, 59.63 209.15 C47.77 203.5, 36.77 194.72, 27.91 185.1 C19.05 175.48, 11.34 163.91, 6.45 151.43 C1.55 138.96, -1.87 123.82, -1.44 110.27 C-1.02 96.71, 3.79 81.88, 8.99 70.09 C14.19 58.3, 26.34 44.81, 29.78 39.52 C33.22 34.23, 28.95 37.36, 29.63 38.37" stroke="none" stroke-width="0" fill="white"></path><path d="M68.89 6.6 C79.6 -0.06, 92.79 -1.46, 105.29 -1.3 C117.78 -1.14, 131.29 2.96, 143.87 7.58 C156.44 12.2, 170.38 17.72, 180.75 26.4 C191.11 35.08, 200.03 48.02, 206.08 59.66 C212.12 71.3, 215.95 83.4, 217 96.26 C218.06 109.11, 215.67 123.67, 212.41 136.77 C209.15 149.87, 205.21 163.53, 197.44 174.84 C189.66 186.14, 176.74 197.4, 165.77 204.6 C154.81 211.8, 144 215.43, 131.63 218.03 C119.25 220.62, 104.8 222.15, 91.52 220.15 C78.23 218.14, 63.36 212.8, 51.92 206 C40.48 199.19, 30.59 190.14, 22.85 179.31 C15.11 168.47, 8.97 153.66, 5.49 140.98 C2.01 128.3, 1 116.45, 1.97 103.24 C2.94 90.03, 5.69 74.03, 11.31 61.71 C16.92 49.39, 16.93 39.44, 35.68 29.32 C54.42 19.2, 100.89 1.85, 123.77 1 C146.66 0.14, 173.44 22.34, 172.99 24.17 M63.72 9.17 C74.3 2.33, 88.63 0.15, 101.14 -0.73 C113.66 -1.6, 126.04 0.15, 138.8 3.94 C151.56 7.73, 167.35 13.7, 177.71 22 C188.07 30.3, 194.84 41.45, 200.95 53.72 C207.06 65.99, 212.52 82.49, 214.39 95.62 C216.25 108.75, 214.72 120.33, 212.13 132.5 C209.55 144.66, 205.42 157.05, 198.87 168.62 C192.31 180.18, 183.37 193.48, 172.81 201.88 C162.25 210.28, 147.92 216.39, 135.5 219 C123.09 221.6, 111.6 219.58, 98.33 217.49 C85.05 215.4, 67.55 212.69, 55.86 206.46 C44.17 200.24, 36.8 189.87, 28.21 180.14 C19.63 170.41, 8.62 160.06, 4.34 148.08 C0.06 136.09, 1.91 121.12, 2.52 108.22 C3.13 95.33, 3.77 82.64, 8.01 70.7 C12.25 58.76, 19.36 46.76, 27.95 36.58 C36.55 26.4, 53.25 13.84, 59.59 9.6 C65.93 5.36, 65 8.89, 65.98 11.14" stroke="#000000" stroke-width="4" fill="none"></path></g><g stroke-linecap="round"><g transform="translate(58.47391651005614 308.4375731541104) rotate(0 129.39283979636514 66.86858411399999)" fill-rule="evenodd"><path d="M-3.3 0.73 L54.33 134.24 L204.45 148.45 L255.76 -16.72 L3.87 2.09" stroke="none" stroke-width="0" fill="#0056b3" fill-rule="evenodd"></path><path d="M-2.2 2.44 C13.01 26.36, 22.35 55.45, 50.5 133.04 M-0.95 1.08 C20.82 54.02, 41.23 107.29, 50.19 131.93 M53.01 128.76 C99.79 141.71, 141.64 149.07, 203.76 149.77 M52.25 133.58 C82.78 141.06, 118.1 143.46, 204.41 151.63 M201.25 151.37 C217.62 107.91, 229.88 69.14, 262.57 -19.17 M201.7 152.44 C227.06 89.81, 249.35 24.77, 256.79 -18.73 M257.05 -15.96 C182.15 -13.4, 107.81 -8.39, 1.52 3.13 M259.13 -17.76 C181.24 -11.05, 104.15 -4.15, 1.41 -0.71 M0 0 C0 0, 0 0, 0 0 M0 0 C0 0, 0 0, 0 0" stroke="#0056b3" stroke-width="2" fill="none"></path></g></g><mask></mask></svg>