  <svg
    xmlns="http://www.w3.org/2000/svg"
    viewBox="0 0 59.0990686937339 55.94974129717275"
    width="118.1981373874678"
    height="111.8994825943455"
  >
    <g strokeLinecap="round">
      <g
        transform="translate(11.020945105701685 43.99093862320706) rotate(0 18.721467153127833 0)"
      >
        <path
          d="M-1.02 1.96 C10.71 -0.02, 18.25 0.9, 38 -0.12 M-0.16 0.12 C10.08 0.66, 22.57 0.58, 38.08 -0.78"
          stroke="#1e1e1e"
          strokeWidth="2"
          fill="none"
        />
      </g>
    </g>
    <g strokeLinecap="round">
      <g
        transform="translate(14.615040078168022 27.45477476161477) rotate(0 15.236556962765007 -3.2186326723208367)"
      >
        <path
          d="M0 0 C2.77 2.19, 4.96 4.39, 10.09 11.02 M0 0 C2.49 2.62, 5.18 5.55, 10.09 11.02 M10.09 11.02 C15.34 2.52, 22.21 -6.55, 30.47 -17.45 M10.09 11.02 C17.19 0.98, 24.01 -8.21, 30.47 -17.45"
          stroke="#2f9e44"
          strokeWidth="2"
          fill="none"
        />
      </g>
    </g>
  </svg>