  <svg
    xmlns="http://www.w3.org/2000/svg"
    viewBox="0 0 64.8237294857945 58.9468106286472"
    width="129.647458971589"
    height="117.8936212572944"
  >
    <g strokeLinecap="round">
      <g
        transform="translate(31.53615435764641 10.447225452679959) rotate(0 -0.07207346357427014 15.716127661814198)"
      >
        <path
          d="M-0.29 -0.45 C-0.49 4.66, -0.65 25.64, -0.66 31 M0.56 0.51 C0.48 5.64, 0.54 26.43, 0.3 31.47"
          stroke="#1e1e1e"
          strokeWidth="2"
          fill="none"
        />
      </g>
      <g
        transform="translate(31.53615435764641 10.447225452679959) rotate(0 -0.07207346357427014 15.716127661814198)"
      >
        <path
          d="M-4.8 16.61 C-3.39 21.72, -1.36 27.95, 0.3 31.47 M-4.8 16.61 C-3.04 21.88, -0.97 26.85, 0.3 31.47"
          stroke="#1e1e1e"
          strokeWidth="2"
          fill="none"
        />
      </g>
      <g
        transform="translate(31.53615435764641 10.447225452679959) rotate(0 -0.07207346357427014 15.716127661814198)"
      >
        <path
          d="M5.95 16.8 C3.14 21.81, 0.93 27.97, 0.3 31.47 M5.95 16.8 C3.94 22.05, 2.24 26.96, 0.3 31.47"
          stroke="#1e1e1e"
          strokeWidth="2"
          fill="none"
        />
      </g>
    </g>
    <g strokeLinecap="round">
      <g
        transform="translate(10.570644880555847 32.59654487997386) rotate(0 22.073508917344952 7.482602651700745)"
      >
        <path
          d="M1.44 0.68 C0.08 4.94, 0.17 8.04, 1.44 15.91 M0.37 -0.4 C-0.02 3.74, -0.31 8.67, -0.57 14.32 M-0.29 14 C16.47 16.13, 29.33 16.65, 42.95 14.05 M-0.52 15.07 C9.35 14.93, 18.69 15.56, 44.24 15.43 M42.86 16.35 C43.86 9.67, 40.9 6.81, 40.48 -0.15 M44.25 14.81 C43.72 11.2, 42.14 7.46, 40.19 1.27"
          stroke="#1e1e1e"
          strokeWidth="4"
          fill="none"
        />
      </g>
    </g>
  </svg>