<svg version="1.1" xmlns="http://www.w3.org/2000/svg" viewBox="0 0 56.238015502268354 54.63114061890519" width="112.47603100453671" height="109.26228123781038"><defs><style class="style-fonts">
      </style></defs><rect x="0" y="0" width="56.238015502268354" height="54.63114061890519" fill="none"></rect><g stroke-linecap="round"><g transform="translate(27.084688778614918 15.836443365145897) rotate(0 -1.5317885897918586 13.531242899028257)"><path d="M-0.04 0.04 C-6.25 0.65, -11.55 0.09, -15.86 -0.63 M0.11 -0.15 C-4.48 -0.07, -8.55 -0.32, -16.2 0.79 M-14.67 1.89 C-14.78 5.33, -15.3 14.96, -16.64 25.7 M-16.97 0.26 C-15.17 8.1, -17.03 15.48, -17.08 27.31 M-15.87 28.79 C-10.55 25.36, -5.12 28.37, 13.76 26.43 M-16.67 26.35 C-6.83 27.08, 0.96 26.8, 13.22 27.61 M12.98 28.23 C13.74 23.84, 12.2 19.62, 14.24 12.47 M13.05 26.39 C13.39 24.96, 13.56 21.37, 13.01 13.55" stroke="#1e1e1e" stroke-width="4" fill="none"></path></g></g><mask></mask><g stroke-linecap="round"><g transform="translate(27.94482169409457 27.340008441875398) rotate(0 8.508974646876595 -8.487209095792423)"><path d="M0 0 C4.2 -4.32, 8.53 -8.84, 17.02 -16.76 M0 0 C5.69 -5.55, 11.06 -10.92, 17.02 -16.76 M17.02 -16.76 C13.67 -16.9, 10.74 -16.9, 4.76 -16.97 M17.02 -16.76 C13.16 -16.55, 9.22 -16.83, 4.76 -16.97" stroke="#1e1e1e" stroke-width="4" fill="none"></path></g></g><mask></mask><g stroke-linecap="round"><g transform="translate(45.7664477436208 10.409690181040787) rotate(0 0.15323454703275274 5.713832704378547)"><path d="M-0.93 -0.41 C0.99 4.15, -0.72 8.45, 0.08 12.07 M0.47 0.1 C-0.25 2.91, -0.25 5.89, 0.46 11.63" stroke="#1e1e1e" stroke-width="4" fill="none"></path></g></g><mask></mask></svg>