<svg version="1.1" xmlns="http://www.w3.org/2000/svg" viewBox="0 0 224.9628904546089 216.34672699553994" width="449.9257809092178" height="432.6934539910799">
  <defs>
    <style class="style-fonts"></style>
  </defs>
  <g strokeLinecap="round">
    <g transform="translate(107.39825003367605 42.92966805114156) rotate(0 -9.085010470266297 80.25355733331799)">
      <path d="M-2.92 -3.2 C-29.66 -0.61, -62.8 3.13, -95.02 1.18 M-1.42 -0.63 C-22.56 1.61, -45.58 -0.15, -97.4 0.05 M-94.04 -2.83 C-96.62 40.05, -98.05 74.32, -96.84 161.21 M-95.47 0.53 C-96.93 42.49, -95.34 85.24, -95.87 161.39 M-94.26 162.32 C-55.96 160.66, -18.76 165.02, 81.69 162.75 M-95.2 160.25 C-54.61 158.61, -13.4 162.02, 79.07 159.84 M81 160.96 C75.63 134.43, 75.54 111.4, 79.03 78.87 M79.11 161.88 C77.79 136.49, 80.89 110.46, 80.35 78.6" stroke="#1e1e1e" stroke-width="2" fill="none"></path>
    </g>
  </g>
  <mask></mask>
  <g strokeLinecap="round">
    <g transform="translate(64.32343183679109 150.87355620357812) rotate(0 74.47092728627297 -70.08173478877052)">
      <path d="M3.26 1.69 C59.01 -58.47, 114.47 -108.57, 146.4 -140.01 M-1.03 -0.43 C50.81 -51.03, 100.97 -96.29, 150.23 -140.15 M147.24 -138.8 C122.96 -140.49, 97.38 -137.19, 79.15 -139.1 M150.64 -137.84 C133.32 -140.57, 117.48 -139.75, 77.59 -139.26" stroke="#1e1e1e" stroke-width="2" fill="none"></path>
    </g>
  </g>
  <mask></mask>
  <g sstrokeLinecap="round">
    <g transform="translate(208.43721323025557 12.520656794309616) rotate(0 0.913284675073669 30.17627760619871)">
      <path d="M1.6 -2.52 C-2.47 23.9, -1.35 39.89, 3.72 57.99 M1.82 -1.39 C0.39 10.55, 2.83 23.24, 1.54 58.84" stroke="#1e1e1e" strokeWidth="2" fill="none"></path>
    </g>
  </g>
  <mask></mask>
</svg>
