<svg 
  version="1.1" 
  xmlns="http://www.w3.org/2000/svg" 
  viewBox="0 0 74.46362698355028 72.56281843037505" 
  width="148.92725396710057" 
  height="145.1256368607501">
  <defs>
    <style class="style-fonts"></style>
  </defs>
  <rect x="0" y="0" width="74.46362698355028" height="72.56281843037505" fill="none"></rect>
  <g strokeLinecap="round">
    <g transform="translate(35.74642135611998 18.982093793561944) rotate(0 -2.39091735021384 21.120462466455137)">
      <path d="M-1.46 -1.6 C-6.96 -0.11, -15.67 1.76, -24.56 0.59 M-0.71 -0.32 C-5.72 0.44, -11.67 -0.44, -25.75 0.02 M-24.07 -1.41 C-24.48 11.02, -25.2 19.16, -25.47 42.59 M-24.78 0.27 C-26.05 11.35, -25.25 22.83, -24.98 42.68 M-24.18 43.15 C-14.4 42.07, -5.17 44.25, 22.2 43.36 M-24.65 42.11 C-14.04 41.28, -3.11 42.99, 20.89 41.91 M21.85 42.46 C19.27 34.62, 19.22 28.54, 20.87 20.53 M20.91 42.93 C20.03 36.37, 21.58 29.48, 21.53 20.39" stroke="#1e1e1e" strokeWidth="6" fill="none"></path>
    </g>
  </g>
  <mask></mask>
  <g strokeLinecap="round">
    <g transform="translate(24.454443117599567 47.41191646161133) rotate(0 19.598638077303463 -18.443526970931998)">
      <path d="M1.82 0.95 C15.84 -15.72, 29.71 -27.75, 37.77 -37.18 M-0.57 -0.24 C13.47 -13.55, 26.27 -24.63, 39.92 -37.26 M38.39 -36.51 C32.51 -37.37, 26.02 -35.69, 21.45 -36.38 M40.01 -36.05 C35.28 -37.33, 31.25 -36.87, 20.7 -36.45" stroke="#1e1e1e" strokeWidth="6" fill="none"></path>
    </g>
  </g>
  <mask></mask>
  <g strokeLinecap="round">
    <g transform="translate(62.381107205247645 11.001353289158942) rotate(0 0.2403506503889048 7.941541281615173)">
      <path d="M0.64 -1 C-0.94 6.72, -0.58 10.29, 1.23 14.94 M0.72 -0.55 C-0.14 2.58, 0.78 6, 0.37 15.28" stroke="#1e1e1e" strokeWidth="6" fill="none"></path>
    </g>
  </g>
</svg>