<svg version="1.1" xmlns="http://www.w3.org/2000/svg" viewBox="0 0 2429.4659977941847 1512.3583511459042" width="4858.931995588369" height="3024.7167022918084"><defs><style class="style-fonts">
      </style></defs><rect x="0" y="0" width="2429.4659977941847" height="1512.3583511459042" fill="#ffffff"></rect><g stroke-opacity="0.4" fill-opacity="0.4" stroke-linecap="round" transform="translate(2001.816624736799 182.8273579903282) rotate(89.99999999999994 18.51027045173396 14.660125737127942)"><path d="M14.2 1.12 C17.88 0.34, 23.52 1.1, 27.18 2.4 C30.84 3.7, 34.53 6.16, 36.17 8.91 C37.81 11.66, 38.35 15.79, 37.02 18.89 C35.69 22, 31.62 25.66, 28.19 27.54 C24.75 29.42, 20.17 30.77, 16.42 30.17 C12.66 29.57, 8.42 26.41, 5.65 23.93 C2.89 21.45, 0.28 18.44, -0.17 15.28 C-0.63 12.12, 0.43 7.39, 2.93 4.99 C5.43 2.58, 12.32 1.44, 14.82 0.83 C17.32 0.23, 17.7 1.09, 17.93 1.33 M23.27 1.19 C26.83 1.17, 29.64 2.1, 31.87 4.35 C34.09 6.6, 36.49 11.35, 36.61 14.67 C36.74 17.98, 35.35 21.66, 32.64 24.26 C29.93 26.86, 24.05 29.78, 20.34 30.27 C16.63 30.76, 13.48 28.78, 10.37 27.21 C7.27 25.63, 3.46 23.85, 1.7 20.82 C-0.05 17.79, -1.63 12.16, -0.17 9.01 C1.29 5.86, 6.85 3.25, 10.47 1.94 C14.08 0.63, 19.54 1.49, 21.52 1.14 C23.5 0.79, 22.28 -0.26, 22.32 -0.17" stroke="#228be6" stroke-width="2" fill="none"></path></g><g stroke-linecap="round"><g stroke-opacity="0.4" fill-opacity="0.4" transform="translate(2100.62461604533 426.26157538545203) rotate(89.99999999999994 15.709990680206829 27.618173850515177)"><path d="M-0.47 1.4 C5.18 6.33, 12.45 9.86, 25.2 12.84 M1.24 0.19 C10.47 6.3, 15.59 9.46, 22.19 11.22 M26.19 16.7 C24.88 24.2, 27.06 31.17, 34.79 59.08 M22.05 12.62 C25.32 28.43, 26.79 45.27, 33.03 55.1 M29.98 58.15 C24.81 53.76, 20.45 55.69, 10.14 55.04 M29.87 54.76 C24.59 56.08, 20.11 53.94, 11.06 52.91 M10.08 55.81 C8.77 33.5, 2.87 19.95, -0.89 0.61 M13.13 56.27 C7.64 34.4, 4.4 12.99, -1.37 -1.81" stroke="#bcdfc9" stroke-width="2" fill="none"></path></g></g><mask></mask><g stroke-opacity="0.4" fill-opacity="0.4" stroke-linecap="round" transform="translate(2077.841887029983 1238.2374949173613) rotate(89.99999999999994 12.816641696763327 11.691883356486642)"><path d="M13.14 0.08 C15.76 0.09, 19.3 1.4, 21.32 3.13 C23.35 4.86, 24.93 8.05, 25.31 10.47 C25.68 12.88, 25.07 15.53, 23.57 17.59 C22.07 19.65, 18.94 22.01, 16.29 22.83 C13.65 23.66, 10.12 23.49, 7.69 22.53 C5.27 21.57, 3.02 19.28, 1.74 17.08 C0.46 14.89, -0.62 11.8, 0.02 9.35 C0.67 6.91, 3.27 3.92, 5.61 2.43 C7.95 0.94, 12.64 0.82, 14.07 0.42 C15.5 0.01, 14.29 -0.22, 14.19 -0.01 M11.11 -0.48 C13.54 -0.98, 16.92 0.56, 19.1 1.89 C21.29 3.21, 23.32 5.11, 24.23 7.48 C25.13 9.85, 25.26 13.62, 24.53 16.11 C23.8 18.61, 22.22 21.24, 19.86 22.45 C17.49 23.67, 13.08 23.84, 10.32 23.4 C7.55 22.95, 5.09 21.71, 3.27 19.81 C1.46 17.9, -0.43 14.67, -0.58 11.97 C-0.73 9.27, 0.53 5.61, 2.36 3.58 C4.19 1.55, 8.98 0.35, 10.42 -0.22 C11.86 -0.78, 10.88 -0.14, 10.98 0.18" stroke="none" stroke-width="0" fill="#d0bfff"></path><path d="M15.49 0.21 C18.12 0.43, 21.46 2.28, 23.11 4.26 C24.76 6.24, 25.48 9.53, 25.4 12.11 C25.32 14.7, 24.3 17.98, 22.6 19.77 C20.91 21.56, 17.97 22.53, 15.24 22.84 C12.51 23.16, 8.68 22.94, 6.2 21.66 C3.72 20.38, 1.32 17.43, 0.35 15.14 C-0.61 12.85, -0.69 10.1, 0.41 7.92 C1.51 5.73, 4.39 3.22, 6.96 2.01 C9.53 0.79, 14.27 0.84, 15.83 0.63 C17.38 0.41, 16.32 0.51, 16.32 0.72 M14.63 0.11 C17.31 0.42, 20.78 2.09, 22.51 4.08 C24.23 6.08, 24.85 9.59, 24.99 12.08 C25.14 14.57, 24.95 17.05, 23.38 19.01 C21.8 20.96, 18.47 23.35, 15.56 23.78 C12.66 24.22, 8.29 22.95, 5.93 21.64 C3.57 20.32, 2.3 18.1, 1.41 15.88 C0.51 13.67, -0.3 10.75, 0.55 8.33 C1.4 5.9, 4.1 2.68, 6.5 1.32 C8.91 -0.04, 13.66 0.21, 14.98 0.15 C16.3 0.1, 14.6 0.81, 14.44 0.97" stroke="#7950f2" stroke-width="2" fill="none"></path></g><g stroke-opacity="0.4" fill-opacity="0.4" stroke-linecap="round" transform="translate(1787.84582183999 1369.2373088544405) rotate(268.63273934549807 8.959656884815558 8.959656884816013)"><path d="M13.35 0.75 C14.88 1.48, 15.79 3.72, 16.53 5.6 C17.26 7.48, 18.03 10.4, 17.76 12.03 C17.49 13.67, 16.5 14.46, 14.9 15.41 C13.31 16.35, 10.33 17.84, 8.18 17.7 C6.04 17.56, 3.51 15.73, 2.02 14.55 C0.53 13.36, -0.82 12.2, -0.76 10.6 C-0.7 9.01, 1.15 6.58, 2.4 4.99 C3.65 3.39, 4.68 1.53, 6.72 1.02 C8.76 0.51, 13.03 1.4, 14.66 1.93 C16.28 2.46, 16.52 4.22, 16.47 4.21 M6.18 0.56 C7.74 0.09, 9.03 1.13, 11.01 1.8 C12.99 2.48, 16.84 2.92, 18.07 4.62 C19.29 6.33, 19.17 10.22, 18.35 12.02 C17.54 13.83, 14.6 14.46, 13.17 15.45 C11.75 16.43, 11.55 17.75, 9.8 17.94 C8.05 18.12, 4.2 17.94, 2.67 16.54 C1.15 15.14, 0.82 11.59, 0.65 9.54 C0.48 7.49, 0.84 5.57, 1.64 4.25 C2.44 2.94, 4.9 2.3, 5.47 1.64 C6.03 0.97, 4.99 0.2, 5.03 0.25" stroke="#000000" stroke-width="2" fill="none"></path></g><g stroke-opacity="0.4" fill-opacity="0.4" stroke-linecap="round" transform="translate(1826.9285490157781 1368.3044928418162) rotate(268.63273934549807 8.959656884815558 8.959656884816013)"><path d="M8.62 0.62 C10.33 0.69, 13.27 2.11, 14.91 3.13 C16.54 4.15, 18.18 5.05, 18.44 6.76 C18.7 8.46, 17.67 11.72, 16.46 13.34 C15.24 14.97, 13.07 15.75, 11.15 16.53 C9.24 17.3, 6.48 18.36, 4.97 17.99 C3.45 17.63, 2.79 16, 2.04 14.33 C1.28 12.65, 0.17 9.97, 0.44 7.94 C0.71 5.92, 1.66 3.28, 3.65 2.18 C5.65 1.08, 10.61 1.54, 12.39 1.34 C14.17 1.14, 14.63 1.04, 14.35 0.98 M7.44 1.16 C9.46 0.97, 13.92 0.64, 15.74 1.84 C17.56 3.05, 18.4 6.59, 18.36 8.4 C18.32 10.2, 16.34 11.19, 15.51 12.68 C14.68 14.16, 14.98 16.37, 13.37 17.32 C11.75 18.26, 7.72 19.09, 5.81 18.36 C3.9 17.63, 2.78 14.74, 1.88 12.95 C0.98 11.17, 0.32 9.24, 0.39 7.66 C0.46 6.07, 1.14 4.78, 2.32 3.44 C3.51 2.11, 6.58 0.08, 7.53 -0.36 C8.47 -0.8, 7.72 0.74, 7.98 0.81" stroke="#000000" stroke-width="2" fill="none"></path></g><g stroke-opacity="0.4" fill-opacity="0.4" stroke-linecap="round" transform="translate(1866.698114788156 1367.355283550433) rotate(268.63273934549807 8.959656884815558 8.959656884816013)"><path d="M9.05 0.95 C11.05 0.61, 13.93 0.28, 15.35 1.32 C16.77 2.36, 17.48 5.33, 17.58 7.2 C17.68 9.06, 17.03 10.73, 15.97 12.54 C14.91 14.34, 12.74 17.06, 11.22 18.03 C9.69 19.01, 8.42 19.03, 6.8 18.38 C5.18 17.72, 2.54 15.91, 1.48 14.11 C0.43 12.31, 0.07 9.42, 0.5 7.58 C0.92 5.74, 2.19 4.39, 4.04 3.06 C5.88 1.74, 10.23 0.01, 11.58 -0.37 C12.93 -0.75, 12.28 0.53, 12.14 0.78 M10.5 -0.1 C12.65 -0.13, 14.59 2.33, 15.59 3.54 C16.59 4.75, 16.17 5.48, 16.51 7.18 C16.86 8.88, 18.52 11.88, 17.67 13.75 C16.82 15.61, 13.32 17.92, 11.4 18.39 C9.48 18.86, 7.82 17.44, 6.14 16.57 C4.47 15.7, 2.44 14.55, 1.33 13.17 C0.23 11.78, -0.65 10.21, -0.5 8.27 C-0.34 6.33, 0.76 2.79, 2.26 1.52 C3.77 0.25, 7.32 0.99, 8.55 0.64 C9.77 0.28, 9.6 -0.48, 9.6 -0.61" stroke="#000000" stroke-width="2" fill="none"></path></g><g stroke-linecap="round"><g stroke-opacity="0.4" fill-opacity="0.4" transform="translate(2158.646991413487 -7.108215843908056) rotate(167.8526388639794 82.8539797295598 152.63220343076136)"><path d="M-0.01 -1.3 C-7.1 14.75, -51.21 78.97, -42.49 98.5 C-33.78 118.04, 40.8 103.15, 52.28 115.91 C63.76 128.66, 12.58 158.53, 26.4 175.03 C40.22 191.52, 119.13 196.33, 135.21 214.87 C151.29 233.41, 110.12 270.79, 122.88 286.27 C135.64 301.76, 196.8 304.48, 211.77 307.78 M-3.45 4.17 C-10.77 20.52, -53.02 84.41, -43.79 102.28 C-34.56 120.14, 40.32 98.83, 51.92 111.34 C63.52 123.85, 11.12 160.11, 25.82 177.33 C40.51 194.54, 123.57 195.66, 140.08 214.64 C156.58 233.62, 113.93 276, 124.86 291.22 C135.78 306.44, 191.15 303.56, 205.64 305.97" stroke="#228be6" stroke-width="4" fill="none"></path></g></g><mask></mask><g stroke-opacity="0.4" fill-opacity="0.4" stroke-linecap="round" transform="translate(740.1169831404186 398.9265816234979) rotate(89.99999999999994 17.509453801772906 18.6890351990628)"><path d="M25.35 1.89 C28.39 3.4, 31.57 6.76, 32.91 10.59 C34.26 14.43, 34.25 20.78, 33.41 24.91 C32.57 29.05, 30.83 33.25, 27.86 35.42 C24.88 37.58, 19.36 38.53, 15.55 37.88 C11.74 37.23, 7.44 34.41, 4.99 31.52 C2.55 28.62, 0.99 24.64, 0.86 20.52 C0.73 16.39, 2.19 10.15, 4.22 6.76 C6.25 3.37, 9.04 0.65, 13.04 0.18 C17.04 -0.28, 25.32 3.04, 28.22 3.97 C31.13 4.89, 30.49 5.34, 30.45 5.72 M15.58 -0.54 C19.21 -1.12, 26.29 1.28, 29.41 3.99 C32.54 6.69, 33.64 11.91, 34.33 15.71 C35.01 19.51, 35.19 23.38, 33.53 26.77 C31.86 30.16, 28.05 34.22, 24.36 36.04 C20.67 37.85, 15.22 38.95, 11.4 37.65 C7.59 36.35, 3.46 31.72, 1.46 28.23 C-0.53 24.74, -1.35 20.75, -0.58 16.72 C0.2 12.68, 3.31 6.97, 6.11 4.01 C8.91 1.05, 14.39 -0.32, 16.22 -1.04 C18.05 -1.76, 16.99 -0.7, 17.11 -0.33" stroke="#bcdfc9" stroke-width="4" fill="none"></path></g><g stroke-linecap="round"><g stroke-opacity="0.4" fill-opacity="0.4" transform="translate(1960.014610720722 870.1849492322967) rotate(133.09842113509237 -6.921588691961006 17.684183916471284)"><path d="M2.67 1.78 C-0.39 3.6, -14.3 7.32, -16.64 11.22 C-18.97 15.13, -13.83 21.54, -11.36 25.18 C-8.9 28.83, -4.17 30.97, -1.86 33.08 M0.68 0.27 C-1.67 2.51, -9.04 10.07, -11.4 14.55 C-13.76 19.02, -14.94 23.83, -13.48 27.15 C-12.02 30.46, -4.89 33.72, -2.64 34.45" stroke="#ffcd38" stroke-width="4" fill="none"></path></g></g><mask></mask><g stroke-opacity="0.4" fill-opacity="0.4" stroke-linecap="round" transform="translate(1784.5283578807284 1099.3880172417971) rotate(89.99999999999994 11.327209472821778 9.95921271029124)"><path d="M11.46 0.3 C13.79 0.25, 17.57 1.21, 19.44 2.66 C21.3 4.1, 22.42 6.93, 22.62 8.97 C22.82 11.02, 22.02 13.1, 20.64 14.92 C19.26 16.75, 16.66 19.15, 14.34 19.91 C12.01 20.68, 8.88 20.35, 6.71 19.52 C4.54 18.69, 2.46 16.87, 1.31 14.91 C0.16 12.94, -0.72 9.94, -0.18 7.73 C0.37 5.52, 2.56 2.97, 4.58 1.65 C6.6 0.33, 10.6 -0.02, 11.96 -0.18 C13.32 -0.34, 12.65 0.54, 12.74 0.71 M11.5 0.36 C13.65 0.17, 16.68 0.87, 18.49 2.23 C20.29 3.59, 21.93 6.33, 22.35 8.51 C22.77 10.68, 22.3 13.38, 21.02 15.29 C19.73 17.2, 16.9 19.42, 14.62 19.94 C12.34 20.46, 9.52 19.26, 7.32 18.4 C5.12 17.54, 2.49 16.49, 1.42 14.77 C0.35 13.04, 0.44 10.29, 0.89 8.04 C1.34 5.79, 2.27 2.54, 4.11 1.28 C5.96 0.02, 10.55 0.7, 11.96 0.49 C13.37 0.28, 12.63 -0.05, 12.58 0" stroke="none" stroke-width="0" fill="#0056b3"></path><path d="M10.35 0.34 C12.79 0.27, 16.59 1.23, 18.61 2.52 C20.64 3.8, 22.01 6.06, 22.51 8.07 C23.01 10.08, 22.65 12.66, 21.59 14.58 C20.53 16.51, 18.36 18.85, 16.15 19.62 C13.94 20.38, 10.75 19.91, 8.31 19.18 C5.86 18.45, 2.87 16.97, 1.5 15.23 C0.12 13.49, -0.3 10.89, 0.06 8.73 C0.42 6.56, 1.76 3.62, 3.66 2.23 C5.56 0.85, 10.17 0.71, 11.45 0.41 C12.73 0.1, 11.33 0.38, 11.33 0.41 M10.12 0.49 C12.36 0.12, 16.01 0.28, 18.05 1.42 C20.1 2.57, 21.86 5.12, 22.4 7.34 C22.94 9.55, 22.41 12.81, 21.27 14.72 C20.13 16.62, 17.77 17.92, 15.57 18.78 C13.37 19.65, 10.3 20.49, 8.08 19.91 C5.86 19.33, 3.64 17.2, 2.24 15.32 C0.84 13.44, -0.49 10.74, -0.3 8.62 C-0.11 6.5, 1.61 4.08, 3.37 2.6 C5.13 1.11, 9.05 0.08, 10.25 -0.31 C11.45 -0.7, 10.69 0.09, 10.59 0.25" stroke="#1e1e1e" stroke-width="2" fill="none"></path></g><g stroke-linecap="round"><g stroke-opacity="0.4" fill-opacity="0.4" transform="translate(4.622078076754406 460.8566079972493) rotate(196.73333063603593 114.05210108423853 175.17182930013132)"><path d="M-2.51 -2.28 C-2.85 14.32, -20.17 81.61, -2.63 97.48 C14.91 113.35, 90.39 80.82, 102.75 92.93 C115.1 105.04, 61.26 162.37, 71.5 170.14 C81.74 177.9, 155.62 128.47, 164.18 139.55 C172.74 150.62, 111.74 228.01, 122.86 236.56 C133.98 245.11, 214.37 171.91, 230.9 190.84 C247.44 209.78, 223.42 323.58, 222.09 350.19 M1.33 2.65 C0.83 18.71, -20.72 79.64, -3.87 93.84 C12.98 108.03, 89.62 74.58, 102.45 87.82 C115.28 101.07, 63.34 165.74, 73.09 173.29 C82.84 180.84, 153.3 122.81, 160.96 133.11 C168.61 143.41, 107.26 224.7, 119.02 235.07 C130.78 245.44, 214.81 176.3, 231.52 195.34 C248.22 214.38, 221.35 323.97, 219.25 349.31" stroke="#ffcd38" stroke-width="2" fill="none"></path></g></g><mask></mask><g stroke-linecap="round"><g stroke-opacity="0.4" fill-opacity="0.4" transform="translate(2317.209836301736 1220.7003654729165) rotate(89.99999999999994 28.16668645388563 -13.426593727062937)"><path d="M1.84 2.52 C9.51 -3.42, 34.14 -39.62, 43.53 -37.9 C52.92 -36.18, 55.97 4.16, 58.18 12.84 M-0.61 1.41 C7.17 -5.2, 33.14 -43.56, 42.8 -42.48 C52.47 -41.41, 54.9 -0.8, 57.37 7.86" stroke="#228be6" stroke-width="4" fill="none"></path></g></g><mask></mask><g stroke-linecap="round"><g stroke-opacity="0.4" fill-opacity="0.4" transform="translate(56.34380963401418 1295.2920660586128) rotate(195.8882930523424 -12.50530979069481 27.46840634394539)"><path d="M2.78 0.78 C4.61 5.44, 14.57 21.02, 12.83 30.44 C11.09 39.86, 0.03 55.12, -7.66 57.3 C-15.35 59.47, -28.31 46.38, -33.31 43.49 M0.85 -1.26 C2.31 3.74, 13.27 16.93, 11.6 25.98 C9.92 35.03, -0.63 50.98, -9.22 53.05 C-17.8 55.12, -35.87 40.61, -39.9 38.42" stroke="#0056b3" stroke-width="2" fill="none"></path></g></g><mask></mask><g stroke-linecap="round"><g stroke-opacity="0.4" fill-opacity="0.4" transform="translate(154.64301779049492 983.100794929243) rotate(317.83860059522675 -60.03364165092353 119.8212796094781)"><path d="M1.85 1.01 C-18.43 18.07, -98.98 63.06, -118.85 103.12 C-138.72 143.19, -116.9 218.96, -117.38 241.41 M-0.6 -0.91 C-21.45 15.33, -101.32 59.77, -120.84 99.4 C-140.36 139.02, -117.52 213.49, -117.72 236.84" stroke="#228be6" stroke-width="4" fill="none"></path></g><g stroke-opacity="0.4" fill-opacity="0.4" transform="translate(154.64301779049492 983.100794929243) rotate(317.83860059522675 -60.03364165092353 119.8212796094781)"><path d="M-128.54 214.99 C-122.91 225.37, -118.72 231.11, -118.99 236.3 M-130.12 215.44 C-125.05 221.12, -122.04 228.54, -118.61 236.47" stroke="#228be6" stroke-width="4" fill="none"></path></g><g stroke-opacity="0.4" fill-opacity="0.4" transform="translate(154.64301779049492 983.100794929243) rotate(317.83860059522675 -60.03364165092353 119.8212796094781)"><path d="M-111.59 212.77 C-112.72 224.14, -115.3 230.77, -118.99 236.3 M-113.16 213.21 C-113.09 219.56, -115.08 227.64, -118.61 236.47" stroke="#228be6" stroke-width="4" fill="none"></path></g></g><mask></mask><g stroke-opacity="0.4" fill-opacity="0.4" stroke-linecap="round" transform="translate(2348.07666760758 420.7371316777321) rotate(89.99999999999994 20.053651287733373 20.05365128773292)"><path d="M29.15 2.78 C32.87 4.25, 35.89 8.25, 37.64 11.96 C39.39 15.67, 40.79 20.94, 39.62 25.02 C38.45 29.11, 34.21 33.81, 30.62 36.45 C27.04 39.1, 22.18 41.38, 18.11 40.88 C14.04 40.38, 9.17 36.69, 6.2 33.47 C3.23 30.25, 0.51 25.92, 0.3 21.55 C0.08 17.17, 2.28 10.88, 4.89 7.23 C7.51 3.57, 11.94 0.43, 15.98 -0.39 C20.02 -1.22, 26.83 1.57, 29.15 2.25 C31.46 2.93, 29.95 3.33, 29.86 3.7 M26.02 1.58 C30.01 2.82, 35.59 6.49, 37.75 9.69 C39.9 12.89, 39.61 16.51, 38.95 20.78 C38.29 25.06, 36.53 32.22, 33.8 35.36 C31.07 38.5, 26.91 39.52, 22.56 39.62 C18.21 39.72, 11.43 38.31, 7.69 35.97 C3.95 33.62, 0.94 29.67, 0.11 25.54 C-0.72 21.4, 0.79 14.88, 2.71 11.16 C4.64 7.44, 8.1 5.18, 11.68 3.21 C15.26 1.25, 21.76 -0.29, 24.2 -0.62 C26.63 -0.94, 26.42 0.55, 26.32 1.27" stroke="none" stroke-width="0" fill="#ffcd38"></path><path d="M28.69 2 C32.31 3.76, 36.77 8.53, 38.53 12.4 C40.29 16.28, 40.41 21.01, 39.25 25.24 C38.09 29.47, 35.24 35.26, 31.59 37.78 C27.95 40.3, 21.61 41.19, 17.36 40.35 C13.1 39.51, 9.03 35.83, 6.08 32.71 C3.13 29.6, -0.03 25.85, -0.35 21.67 C-0.67 17.49, 1.38 11.1, 4.16 7.63 C6.94 4.16, 11.54 1.25, 16.32 0.85 C21.11 0.44, 29.56 3.96, 32.88 5.23 C36.2 6.5, 36.27 8.36, 36.26 8.45 M17.94 -0.64 C21.98 -1.67, 26.73 -0.16, 30.31 2.19 C33.89 4.55, 38.07 9.32, 39.43 13.49 C40.79 17.66, 40.07 23.13, 38.45 27.21 C36.83 31.28, 33.78 36.02, 29.72 37.95 C25.66 39.88, 18.41 39.82, 14.11 38.8 C9.81 37.77, 6.21 34.9, 3.9 31.77 C1.59 28.64, -0.04 24.41, 0.26 20.02 C0.55 15.63, 2.63 8.5, 5.67 5.44 C8.71 2.38, 16.48 2.43, 18.52 1.65 C20.56 0.87, 17.83 0.82, 17.9 0.76" stroke="#ffcd38" stroke-width="4" fill="none"></path></g><g stroke-linecap="round"><g stroke-opacity="0.4" fill-opacity="0.4" transform="translate(1731.4968250611782 384.1090734878403) rotate(89.99999999999994 30.80056281623729 -23.930221667736078)"><path d="M2.69 1.77 C3.73 -6.9, -1.72 -41.41, 6.71 -49.64 C15.14 -57.86, 44.12 -55.72, 53.27 -47.59 C62.42 -39.46, 65.94 -8.33, 61.64 -0.86 C57.33 6.61, 33.44 1.63, 27.45 -2.77 C21.46 -7.18, 21.74 -24.94, 25.71 -27.28 C29.67 -29.63, 47.57 -18.04, 51.21 -16.86 M0.71 0.26 C2.62 -6.86, 3.82 -39.5, 12.21 -46.97 C20.6 -54.44, 42.71 -52.7, 51.05 -44.56 C59.39 -36.43, 65.53 -5.46, 62.24 1.86 C58.95 9.17, 38.09 4.61, 31.32 -0.67 C24.55 -5.96, 17.95 -26.82, 21.63 -29.84 C25.3 -32.86, 48.23 -20.18, 53.36 -18.8" stroke="#ffcd38" stroke-width="4" fill="none"></path></g></g><mask></mask><g stroke-opacity="0.4" fill-opacity="0.4" stroke-linecap="round" transform="translate(1485.2748772762134 1482.2513113077553) rotate(89.99999999999994 9.967877237266293 10.139162600882855)"><path d="M7.44 -0.23 C9.32 -0.66, 13.01 0.31, 14.87 1.29 C16.73 2.28, 17.94 3.7, 18.6 5.68 C19.25 7.66, 19.42 11.04, 18.81 13.19 C18.21 15.34, 16.71 17.34, 14.96 18.58 C13.21 19.81, 10.37 21, 8.33 20.59 C6.3 20.19, 4.2 17.81, 2.72 16.15 C1.25 14.49, -0.35 12.62, -0.51 10.63 C-0.67 8.65, 0.03 5.97, 1.75 4.23 C3.48 2.49, 8.47 0.78, 9.85 0.21 C11.24 -0.35, 9.98 0.66, 10.04 0.82 M9.66 -1.33 C11.75 -1.35, 16.45 0.11, 18.32 1.85 C20.19 3.59, 20.77 7, 20.9 9.11 C21.04 11.22, 20.55 12.64, 19.12 14.53 C17.69 16.42, 14.75 19.75, 12.33 20.47 C9.91 21.19, 6.57 19.71, 4.58 18.84 C2.59 17.98, 0.87 16.95, 0.38 15.28 C-0.1 13.62, 1.13 11.03, 1.68 8.87 C2.24 6.71, 2.11 3.58, 3.72 2.32 C5.32 1.07, 10.36 1.56, 11.33 1.33 C12.29 1.09, 9.86 1.14, 9.51 0.91" stroke="#ffcd38" stroke-width="2" fill="none"></path></g><g stroke-linecap="round"><g stroke-opacity="0.4" fill-opacity="0.4" transform="translate(755.4574113786475 686.5760994086945) rotate(89.99999999999994 -118.94252188008431 -77.57033793704704)"><path d="M-1.3 2.22 C-41.41 -23.76, -200.45 -129.79, -240.12 -155.82 M3.19 0.96 C-36.1 -24.6, -194.09 -125.92, -234.93 -152.56" stroke="#bcdfc9" stroke-width="2" fill="none"></path></g><g stroke-opacity="0.4" fill-opacity="0.4" transform="translate(755.4574113786475 686.5760994086945) rotate(89.99999999999994 -118.94252188008431 -77.57033793704704)"><path d="M-208.97 -148.58 C-218.83 -149.88, -225.28 -150.24, -235.98 -153.47 M-210.59 -147.46 C-215.78 -148.37, -222.71 -150.2, -235.01 -152.78" stroke="#bcdfc9" stroke-width="2" fill="none"></path></g><g stroke-opacity="0.4" fill-opacity="0.4" transform="translate(755.4574113786475 686.5760994086945) rotate(89.99999999999994 -118.94252188008431 -77.57033793704704)"><path d="M-218.25 -134.22 C-225.14 -140.06, -228.64 -145.01, -235.98 -153.47 M-219.87 -133.09 C-222.94 -137.27, -227.74 -142.39, -235.01 -152.78" stroke="#bcdfc9" stroke-width="2" fill="none"></path></g></g><mask></mask><g stroke-opacity="0.4" fill-opacity="0.4" stroke-linecap="round" transform="translate(959.1271131887988 447.8956539682581) rotate(89.99999999999994 12.816641696763327 11.691883356486642)"><path d="M15.51 0.58 C18.23 0.8, 21.45 2.09, 23.07 3.96 C24.68 5.83, 25.24 9.17, 25.2 11.79 C25.16 14.41, 24.57 17.81, 22.82 19.68 C21.07 21.55, 17.49 22.71, 14.71 23.02 C11.92 23.33, 8.42 22.77, 6.12 21.56 C3.82 20.35, 1.78 18.11, 0.89 15.77 C0 13.42, -0.25 9.94, 0.78 7.48 C1.81 5.03, 4.61 2.18, 7.06 1.04 C9.51 -0.09, 13.88 0.78, 15.46 0.66 C17.05 0.53, 16.49 0.19, 16.57 0.29 M12.84 -0.04 C15.5 -0.11, 19.46 1.62, 21.46 3.34 C23.45 5.05, 24.34 7.74, 24.84 10.23 C25.33 12.73, 25.62 16.3, 24.43 18.3 C23.24 20.29, 20.51 21.62, 17.7 22.22 C14.89 22.82, 10.12 22.74, 7.55 21.87 C4.98 21.01, 3.38 19.14, 2.26 17.05 C1.13 14.96, 0.36 11.82, 0.8 9.33 C1.24 6.84, 2.8 3.53, 4.9 2.09 C7 0.65, 11.96 0.95, 13.41 0.67 C14.87 0.39, 13.82 0.29, 13.63 0.4" stroke="none" stroke-width="0" fill="#d0bfff"></path><path d="M10.96 -0.14 C13.44 -0.59, 17.11 0.54, 19.42 1.94 C21.73 3.33, 24 5.81, 24.83 8.23 C25.65 10.64, 25.42 14.2, 24.39 16.43 C23.37 18.66, 21.12 20.52, 18.67 21.63 C16.22 22.73, 12.39 23.51, 9.7 23.05 C7 22.58, 4.04 20.8, 2.49 18.83 C0.93 16.85, 0.26 13.66, 0.36 11.2 C0.47 8.73, 1.17 5.88, 3.12 4.03 C5.07 2.19, 10.58 0.7, 12.06 0.13 C13.54 -0.44, 12.09 0.51, 11.98 0.63 M10.44 0.3 C12.91 -0.4, 16.76 -0.56, 19.09 0.63 C21.42 1.81, 23.55 5.05, 24.43 7.41 C25.32 9.78, 25.24 12.43, 24.42 14.84 C23.59 17.24, 21.57 20.35, 19.49 21.86 C17.41 23.37, 14.65 24.23, 11.94 23.9 C9.24 23.57, 5.17 21.69, 3.24 19.87 C1.3 18.04, 0.54 15.43, 0.34 12.95 C0.13 10.47, 0.52 7.2, 2 5 C3.49 2.8, 7.96 0.56, 9.25 -0.24 C10.54 -1.05, 9.54 -0.1, 9.75 0.14" stroke="#7950f2" stroke-width="2" fill="none"></path></g><g stroke-opacity="0.4" fill-opacity="0.4" stroke-linecap="round" transform="translate(1125.6837819518514 1306.6847789112057) rotate(89.99999999999994 12.816641696763327 11.691883356486642)"><path d="M14.22 -0.31 C16.72 -0.33, 19.49 1.45, 21.44 3.33 C23.38 5.22, 25.61 8.53, 25.9 11 C26.19 13.47, 24.82 16.2, 23.18 18.17 C21.54 20.14, 18.63 22.08, 16.03 22.81 C13.43 23.54, 10.08 23.57, 7.6 22.54 C5.12 21.5, 2.26 18.98, 1.15 16.6 C0.04 14.22, 0.27 10.61, 0.91 8.25 C1.56 5.88, 2.78 3.87, 4.99 2.43 C7.21 0.99, 12.6 0.01, 14.23 -0.39 C15.86 -0.78, 14.79 -0.19, 14.77 0.07 M13.97 0.51 C16.51 0.6, 19.06 1.92, 21.1 3.68 C23.13 5.44, 25.67 8.74, 26.18 11.08 C26.69 13.42, 25.88 15.87, 24.13 17.72 C22.37 19.57, 18.29 21.48, 15.64 22.2 C12.99 22.92, 10.53 22.97, 8.23 22.04 C5.93 21.12, 3.14 18.94, 1.86 16.66 C0.58 14.37, -0.09 10.62, 0.55 8.32 C1.18 6.03, 3.39 4.25, 5.69 2.89 C7.99 1.54, 13.12 0.61, 14.34 0.2 C15.56 -0.21, 13.12 0.19, 13 0.45" stroke="none" stroke-width="0" fill="#d0bfff"></path><path d="M13.14 0.08 C15.76 0.09, 19.3 1.4, 21.32 3.13 C23.35 4.86, 24.93 8.05, 25.31 10.47 C25.68 12.88, 25.07 15.53, 23.57 17.59 C22.07 19.65, 18.94 22.01, 16.29 22.83 C13.65 23.66, 10.12 23.49, 7.69 22.53 C5.27 21.57, 3.02 19.28, 1.74 17.08 C0.46 14.89, -0.62 11.8, 0.02 9.35 C0.67 6.91, 3.27 3.92, 5.61 2.43 C7.95 0.94, 12.64 0.82, 14.07 0.42 C15.5 0.01, 14.29 -0.22, 14.19 -0.01 M11.11 -0.48 C13.54 -0.98, 16.92 0.56, 19.1 1.89 C21.29 3.21, 23.32 5.11, 24.23 7.48 C25.13 9.85, 25.26 13.62, 24.53 16.11 C23.8 18.61, 22.22 21.24, 19.86 22.45 C17.49 23.67, 13.08 23.84, 10.32 23.4 C7.55 22.95, 5.09 21.71, 3.27 19.81 C1.46 17.9, -0.43 14.67, -0.58 11.97 C-0.73 9.27, 0.53 5.61, 2.36 3.58 C4.19 1.55, 8.98 0.35, 10.42 -0.22 C11.86 -0.78, 10.88 -0.14, 10.98 0.18" stroke="#7950f2" stroke-width="2" fill="none"></path></g><g stroke-linecap="round"><g stroke-opacity="0.4" fill-opacity="0.4" transform="translate(2175.2217057859853 5.042624949981473) rotate(167.8526388639794 82.8539797295598 152.63220343076136)"><path d="M0.59 -1.48 C-6.76 14.37, -53.72 77.22, -45.49 96.27 C-37.26 115.31, 37.65 99.79, 49.97 112.8 C62.3 125.8, 13.97 156.92, 28.45 174.29 C42.92 191.66, 121.13 198.22, 136.85 217.02 C152.57 235.81, 110.6 272.47, 122.74 287.07 C134.89 301.68, 195.09 301.29, 209.7 304.64 M-2.53 3.89 C-10.24 19.94, -56.9 80.28, -48.42 98.83 C-39.94 117.38, 35.46 102.29, 48.36 115.18 C61.26 128.07, 14.7 159.06, 28.97 176.19 C43.24 193.32, 118.02 198.58, 133.96 217.96 C149.91 237.34, 111.79 278.59, 124.64 292.46 C137.5 306.32, 197.16 298.63, 211.09 301.12" stroke="#228be6" stroke-width="4" fill="none"></path></g></g><mask></mask><g stroke-linecap="round"><g stroke-opacity="0.4" fill-opacity="0.4" transform="translate(104.56714385143641 204.29272727887064) rotate(207.2042302877463 57.22355974300626 -44.40032870375546)"><path d="M-1.27 -1.96 C1.29 -16.74, -0.99 -75.57, 15.93 -90.14 C32.85 -104.7, 83.67 -104.03, 100.27 -89.33 C116.87 -74.64, 123.44 -15.06, 115.52 -1.95 C107.61 11.17, 64.81 -2.49, 52.78 -10.65 C40.75 -18.8, 36.55 -47.06, 43.32 -50.89 C50.1 -54.71, 85.06 -35.87, 93.42 -33.6 M3.24 3.14 C5.4 -11.14, -1.97 -72.22, 13.89 -87.23 C29.75 -102.24, 81.27 -101.58, 98.4 -86.93 C115.54 -72.28, 123.67 -12.05, 116.69 0.68 C109.71 13.41, 68.21 -1.47, 56.51 -10.53 C44.82 -19.59, 40.09 -49.48, 46.53 -53.68 C52.97 -57.88, 87.7 -38.18, 95.17 -35.73" stroke="#0056b3" stroke-width="4" fill="none"></path></g></g><mask></mask><g stroke-opacity="0.4" fill-opacity="0.4" stroke-linecap="round" transform="translate(414.79258601892434 293.4593643623032) rotate(89.99999999999994 20.053651287733373 20.053651287733032)"><path d="M19.68 -0.94 C23.75 -1.35, 28.81 1.48, 32.12 4.36 C35.42 7.24, 38.48 12.09, 39.51 16.35 C40.54 20.61, 40.44 26.09, 38.3 29.93 C36.16 33.76, 30.62 37.81, 26.66 39.36 C22.7 40.9, 18.5 40.55, 14.56 39.18 C10.62 37.81, 5.5 34.96, 3.03 31.15 C0.55 27.33, -0.8 20.48, -0.31 16.27 C0.18 12.06, 2.44 8.47, 5.96 5.88 C9.49 3.29, 17.97 1.5, 20.86 0.73 C23.76 -0.03, 23.39 1.1, 23.33 1.28 M23.29 1.09 C27.79 1.92, 34.3 5.37, 37.03 8.66 C39.77 11.94, 39.89 16.51, 39.69 20.83 C39.49 25.14, 38.76 31.24, 35.81 34.53 C32.87 37.81, 26.59 40.28, 22.01 40.55 C17.43 40.82, 11.91 38.6, 8.34 36.14 C4.77 33.69, 1.68 29.75, 0.61 25.8 C-0.47 21.84, 0.23 16.16, 1.9 12.42 C3.57 8.67, 6.77 5.56, 10.62 3.33 C14.48 1.1, 22.75 -0.67, 25.04 -0.96 C27.32 -1.25, 24.41 0.89, 24.34 1.59" stroke="#228be6" stroke-width="4" fill="none"></path></g><g stroke-opacity="0.4" fill-opacity="0.4" stroke-linecap="round" transform="translate(326.5278378128278 659.3769769519827) rotate(89.99999999999994 17.509453801772906 18.6890351990628)"><path d="M20.33 0.26 C23.83 0.94, 28.33 3.93, 30.9 7.08 C33.46 10.24, 35.84 15.12, 35.7 19.2 C35.57 23.28, 32.52 28.53, 30.11 31.55 C27.7 34.56, 24.82 36.65, 21.24 37.3 C17.66 37.95, 12.11 37.64, 8.63 35.44 C5.16 33.24, 1.8 27.84, 0.4 24.09 C-0.99 20.33, -1.07 16.44, 0.26 12.93 C1.58 9.42, 4.66 4.95, 8.35 3.02 C12.04 1.09, 19.96 1.61, 22.38 1.34 C24.81 1.07, 22.89 1.33, 22.88 1.38 M15.69 1.52 C19.19 0.54, 22.57 0.83, 25.71 2.82 C28.86 4.81, 33.36 9.64, 34.55 13.44 C35.74 17.24, 34.44 22.23, 32.86 25.6 C31.27 28.98, 28.15 31.91, 25.03 33.7 C21.91 35.49, 17.53 36.91, 14.15 36.36 C10.77 35.81, 7.07 33.18, 4.76 30.4 C2.44 27.62, 0.21 23.84, 0.27 19.68 C0.34 15.53, 2.71 8.56, 5.13 5.47 C7.56 2.38, 13.1 1.79, 14.83 1.14 C16.56 0.5, 15.7 1.65, 15.49 1.61" stroke="#ffcd38" stroke-width="2" fill="none"></path></g><g stroke-linecap="round"><g stroke-opacity="0.4" fill-opacity="0.4" transform="translate(515.9427644463249 1070.341142460043) rotate(14.719674225217606 40.06405099861877 -4.707069830882119)"><path d="M0.05 -3.78 C22.04 -14.39, 46.99 -26.88, 82.88 -44.66 M0.3 0.29 C20.04 -13.53, 36.32 -25.07, 82.01 -46.73 M76.67 -46.35 C75.25 -18.74, 65.8 13.04, 64.57 39.65 M80.98 -43.65 C71.48 -13.43, 64.55 15.15, 62 34.94 M64.84 39 C58.82 19.92, 64.03 4.09, 63.45 -18.54 M64 35.39 C61.59 24.42, 61.42 14.55, 61.95 -15.95 M57.34 -13.25 C43.91 -15.84, 28.61 -9.66, 0.26 -0.18 M61.64 -14.44 C39.19 -9.59, 22.49 -3.87, 1.86 -1.39" stroke="#e03131" stroke-width="2" fill="none"></path></g></g><mask></mask><g stroke-linecap="round"><g stroke-opacity="0.4" fill-opacity="0.4" transform="translate(2138.090734700938 407.29636542457183) rotate(89.99999999999994 84.15322632766583 198.49775809384073)"><path d="M1.19 2.43 C29.01 68.68, 138.72 332.85, 166.14 398.27 M-1.61 1.28 C27.15 66.62, 142.57 328, 171.37 393.95" stroke="#bcdfc9" stroke-width="2" fill="none"></path></g><g stroke-opacity="0.4" fill-opacity="0.4" transform="translate(2138.090734700938 407.29636542457183) rotate(89.99999999999994 84.15322632766583 198.49775809384073)"><path d="M155.82 374.34 C159.76 378.91, 162.1 385.01, 170.35 394.69 M154.85 374.99 C159.16 381.24, 164.25 386.21, 170.67 393.09" stroke="#bcdfc9" stroke-width="2" fill="none"></path></g><g stroke-opacity="0.4" fill-opacity="0.4" transform="translate(2138.090734700938 407.29636542457183) rotate(89.99999999999994 84.15322632766583 198.49775809384073)"><path d="M171.48 367.46 C171.17 373.97, 169.25 381.95, 170.35 394.69 M170.51 368.11 C170.58 376.32, 171.42 383.15, 170.67 393.09" stroke="#bcdfc9" stroke-width="2" fill="none"></path></g></g><mask></mask><g stroke-opacity="0.4" fill-opacity="0.4" stroke-linecap="round" transform="translate(61.65633835897097 28.38908874568324) rotate(484.46571183618613 7.023627598242456 4.862511414167898)"><path d="M14.05 4.86 C14.05 5.14, 14.01 5.43, 13.94 5.71 C13.87 5.98, 13.76 6.26, 13.62 6.53 C13.48 6.79, 13.31 7.05, 13.11 7.29 C12.9 7.54, 12.67 7.77, 12.4 7.99 C12.14 8.2, 11.85 8.41, 11.54 8.59 C11.23 8.77, 10.89 8.93, 10.54 9.07 C10.18 9.21, 9.81 9.34, 9.43 9.43 C9.04 9.53, 8.64 9.6, 8.24 9.65 C7.84 9.7, 7.43 9.73, 7.02 9.73 C6.62 9.73, 6.2 9.7, 5.8 9.65 C5.4 9.6, 5 9.53, 4.62 9.43 C4.24 9.34, 3.86 9.21, 3.51 9.07 C3.16 8.93, 2.82 8.77, 2.51 8.59 C2.2 8.41, 1.9 8.2, 1.64 7.99 C1.38 7.77, 1.14 7.54, 0.94 7.29 C0.74 7.05, 0.56 6.79, 0.42 6.53 C0.28 6.26, 0.18 5.98, 0.11 5.71 C0.04 5.43, 0 5.14, 0 4.86 C0 4.58, 0.04 4.3, 0.11 4.02 C0.18 3.74, 0.28 3.46, 0.42 3.2 C0.56 2.93, 0.74 2.68, 0.94 2.43 C1.14 2.19, 1.38 1.95, 1.64 1.74 C1.9 1.52, 2.2 1.32, 2.51 1.14 C2.82 0.96, 3.16 0.79, 3.51 0.65 C3.86 0.51, 4.24 0.39, 4.62 0.29 C5 0.2, 5.4 0.12, 5.8 0.07 C6.2 0.02, 6.62 0, 7.02 0 C7.43 0, 7.84 0.02, 8.24 0.07 C8.64 0.12, 9.04 0.2, 9.43 0.29 C9.81 0.39, 10.18 0.51, 10.54 0.65 C10.89 0.79, 11.23 0.96, 11.54 1.14 C11.85 1.32, 12.14 1.52, 12.4 1.74 C12.67 1.95, 12.9 2.19, 13.11 2.43 C13.31 2.68, 13.48 2.93, 13.62 3.2 C13.76 3.46, 13.87 3.74, 13.94 4.02 C14.01 4.3, 14.03 4.72, 14.05 4.86 C14.07 5, 14.07 4.72, 14.05 4.86" stroke="none" stroke-width="0" fill="#c92a2a"></path><path d="M14.05 4.86 C14.05 5.14, 14.01 5.43, 13.94 5.71 C13.87 5.98, 13.76 6.26, 13.62 6.53 C13.48 6.79, 13.31 7.05, 13.11 7.29 C12.9 7.54, 12.67 7.77, 12.4 7.99 C12.14 8.2, 11.85 8.41, 11.54 8.59 C11.23 8.77, 10.89 8.93, 10.54 9.07 C10.18 9.21, 9.81 9.34, 9.43 9.43 C9.04 9.53, 8.64 9.6, 8.24 9.65 C7.84 9.7, 7.43 9.73, 7.02 9.73 C6.62 9.73, 6.2 9.7, 5.8 9.65 C5.4 9.6, 5 9.53, 4.62 9.43 C4.24 9.34, 3.86 9.21, 3.51 9.07 C3.16 8.93, 2.82 8.77, 2.51 8.59 C2.2 8.41, 1.9 8.2, 1.64 7.99 C1.38 7.77, 1.14 7.54, 0.94 7.29 C0.74 7.05, 0.56 6.79, 0.42 6.53 C0.28 6.26, 0.18 5.98, 0.11 5.71 C0.04 5.43, 0 5.14, 0 4.86 C0 4.58, 0.04 4.3, 0.11 4.02 C0.18 3.74, 0.28 3.46, 0.42 3.2 C0.56 2.93, 0.74 2.68, 0.94 2.43 C1.14 2.19, 1.38 1.95, 1.64 1.74 C1.9 1.52, 2.2 1.32, 2.51 1.14 C2.82 0.96, 3.16 0.79, 3.51 0.65 C3.86 0.51, 4.24 0.39, 4.62 0.29 C5 0.2, 5.4 0.12, 5.8 0.07 C6.2 0.02, 6.62 0, 7.02 0 C7.43 0, 7.84 0.02, 8.24 0.07 C8.64 0.12, 9.04 0.2, 9.43 0.29 C9.81 0.39, 10.18 0.51, 10.54 0.65 C10.89 0.79, 11.23 0.96, 11.54 1.14 C11.85 1.32, 12.14 1.52, 12.4 1.74 C12.67 1.95, 12.9 2.19, 13.11 2.43 C13.31 2.68, 13.48 2.93, 13.62 3.2 C13.76 3.46, 13.87 3.74, 13.94 4.02 C14.01 4.3, 14.03 4.72, 14.05 4.86 C14.07 5, 14.07 4.72, 14.05 4.86" stroke="#000000" stroke-width="2" fill="none"></path></g><g stroke-opacity="0.4" fill-opacity="0.4" stroke-linecap="round" transform="translate(46.19256525599485 15.72087249547144) rotate(213.5324045013143 10.88522626804479 9.554460893015744)"><path d="M21.77 9.55 C21.77 10.11, 21.71 10.67, 21.61 11.21 C21.5 11.76, 21.33 12.3, 21.11 12.82 C20.9 13.34, 20.63 13.85, 20.31 14.33 C20 14.81, 19.63 15.27, 19.22 15.7 C18.82 16.12, 18.36 16.52, 17.88 16.87 C17.4 17.23, 16.87 17.55, 16.33 17.83 C15.78 18.11, 15.2 18.34, 14.61 18.53 C14.02 18.72, 13.4 18.87, 12.78 18.96 C12.15 19.06, 11.52 19.11, 10.89 19.11 C10.26 19.11, 9.62 19.06, 9 18.96 C8.37 18.87, 7.75 18.72, 7.16 18.53 C6.57 18.34, 5.99 18.11, 5.44 17.83 C4.9 17.55, 4.37 17.23, 3.89 16.87 C3.41 16.52, 2.95 16.12, 2.55 15.7 C2.14 15.27, 1.77 14.81, 1.46 14.33 C1.14 13.85, 0.87 13.34, 0.66 12.82 C0.44 12.3, 0.27 11.76, 0.17 11.21 C0.06 10.67, 0 10.11, 0 9.55 C0 9, 0.06 8.44, 0.17 7.9 C0.27 7.35, 0.44 6.81, 0.66 6.29 C0.87 5.77, 1.14 5.26, 1.46 4.78 C1.77 4.3, 2.14 3.84, 2.55 3.41 C2.95 2.99, 3.41 2.59, 3.89 2.24 C4.37 1.88, 4.9 1.56, 5.44 1.28 C5.99 1, 6.57 0.77, 7.16 0.58 C7.75 0.39, 8.37 0.24, 9 0.15 C9.62 0.05, 10.26 0, 10.89 0 C11.52 0, 12.15 0.05, 12.78 0.15 C13.4 0.24, 14.02 0.39, 14.61 0.58 C15.2 0.77, 15.78 1, 16.33 1.28 C16.87 1.56, 17.4 1.88, 17.88 2.24 C18.36 2.59, 18.82 2.99, 19.22 3.41 C19.63 3.84, 20 4.3, 20.31 4.78 C20.63 5.26, 20.9 5.77, 21.11 6.29 C21.33 6.81, 21.5 7.35, 21.61 7.9 C21.71 8.44, 21.74 9.28, 21.77 9.55 C21.8 9.83, 21.8 9.28, 21.77 9.55" stroke="none" stroke-width="0" fill="#c92a2a"></path><path d="M21.77 9.55 C21.77 10.11, 21.71 10.67, 21.61 11.21 C21.5 11.76, 21.33 12.3, 21.11 12.82 C20.9 13.34, 20.63 13.85, 20.31 14.33 C20 14.81, 19.63 15.27, 19.22 15.7 C18.82 16.12, 18.36 16.52, 17.88 16.87 C17.4 17.23, 16.87 17.55, 16.33 17.83 C15.78 18.11, 15.2 18.34, 14.61 18.53 C14.02 18.72, 13.4 18.87, 12.78 18.96 C12.15 19.06, 11.52 19.11, 10.89 19.11 C10.26 19.11, 9.62 19.06, 9 18.96 C8.37 18.87, 7.75 18.72, 7.16 18.53 C6.57 18.34, 5.99 18.11, 5.44 17.83 C4.9 17.55, 4.37 17.23, 3.89 16.87 C3.41 16.52, 2.95 16.12, 2.55 15.7 C2.14 15.27, 1.77 14.81, 1.46 14.33 C1.14 13.85, 0.87 13.34, 0.66 12.82 C0.44 12.3, 0.27 11.76, 0.17 11.21 C0.06 10.67, 0 10.11, 0 9.55 C0 9, 0.06 8.44, 0.17 7.9 C0.27 7.35, 0.44 6.81, 0.66 6.29 C0.87 5.77, 1.14 5.26, 1.46 4.78 C1.77 4.3, 2.14 3.84, 2.55 3.41 C2.95 2.99, 3.41 2.59, 3.89 2.24 C4.37 1.88, 4.9 1.56, 5.44 1.28 C5.99 1, 6.57 0.77, 7.16 0.58 C7.75 0.39, 8.37 0.24, 9 0.15 C9.62 0.05, 10.26 0, 10.89 0 C11.52 0, 12.15 0.05, 12.78 0.15 C13.4 0.24, 14.02 0.39, 14.61 0.58 C15.2 0.77, 15.78 1, 16.33 1.28 C16.87 1.56, 17.4 1.88, 17.88 2.24 C18.36 2.59, 18.82 2.99, 19.22 3.41 C19.63 3.84, 20 4.3, 20.31 4.78 C20.63 5.26, 20.9 5.77, 21.11 6.29 C21.33 6.81, 21.5 7.35, 21.61 7.9 C21.71 8.44, 21.74 9.28, 21.77 9.55 C21.8 9.83, 21.8 9.28, 21.77 9.55" stroke="#000000" stroke-width="2" fill="none"></path></g><g stroke-linecap="round"><g stroke-opacity="0.4" fill-opacity="0.4" transform="translate(74.86056630487292 21.39476367184352) rotate(484.46571183618613 -3.9891820283519337 -2.3465776637367526)"><path d="M0 0 C-0.78 -0.78, -3.36 -4.51, -4.69 -4.69 C-6.02 -4.88, -7.43 -1.69, -7.98 -1.1 M0 0 C-0.78 -0.78, -3.36 -4.51, -4.69 -4.69 C-6.02 -4.88, -7.43 -1.69, -7.98 -1.1" stroke="#000000" stroke-width="2" fill="none"></path></g></g><mask></mask><g stroke-linecap="round"><g stroke-opacity="0.4" fill-opacity="0.4" transform="translate(69.70505467255498 16.812419280571476) rotate(484.46571183618613 -3.9891820283519337 -2.3465776637367526)"><path d="M0 0 C-0.78 -0.78, -3.36 -4.51, -4.69 -4.69 C-6.02 -4.88, -7.43 -1.69, -7.98 -1.1 M0 0 C-0.78 -0.78, -3.36 -4.51, -4.69 -4.69 C-6.02 -4.88, -7.43 -1.69, -7.98 -1.1" stroke="#000000" stroke-width="2" fill="none"></path></g></g><mask></mask><g stroke-linecap="round"><g stroke-opacity="0.4" fill-opacity="0.4" transform="translate(60.72921153984862 16.343763259057823) rotate(484.46571183618613 -3.9891820283519337 -2.3465776637367526)"><path d="M0 0 C-0.78 -0.78, -3.36 -4.51, -4.69 -4.69 C-6.02 -4.88, -7.43 -1.69, -7.98 -1.1 M0 0 C-0.78 -0.78, -3.36 -4.51, -4.69 -4.69 C-6.02 -4.88, -7.43 -1.69, -7.98 -1.1" stroke="#000000" stroke-width="2" fill="none"></path></g></g><mask></mask><g stroke-linecap="round"><g stroke-opacity="0.4" fill-opacity="0.4" transform="translate(52.21824740843658 41.247530289213955) rotate(484.46571183618613 3.441647240148086 -2.1901391528209615)" fill-rule="evenodd"><path d="M0 0 C0.7 -0.73, 3.08 -4.38, 4.22 -4.38 C5.37 -4.38, 6.44 -0.73, 6.88 0" stroke="none" stroke-width="0" fill="#ced4da" fill-rule="evenodd"></path><path d="M0 0 C0.7 -0.73, 3.08 -4.38, 4.22 -4.38 C5.37 -4.38, 6.44 -0.73, 6.88 0 M0 0 C0.7 -0.73, 3.08 -4.38, 4.22 -4.38 C5.37 -4.38, 6.44 -0.73, 6.88 0" stroke="#000000" stroke-width="2" fill="none"></path></g></g><mask></mask><g stroke-linecap="round"><g stroke-opacity="0.4" fill-opacity="0.4" transform="translate(46.37344692359329 38.09331401202735) rotate(484.46571183618613 3.441647240148086 -2.6594546855683348)" fill-rule="evenodd"><path d="M0 0 C0.52 -0.89, 1.98 -5.03, 3.13 -5.32 C4.28 -5.61, 6.26 -2.32, 6.88 -1.72" stroke="none" stroke-width="0" fill="#ced4da" fill-rule="evenodd"></path><path d="M0 0 C0.52 -0.89, 1.98 -5.03, 3.13 -5.32 C4.28 -5.61, 6.26 -2.32, 6.88 -1.72 M0 0 C0.52 -0.89, 1.98 -5.03, 3.13 -5.32 C4.28 -5.61, 6.26 -2.32, 6.88 -1.72" stroke="#000000" stroke-width="2" fill="none"></path></g></g><mask></mask><g stroke-linecap="round"><g stroke-opacity="0.4" fill-opacity="0.4" transform="translate(42.597810887869855 32.50343825161144) rotate(484.46571183618613 3.676305006520124 -1.8772621309893793)" fill-rule="evenodd"><path d="M0 0 C0.63 -0.63, 2.53 -3.6, 3.75 -3.75 C4.98 -3.91, 6.75 -1.41, 7.35 -0.94" stroke="none" stroke-width="0" fill="#ced4da" fill-rule="evenodd"></path><path d="M0 0 C0.63 -0.63, 2.53 -3.6, 3.75 -3.75 C4.98 -3.91, 6.75 -1.41, 7.35 -0.94 M0 0 C0.63 -0.63, 2.53 -3.6, 3.75 -3.75 C4.98 -3.91, 6.75 -1.41, 7.35 -0.94" stroke="#000000" stroke-width="2" fill="none"></path></g></g><mask></mask><g stroke-linecap="round"><g stroke-opacity="0.4" fill-opacity="0.4" transform="translate(80.02074174663721 34.04413651239793) rotate(484.46571183618613 -2.5030161746526574 -1.7990428755315406)" fill-rule="evenodd"><path d="M0 0 C-0.31 -0.6, -1.04 -3.42, -1.88 -3.6 C-2.71 -3.78, -4.48 -1.51, -5.01 -1.1" stroke="none" stroke-width="0" fill="#ced4da" fill-rule="evenodd"></path><path d="M0 0 C-0.31 -0.6, -1.04 -3.42, -1.88 -3.6 C-2.71 -3.78, -4.48 -1.51, -5.01 -1.1 M0 0 C-0.31 -0.6, -1.04 -3.42, -1.88 -3.6 C-2.71 -3.78, -4.48 -1.51, -5.01 -1.1" stroke="#000000" stroke-width="2" fill="none"></path></g></g><mask></mask><g stroke-linecap="round"><g stroke-opacity="0.4" fill-opacity="0.4" transform="translate(67.59169291107173 43.60635278204563) rotate(484.46571183618613 2.424796919194705 -1.7208236200735882)" fill-rule="evenodd"><path d="M0 0 C0.26 -0.57, 0.76 -2.92, 1.56 -3.44 C2.37 -3.96, 4.3 -3.18, 4.85 -3.13" stroke="none" stroke-width="0" fill="#ced4da" fill-rule="evenodd"></path><path d="M0 0 C0.26 -0.57, 0.76 -2.92, 1.56 -3.44 C2.37 -3.96, 4.3 -3.18, 4.85 -3.13 M0 0 C0.26 -0.57, 0.76 -2.92, 1.56 -3.44 C2.37 -3.96, 4.3 -3.18, 4.85 -3.13" stroke="#000000" stroke-width="2" fill="none"></path></g></g><mask></mask><g stroke-linecap="round"><g stroke-opacity="0.4" fill-opacity="0.4" transform="translate(2157.378427659023 745.4112900747245) rotate(167.3770934572012 83.91643874097463 123.50005453632889)"><path d="M-1.2 -0.67 C10.63 1.37, 66.13 -2.89, 72.91 11.44 C79.7 25.77, 31.94 69, 39.5 85.32 C47.07 101.64, 110.03 94.55, 118.29 109.35 C126.55 124.15, 80.51 162.85, 89.05 174.11 C97.6 185.38, 161.76 164.46, 169.56 176.94 C177.36 189.41, 141.29 237.25, 135.86 248.96 M3.34 -3.51 C14.54 -2.25, 64.31 -8.31, 70.16 6.98 C76 22.28, 30.33 71.96, 38.43 88.25 C46.52 104.55, 109.66 90.55, 118.74 104.78 C127.82 119.01, 85.16 162.01, 92.9 173.65 C100.64 185.29, 158.01 162.42, 165.19 174.62 C172.38 186.82, 139.79 234.87, 135.99 246.85" stroke="#e03131" stroke-width="1" fill="none"></path></g></g><mask></mask><g stroke-linecap="round"><g stroke-opacity="0.4" fill-opacity="0.4" transform="translate(887.8461719504339 1146.0938935653735) rotate(161.90573226447944 77.63761429813167 35.55774131690737)" fill-rule="evenodd"><path d="M-2.21 0.28 C20.26 9.55, 104.8 46.89, 130.87 58.66 C156.95 70.42, 175.8 80.18, 154.22 70.87 C132.65 61.56, 27.73 14.23, 1.41 2.79" stroke="none" stroke-width="0" fill="#ffffff" fill-rule="evenodd"></path><path d="M-0.95 1.02 C21.32 10.65, 106.43 44.96, 132.42 57.09 C158.42 69.22, 177.5 83.75, 155.02 73.81 C132.54 63.87, 23.11 9.7, -2.43 -2.56 M3.73 -0.89 C25.86 9.25, 106.02 48.77, 130.91 60.54 C155.81 72.31, 175.42 80.06, 153.07 69.75 C130.72 59.43, 22.47 10.07, -3.17 -1.34" stroke="#ffcd38" stroke-width="1" fill="none"></path></g></g><mask></mask></svg>