<svg version="1.1" xmlns="http://www.w3.org/2000/svg" viewBox="0 0 2068.8563851611634 7332.56344819092" width="4137.712770322327" height="14665.12689638184"><defs><style class="style-fonts">
      </style></defs><rect x="0" y="0" width="2068.8563851611634" height="7332.56344819092" fill="#ffffff"></rect><g stroke-opacity="0.4" fill-opacity="0.4" stroke-linecap="round" transform="translate(185.8878356786263 278.63946814758606) rotate(0 18.51027045173396 14.660125737127998)"><path d="M23.32 0.99 C27.32 1.38, 31.99 3.04, 34.23 5.36 C36.46 7.69, 37.12 11.76, 36.71 14.93 C36.31 18.1, 34.47 21.93, 31.8 24.39 C29.13 26.85, 24.72 29.16, 20.67 29.68 C16.62 30.19, 10.96 29.3, 7.53 27.49 C4.09 25.68, 1.2 22.07, 0.07 18.8 C-1.06 15.53, -0.92 10.84, 0.77 7.86 C2.46 4.88, 5.89 2.14, 10.2 0.94 C14.51 -0.26, 23.39 0.28, 26.62 0.64 C29.85 1.01, 29.62 2.79, 29.59 3.14 M23.2 0.41 C26.79 0.83, 31.64 2.54, 33.72 4.96 C35.79 7.39, 35.75 11.58, 35.64 14.96 C35.54 18.34, 35.6 22.92, 33.09 25.26 C30.59 27.6, 24.98 28.95, 20.6 28.99 C16.22 29.02, 10.37 27.02, 6.81 25.46 C3.26 23.91, -0.02 22.3, -0.74 19.66 C-1.46 17.01, 0.74 12.69, 2.49 9.57 C4.24 6.46, 6.5 2.72, 9.73 0.97 C12.96 -0.78, 19.65 -0.79, 21.87 -0.91 C24.1 -1.04, 22.91 -0.13, 23.08 0.23" stroke="#228be6" stroke-width="2" fill="none"></path></g><g stroke-linecap="round"><g stroke-opacity="0.4" fill-opacity="0.4" transform="translate(1718.8668235692658 761.9519299765657) rotate(0 25.19921817708655 37.20974190784294)"><path d="M-3.8 0.79 C12.77 7.15, 25.47 7.56, 35.19 14.26 M0.88 -1.33 C11.85 3.6, 21.36 8.34, 34.51 16.83 M37.57 17.36 C43.4 31.45, 45.4 47.9, 49.42 75.04 M34.46 16.21 C42.32 35.02, 45.06 51.21, 48.58 72.61 M52.69 72.71 C42.67 71.62, 34.15 74.82, 17.85 74.12 M52.2 75.24 C43.48 75.42, 33.94 74.47, 19.01 72.27 M21.19 69.92 C16.53 54.13, 9.4 30.59, 2.15 2.86 M19.64 75.09 C16.04 57.64, 9.14 39.4, -1.59 1.8" stroke="#bcdfc9" stroke-width="2" fill="none"></path></g></g><mask></mask><g stroke-opacity="0.4" fill-opacity="0.4" stroke-linecap="round" transform="translate(1628.312859016416 107.62313506572082) rotate(0 12.816641696763327 11.691883356486585)"><path d="M12.1 -0.03 C14.68 -0.25, 18.59 1.09, 20.84 2.56 C23.09 4.04, 24.97 6.33, 25.6 8.81 C26.22 11.28, 25.88 15.13, 24.6 17.41 C23.32 19.7, 20.48 21.55, 17.91 22.52 C15.34 23.48, 11.89 23.96, 9.18 23.19 C6.47 22.41, 3.14 20.03, 1.65 17.87 C0.17 15.71, -0.22 12.66, 0.29 10.24 C0.79 7.82, 2.47 5.1, 4.69 3.34 C6.91 1.59, 12.03 0.28, 13.62 -0.29 C15.21 -0.86, 14.25 -0.37, 14.25 -0.1 M12.73 0.31 C15.25 0.42, 19.41 2, 21.48 3.5 C23.55 5, 24.77 6.9, 25.13 9.3 C25.49 11.7, 25.06 15.75, 23.65 17.89 C22.23 20.04, 19.27 21.34, 16.65 22.17 C14.04 22.99, 10.36 23.74, 7.96 22.87 C5.55 22, 3.48 19.18, 2.21 16.95 C0.95 14.72, -0.16 11.85, 0.37 9.48 C0.9 7.11, 3.23 4.24, 5.41 2.73 C7.59 1.21, 12.07 0.9, 13.45 0.39 C14.84 -0.12, 13.76 -0.5, 13.73 -0.35" stroke="none" stroke-width="0" fill="#d0bfff"></path><path d="M14.47 -0.25 C17.01 -0.04, 20.44 1.7, 22.32 3.66 C24.19 5.61, 25.67 8.91, 25.72 11.51 C25.76 14.1, 24.34 17.28, 22.58 19.22 C20.82 21.17, 17.85 22.77, 15.15 23.17 C12.45 23.56, 8.77 22.81, 6.39 21.58 C4.01 20.35, 1.79 18.1, 0.85 15.79 C-0.09 13.48, -0.13 10.04, 0.76 7.71 C1.65 5.37, 3.71 3.05, 6.19 1.8 C8.68 0.55, 14.03 0.38, 15.67 0.22 C17.32 0.07, 16.2 0.68, 16.07 0.89 M12.1 -0.35 C14.8 -0.39, 19.41 1.28, 21.65 2.92 C23.88 4.56, 25.23 7.18, 25.5 9.49 C25.77 11.81, 24.75 14.55, 23.26 16.82 C21.76 19.09, 18.9 22.08, 16.51 23.13 C14.12 24.18, 11.44 24.09, 8.93 23.12 C6.41 22.15, 2.97 19.66, 1.42 17.31 C-0.13 14.96, -0.9 11.5, -0.36 9.03 C0.18 6.56, 2.43 4.08, 4.65 2.52 C6.87 0.96, 11.5 0.13, 12.96 -0.32 C14.42 -0.76, 13.33 -0.46, 13.41 -0.16" stroke="#7950f2" stroke-width="2" fill="none"></path></g><g stroke-opacity="0.4" fill-opacity="0.4" stroke-linecap="round" transform="translate(1954.4191409778723 694.1903235664338) rotate(123.50480009328837 8.959656884815558 8.95965688481593)"><path d="M6.03 0.05 C7.79 -0.46, 10.7 0.17, 12.39 1.05 C14.08 1.93, 15.37 3.69, 16.15 5.31 C16.93 6.93, 17.49 9.15, 17.09 10.78 C16.69 12.41, 15.17 13.99, 13.75 15.08 C12.34 16.18, 10.34 17.38, 8.6 17.36 C6.86 17.34, 4.67 16.12, 3.31 14.96 C1.95 13.79, 0.63 12.15, 0.44 10.38 C0.24 8.61, 0.73 5.96, 2.15 4.34 C3.57 2.72, 7.54 1.28, 8.94 0.65 C10.35 0.02, 10.67 0.47, 10.59 0.54 M7.1 0.99 C9.01 0.32, 10.74 -0.08, 12.11 0.27 C13.48 0.62, 14.62 1.22, 15.33 3.07 C16.03 4.93, 16.27 9.14, 16.33 11.4 C16.38 13.66, 16.99 15.65, 15.66 16.65 C14.33 17.65, 10.62 17.75, 8.37 17.4 C6.12 17.04, 3.49 15.73, 2.15 14.51 C0.81 13.29, 0.45 11.85, 0.35 10.08 C0.25 8.31, 0.42 5.61, 1.54 3.9 C2.67 2.18, 6.17 0.19, 7.12 -0.23 C8.07 -0.66, 7.27 0.86, 7.26 1.34" stroke="#000000" stroke-width="2" fill="none"></path></g><g stroke-opacity="0.4" fill-opacity="0.4" stroke-linecap="round" transform="translate(1921.8211351279824 672.6102465549636) rotate(123.50480009328837 8.959656884815558 8.95965688481593)"><path d="M5.99 1.02 C7.55 0.45, 9.59 0.59, 11.26 1.16 C12.93 1.74, 15.06 3.07, 16.01 4.46 C16.96 5.86, 17.21 7.76, 16.98 9.55 C16.76 11.34, 15.91 13.93, 14.64 15.2 C13.36 16.47, 11.16 17.06, 9.32 17.18 C7.48 17.3, 5 17.03, 3.61 15.94 C2.23 14.85, 1.33 12.43, 1 10.64 C0.68 8.85, 0.75 6.9, 1.64 5.21 C2.52 3.51, 5.35 1.27, 6.29 0.49 C7.24 -0.3, 7.35 0.53, 7.31 0.5 M7.01 0 C8.32 -0.84, 10.14 -1.47, 11.59 -0.42 C13.05 0.64, 14.57 4.2, 15.71 6.33 C16.85 8.46, 18.86 10.77, 18.45 12.37 C18.04 13.96, 15.19 15.22, 13.26 15.91 C11.33 16.6, 8.62 16.73, 6.85 16.52 C5.08 16.3, 3.74 15.91, 2.66 14.64 C1.59 13.36, 0.33 10.84, 0.39 8.87 C0.45 6.91, 1.73 4.17, 3.04 2.83 C4.34 1.5, 7.43 1.06, 8.22 0.86 C9.01 0.67, 8.02 1.5, 7.79 1.67" stroke="#000000" stroke-width="2" fill="none"></path></g><g stroke-opacity="0.4" fill-opacity="0.4" stroke-linecap="round" transform="translate(1888.6502529665486 650.6509219607362) rotate(123.50480009328837 8.959656884815558 8.95965688481593)"><path d="M6.38 0.87 C8 0.3, 10.79 0.46, 12.46 1.1 C14.14 1.73, 15.62 3.02, 16.43 4.69 C17.24 6.36, 17.74 9.27, 17.34 11.12 C16.93 12.97, 15.55 14.66, 14.01 15.79 C12.47 16.92, 9.9 18.02, 8.1 17.89 C6.29 17.76, 4.45 16.34, 3.19 15.02 C1.92 13.7, 0.75 11.86, 0.49 9.96 C0.23 8.07, 0.39 5.26, 1.62 3.64 C2.86 2.02, 6.82 0.95, 7.9 0.22 C8.98 -0.5, 8.14 -0.97, 8.09 -0.71 M8.87 -1.27 C10.43 -0.92, 12.52 2.12, 14.18 3.93 C15.83 5.73, 18.62 7.86, 18.81 9.54 C19.01 11.22, 16.88 12.84, 15.36 13.98 C13.84 15.12, 11.44 15.99, 9.7 16.39 C7.96 16.78, 6.38 17.15, 4.93 16.37 C3.48 15.58, 1.54 13.49, 1.01 11.65 C0.48 9.82, 0.96 6.98, 1.73 5.37 C2.49 3.75, 4.03 2.63, 5.59 1.96 C7.16 1.29, 10.38 1.49, 11.11 1.34 C11.84 1.19, 10.16 1.22, 9.98 1.05" stroke="#000000" stroke-width="2" fill="none"></path></g><g stroke-linecap="round"><g stroke-opacity="0.4" fill-opacity="0.4" transform="translate(66.92115588995694 562.6638237513366) rotate(0 82.8539797295607 152.63220343076136)"><path d="M-1.21 0.52 C-8.04 16.61, -51.77 77.74, -42.99 96.37 C-34.22 115, 39.49 99.46, 51.45 112.29 C63.41 125.11, 15.1 155.93, 28.76 173.31 C42.41 190.68, 117.51 197.2, 133.35 216.53 C149.2 235.86, 111.41 274.34, 123.83 289.28 C136.25 304.23, 193.49 303.13, 207.86 306.19 M3.33 -1.66 C-3.57 14.75, -52.45 79.65, -44.56 98.99 C-36.68 118.33, 38.31 101.78, 50.64 114.4 C62.98 127.01, 15.02 157.54, 29.45 174.67 C43.88 191.81, 121.06 198.45, 137.21 217.21 C153.35 235.97, 114.48 272.84, 126.32 287.22 C138.16 301.61, 194.69 300.04, 208.26 303.52" stroke="#228be6" stroke-width="4" fill="none"></path></g></g><mask></mask><g stroke-linecap="round"><g stroke-opacity="0.4" fill-opacity="0.4" transform="translate(394.3908564260091 1578.0752164874325) rotate(110.95152221476451 -6.921588691960096 17.684183916471284)"><path d="M1.84 -1.84 C-0.74 0.05, -11.77 4.72, -14.28 9.5 C-16.79 14.29, -15.45 22.42, -13.22 26.85 C-11 31.28, -2.88 34.52, -0.92 36.1 M-0.6 3.33 C-3.65 5.67, -15.23 7.49, -16.41 11.89 C-17.59 16.29, -10.24 25.18, -7.7 29.71 C-5.17 34.25, -2.9 37.76, -1.18 39.1" stroke="#ffcd38" stroke-width="4" fill="none"></path></g></g><mask></mask><g stroke-linecap="round"><g stroke-opacity="0.4" fill-opacity="0.4" transform="translate(269.3848773670816 1810.124295012948) rotate(299.17597873121616 38.071861782636006 112.01255167730403)"><path d="M-2.42 -0.45 C7.4 24.9, 46.39 112.26, 59.14 149.83 C71.89 187.4, 71.21 212.19, 74.07 224.95 M1.46 -3.16 C12.19 21.51, 51.64 108.03, 64.7 145.21 C77.75 182.39, 77.74 207.19, 79.78 219.93" stroke="#0056b3" stroke-width="1" fill="none"></path></g></g><mask></mask><g stroke-linecap="round"><g stroke-opacity="0.4" fill-opacity="0.4" transform="translate(1766.1948359239323 1940.5504221437732) rotate(154.94313601242942 114.05210108423853 175.1718293001312)"><path d="M-1.56 0.73 C-2.24 16.79, -23.48 80.26, -6.54 95.89 C10.41 111.53, 87.41 82.09, 100.12 94.52 C112.83 106.96, 58.83 163.49, 69.73 170.49 C80.62 177.48, 157.02 125.79, 165.5 136.5 C173.98 147.21, 109.35 225.73, 120.6 234.75 C131.86 243.78, 216.4 171.59, 233.03 190.63 C249.65 209.68, 221.66 322.27, 220.35 349.03 M2.79 -1.34 C3.2 13.88, -17.19 76.12, -1.26 91.39 C14.67 106.66, 86.46 77.99, 98.39 90.29 C110.32 102.59, 59.58 157.4, 70.34 165.19 C81.11 172.98, 154.03 125.87, 163 137.05 C171.97 148.23, 112.2 222.62, 124.17 232.28 C136.14 241.94, 217.95 175.81, 234.79 195.02 C251.63 214.22, 227.27 321.96, 225.22 347.51" stroke="#ffcd38" stroke-width="2" fill="none"></path></g></g><mask></mask><g stroke-linecap="round"><g stroke-opacity="0.4" fill-opacity="0.4" transform="translate(50.92119088263462 50.07214663933473) rotate(0 28.16668645388563 -13.426593727062993)"><path d="M-2.07 0.93 C5.01 -5.24, 31.16 -38.34, 40.9 -36.3 C50.65 -34.26, 53.53 5.28, 56.4 13.19 M2 -1.03 C8.86 -8.01, 29.97 -41.59, 38.75 -40.02 C47.52 -38.45, 51.14 -0.5, 54.63 8.4" stroke="#228be6" stroke-width="4" fill="none"></path></g></g><mask></mask><g stroke-linecap="round"><g stroke-opacity="0.4" fill-opacity="0.4" transform="translate(1897.2148342316304 1849.1406894687186) rotate(105.88829305234249 -12.50530979069481 27.46840634394539)"><path d="M0.15 2.38 C2.34 7.36, 12.14 22.15, 11.06 30.79 C9.97 39.44, 1.43 52.44, -6.34 54.25 C-14.11 56.07, -30.7 44.1, -35.57 41.68 M-3.21 1.21 C-1.2 5.26, 9.52 17.22, 8.85 26.52 C8.19 35.82, 0.09 54.03, -7.18 56.99 C-14.44 59.95, -29.48 47.17, -34.75 44.26" stroke="#0056b3" stroke-width="2" fill="none"></path></g></g><mask></mask><g stroke-opacity="0.4" fill-opacity="0.4" stroke-linecap="round" transform="translate(319.1740570604743 85.91437690554835) rotate(0 20.053651287733373 20.053651287732976)"><path d="M21.53 -0.43 C25.67 -0.34, 31.8 3.35, 35.01 6.48 C38.23 9.61, 40.78 14.13, 40.83 18.36 C40.88 22.58, 37.95 28.37, 35.29 31.85 C32.63 35.33, 29.03 38.25, 24.86 39.24 C20.69 40.23, 14.09 39.5, 10.29 37.78 C6.48 36.06, 3.7 32.8, 2.06 28.92 C0.41 25.04, -0.79 18.64, 0.39 14.5 C1.57 10.37, 4.94 6.33, 9.14 4.1 C13.34 1.87, 22.36 1.32, 25.61 1.13 C28.86 0.93, 28.89 2.63, 28.63 2.92 M21.87 0.17 C26.07 0.31, 30 2.91, 33.08 5.61 C36.15 8.32, 39.5 12.37, 40.31 16.38 C41.11 20.4, 40.33 25.8, 37.9 29.7 C35.46 33.59, 30.24 38.19, 25.71 39.78 C21.17 41.36, 14.59 40.89, 10.7 39.23 C6.81 37.56, 4.15 33.89, 2.35 29.78 C0.56 25.67, -1.2 18.7, -0.07 14.58 C1.06 10.46, 5.78 7.26, 9.12 5.07 C12.45 2.88, 18.03 2.28, 19.95 1.46 C21.88 0.64, 20.65 0.27, 20.66 0.16" stroke="none" stroke-width="0" fill="#ffcd38"></path><path d="M20.89 -0.83 C24.9 -0.66, 30.38 3.39, 33.62 6.56 C36.85 9.73, 39.83 14.21, 40.3 18.19 C40.77 22.18, 39.06 27.11, 36.43 30.48 C33.8 33.84, 28.54 36.99, 24.54 38.39 C20.53 39.8, 16.06 40.6, 12.39 38.91 C8.72 37.23, 4.56 32.38, 2.54 28.29 C0.52 24.19, -0.54 18.4, 0.28 14.33 C1.11 10.27, 3.53 6.15, 7.49 3.88 C11.44 1.61, 20.87 0.95, 24.03 0.71 C27.19 0.48, 26.57 2.04, 26.47 2.48 M23.91 1.21 C27.79 1.47, 33.02 3.67, 35.7 7 C38.38 10.34, 40.03 16.68, 39.97 21.21 C39.91 25.74, 38.4 30.84, 35.36 34.18 C32.32 37.51, 25.89 40.6, 21.72 41.21 C17.55 41.82, 13.78 40.17, 10.33 37.83 C6.88 35.48, 2.32 31.5, 1.01 27.13 C-0.29 22.77, 0.94 15.68, 2.5 11.64 C4.07 7.6, 6.72 4.52, 10.39 2.9 C14.06 1.27, 22.07 2.05, 24.51 1.9 C26.94 1.75, 25.25 1.85, 24.98 2" stroke="#ffcd38" stroke-width="4" fill="none"></path></g><g stroke-linecap="round"><g stroke-opacity="0.4" fill-opacity="0.4" transform="translate(1865.8818685415881 1621.6054616616202) rotate(0 30.80056281623729 -23.93022166773602)"><path d="M0.43 -0.04 C1.61 -8.23, 0.32 -41.73, 8.83 -49.85 C17.35 -57.97, 42.35 -57.03, 51.54 -48.76 C60.72 -40.5, 67.51 -7.49, 63.94 -0.27 C60.36 6.96, 37.26 -0.52, 30.09 -5.41 C22.91 -10.3, 18.02 -27.63, 20.9 -29.63 C23.77 -31.63, 42.18 -19.42, 47.32 -17.4 M-2.78 -2.53 C-2.1 -10.36, -3.12 -39.99, 6.84 -47.3 C16.81 -54.61, 47.2 -54.71, 57.02 -46.37 C66.84 -38.02, 70.83 -4.16, 65.79 2.78 C60.74 9.71, 33.91 -0.14, 26.75 -4.74 C19.59 -9.34, 19.41 -22.34, 22.85 -24.82 C26.28 -27.3, 42.79 -20.85, 47.35 -19.63" stroke="#ffcd38" stroke-width="4" fill="none"></path></g></g><mask></mask><g stroke-opacity="0.4" fill-opacity="0.4" stroke-linecap="round" transform="translate(49.20606008442519 981.3636439456214) rotate(0 12.816641696763327 11.691883356486585)"><path d="M9.92 0.07 C12.47 -0.64, 16.26 0.13, 18.63 1.36 C21 2.59, 23.15 5.16, 24.15 7.43 C25.15 9.71, 25.32 12.76, 24.63 15.02 C23.95 17.28, 22.2 19.6, 20.02 20.99 C17.84 22.39, 14.28 23.62, 11.57 23.37 C8.85 23.13, 5.7 21.28, 3.72 19.5 C1.75 17.72, -0.13 15.24, -0.26 12.71 C-0.4 10.17, 1.05 6.39, 2.91 4.28 C4.77 2.17, 9.57 0.74, 10.91 0.03 C12.25 -0.68, 11.06 -0.24, 10.95 0.01 M16.05 1.06 C18.61 1.37, 21.02 2.44, 22.62 4.23 C24.22 6.01, 25.65 9.26, 25.66 11.77 C25.67 14.29, 24.47 17.39, 22.67 19.31 C20.88 21.24, 17.65 22.88, 14.88 23.32 C12.12 23.76, 8.59 23.45, 6.08 21.95 C3.56 20.44, 0.54 16.83, -0.21 14.28 C-0.95 11.73, 0.25 8.92, 1.59 6.65 C2.93 4.38, 5.44 1.81, 7.84 0.65 C10.23 -0.51, 14.62 -0.27, 15.97 -0.32 C17.31 -0.36, 16.02 0.02, 15.9 0.39" stroke="none" stroke-width="0" fill="#d0bfff"></path><path d="M14.93 0.09 C17.43 0.29, 20.36 1.98, 22.18 3.88 C23.99 5.77, 25.65 9.02, 25.81 11.47 C25.97 13.91, 24.79 16.55, 23.13 18.54 C21.46 20.53, 18.54 22.85, 15.85 23.42 C13.15 24, 9.42 23.16, 6.98 21.99 C4.53 20.81, 2.28 18.71, 1.17 16.37 C0.07 14.03, -0.52 10.37, 0.33 7.96 C1.17 5.54, 3.65 3.09, 6.26 1.86 C8.87 0.63, 14.26 0.81, 15.98 0.56 C17.71 0.31, 16.73 0.3, 16.62 0.37 M16.36 -0.3 C18.84 0.12, 21.04 2.75, 22.61 4.94 C24.19 7.13, 25.92 10.51, 25.79 12.85 C25.66 15.19, 23.76 17.23, 21.85 18.99 C19.94 20.74, 17.01 23.07, 14.31 23.39 C11.6 23.71, 7.94 22.23, 5.62 20.9 C3.31 19.57, 1.06 17.78, 0.4 15.43 C-0.26 13.08, 0.55 9.16, 1.66 6.82 C2.78 4.48, 4.65 2.46, 7.09 1.4 C9.52 0.34, 14.78 0.56, 16.25 0.48 C17.72 0.39, 15.97 0.85, 15.92 0.91" stroke="#7950f2" stroke-width="2" fill="none"></path></g><g stroke-linecap="round"><g stroke-opacity="0.4" fill-opacity="0.4" transform="translate(57.896464735002155 551.1092220381208) rotate(0 82.8539797295607 152.63220343076136)"><path d="M-0.44 1.47 C-8.12 17.25, -52.72 78.09, -44.42 97.03 C-36.12 115.98, 37.1 101.8, 49.37 115.13 C61.64 128.46, 15.18 159.64, 29.2 177.02 C43.23 194.4, 117.24 200.61, 133.53 219.42 C149.82 238.24, 114.22 275.35, 126.95 289.91 C139.69 304.47, 195.78 304.51, 209.95 306.77 M-4.13 -0.21 C-12.34 17.18, -55.36 81.62, -46.77 100.01 C-38.17 118.41, 34.62 98.19, 47.44 110.15 C60.25 122.1, 15.13 154.61, 30.14 171.76 C45.14 188.91, 122.09 193.62, 137.48 213.03 C152.87 232.43, 110.16 272.96, 122.49 288.19 C134.83 303.42, 196.79 302.16, 211.47 304.41" stroke="#0056b3" stroke-width="4" fill="none"></path></g></g><mask></mask><g stroke-opacity="0.4" fill-opacity="0.4" stroke-linecap="round" transform="translate(1680.3997118499065 1370.9364974995788) rotate(0 12.816641696763327 11.691883356486585)"><path d="M15.29 -0.28 C18 0.02, 21.17 2.33, 22.94 4.3 C24.7 6.28, 25.98 9.01, 25.87 11.56 C25.77 14.11, 24.06 17.74, 22.3 19.61 C20.54 21.48, 17.91 22.47, 15.33 22.8 C12.75 23.13, 9.26 22.86, 6.82 21.61 C4.37 20.35, 1.73 17.58, 0.65 15.28 C-0.42 12.98, -0.66 10.13, 0.39 7.78 C1.44 5.43, 4.45 2.44, 6.96 1.2 C9.48 -0.04, 13.97 0.51, 15.48 0.33 C17 0.15, 16.17 -0.04, 16.05 0.14 M10.48 0.34 C12.94 -0.2, 16.67 0.76, 18.9 1.76 C21.13 2.76, 22.72 4.19, 23.84 6.34 C24.96 8.49, 26.15 12.24, 25.61 14.66 C25.07 17.08, 22.95 19.54, 20.59 20.87 C18.24 22.21, 14.32 22.87, 11.49 22.65 C8.66 22.44, 5.59 21.23, 3.62 19.6 C1.65 17.96, -0.2 15.39, -0.31 12.85 C-0.42 10.3, 1.21 6.41, 2.95 4.33 C4.69 2.25, 9.01 1.03, 10.12 0.35 C11.23 -0.33, 9.61 0.08, 9.6 0.25" stroke="none" stroke-width="0" fill="#d0bfff"></path><path d="M13.99 0.3 C16.61 0.35, 19.88 1.46, 21.85 3.19 C23.82 4.92, 25.59 8.21, 25.81 10.69 C26.04 13.17, 24.73 16, 23.2 18.05 C21.68 20.11, 19.16 22.23, 16.67 23.01 C14.17 23.79, 10.72 23.79, 8.24 22.73 C5.75 21.67, 3.05 19, 1.76 16.65 C0.47 14.29, -0.16 10.97, 0.48 8.6 C1.12 6.23, 3.32 3.78, 5.61 2.43 C7.9 1.08, 12.75 0.91, 14.19 0.52 C15.64 0.13, 14.28 -0.06, 14.29 0.08 M15.14 0.31 C17.75 0.62, 20.81 1.73, 22.53 3.71 C24.25 5.68, 25.36 9.62, 25.46 12.17 C25.57 14.72, 24.91 17.16, 23.16 19.02 C21.41 20.88, 17.68 22.87, 14.96 23.35 C12.23 23.83, 9.14 23.15, 6.81 21.91 C4.49 20.67, 1.91 18.4, 1.01 15.91 C0.12 13.41, 0.48 9.32, 1.43 6.93 C2.39 4.54, 4.55 2.75, 6.74 1.56 C8.92 0.38, 13.08 0.01, 14.55 -0.17 C16.01 -0.34, 15.5 0.24, 15.52 0.51" stroke="#7950f2" stroke-width="2" fill="none"></path></g><g stroke-linecap="round"><g stroke-opacity="0.4" fill-opacity="0.4" transform="translate(1893.1556365873712 1129.2631451517063) rotate(302.6394484402506 40.06405099861877 -4.763956105192676)"><path d="M1.93 0.02 C18.96 -8.13, 31.84 -21.57, 81.49 -44.97 M-1.18 0.53 C29.77 -17.76, 63.74 -37.65, 81.96 -47.52 M83.17 -47.84 C73.02 -26.3, 72.79 -6.95, 59.38 35.51 M80.43 -45.62 C77.17 -17.65, 70.51 10.85, 64.22 34.83 M60.61 38.15 C62.37 17.65, 61.87 3.72, 57.43 -13.02 M60.75 37.41 C62.66 26.46, 61.21 13.44, 62.38 -14.45 M60.25 -18.66 C44.81 -11.67, 38.82 -12.11, 0.88 0.76 M61.13 -17.83 C38.28 -11.87, 14.37 -4.26, 1.11 1.48" stroke="#e03131" stroke-width="2" fill="none"></path></g></g><mask></mask><g stroke-linecap="round"><g stroke-opacity="0.4" fill-opacity="0.4" transform="translate(170.84806704365292 1201.8546426154487) rotate(0 -59.0466510006072 254.92974145657706)"><path d="M0.42 0.43 C-19.31 46.6, -106.38 190.65, -115.94 275.79 C-125.49 360.94, -66.93 472.66, -56.92 511.31 M-2.79 -1.81 C-22.92 43.57, -107.79 186.42, -117.01 271.15 C-126.22 355.88, -68.6 466.91, -58.11 506.56" stroke="#bcdfc9" stroke-width="2" fill="none"></path></g><g stroke-opacity="0.4" fill-opacity="0.4" transform="translate(170.84806704365292 1201.8546426154487) rotate(0 -59.0466510006072 254.92974145657706)"><path d="M-73.89 488.96 C-67.56 495.63, -60.78 503.8, -59.68 506.97 M-73.76 487.52 C-69.85 493.57, -64.13 498.54, -57.39 505.65" stroke="#bcdfc9" stroke-width="2" fill="none"></path></g><g stroke-opacity="0.4" fill-opacity="0.4" transform="translate(170.84806704365292 1201.8546426154487) rotate(0 -59.0466510006072 254.92974145657706)"><path d="M-57.82 483.1 C-57.74 492.06, -57.19 502.5, -59.68 506.97 M-57.69 481.65 C-58.84 489.45, -58.12 496.25, -57.39 505.65" stroke="#bcdfc9" stroke-width="2" fill="none"></path></g></g><mask></mask><g stroke-linecap="round"><g stroke-opacity="0.4" fill-opacity="0.4" transform="translate(1814.2000760506435 257.5786602411905) rotate(91.37688570420873 83.91643874097463 123.50005453632883)"><path d="M0.4 1.34 C12.96 2.58, 66.11 -5.58, 72.72 8.82 C79.34 23.21, 32.86 70.95, 40.1 87.7 C47.35 104.45, 107.8 94.57, 116.2 109.32 C124.6 124.06, 82.23 165.31, 90.51 176.15 C98.8 187, 157.79 162.11, 165.91 174.37 C174.03 186.64, 144.15 237.52, 139.26 249.72 M-2.83 -0.39 C9.5 1.05, 62.84 -2.37, 69.87 11.58 C76.9 25.52, 31.75 67.75, 39.35 83.28 C46.96 98.8, 106.21 89.14, 115.51 104.73 C124.81 120.31, 86.37 164.37, 95.15 176.8 C103.93 189.22, 160.52 167.43, 168.2 179.3 C175.88 191.18, 145.65 236.72, 141.24 248.03" stroke="#e03131" stroke-width="1" fill="none"></path></g></g><mask></mask><g stroke-linecap="round"><g stroke-opacity="0.4" fill-opacity="0.4" transform="translate(1875.3976817310067 3036.0850093242716) rotate(268.4372131333644 20.555565798942553 39.83058731273104)"><path d="M-1.1 -0.45 C-4.09 4.75, -28.35 16.4, -18.56 30.16 C-8.78 43.92, 44.83 73.73, 57.59 82.09 M3.5 -3.17 C1.41 2.36, -22.21 18.79, -13.47 32.3 C-4.72 45.8, 43.89 69.38, 55.95 77.89" stroke="#0056b3" stroke-width="1" fill="none"></path></g></g><mask></mask><g stroke-opacity="0.4" fill-opacity="0.4" stroke-linecap="round" transform="translate(26.525788986939006 2975.087227354684) rotate(0 18.51027045173396 14.660125737128055)"><path d="M11.66 1.55 C15.01 0.19, 20.52 -0.04, 24.28 0.84 C28.04 1.72, 32 3.99, 34.2 6.84 C36.4 9.69, 38.25 14.72, 37.47 17.95 C36.69 21.17, 32.49 24.35, 29.52 26.18 C26.54 28.02, 23.45 29.07, 19.6 28.93 C15.75 28.79, 9.77 27.39, 6.42 25.34 C3.06 23.29, -0.03 19.53, -0.53 16.62 C-1.03 13.7, 0.89 10.43, 3.43 7.85 C5.97 5.26, 12.56 2.44, 14.7 1.11 C16.85 -0.22, 16.29 -0.12, 16.28 -0.15 M10.05 2.08 C13.49 0.94, 19.26 0.43, 23.29 0.91 C27.32 1.39, 31.97 2.68, 34.22 4.98 C36.48 7.28, 37.01 11.15, 36.84 14.69 C36.67 18.23, 36.02 23.57, 33.2 26.23 C30.38 28.88, 24.22 30.62, 19.93 30.62 C15.64 30.61, 10.73 28.05, 7.43 26.2 C4.14 24.35, 1.03 22.51, 0.16 19.52 C-0.71 16.53, 0.49 11.44, 2.22 8.24 C3.95 5.05, 9.09 1.28, 10.56 0.34 C12.03 -0.6, 10.79 2.09, 11.04 2.59" stroke="#228be6" stroke-width="2" fill="none"></path></g><g stroke-linecap="round"><g stroke-opacity="0.4" fill-opacity="0.4" transform="translate(1835.764514035298 3419.8438972333706) rotate(122.66678704660505 52.06140415383652 95.9066402801202)"><path d="M2.28 -2.7 C-2 7.71, -31.47 52.23, -26.83 64.5 C-22.2 76.78, 22.9 63.71, 30.09 70.96 C37.27 78.21, 7.36 96.66, 16.26 108.02 C25.16 119.38, 72.83 126.64, 83.46 139.13 C94.1 151.62, 71.66 174.17, 80.06 182.97 C88.46 191.77, 125.46 190.42, 133.84 191.93 M0.07 2 C-4.38 11.53, -33.15 49.06, -28.55 61 C-23.95 72.95, 20.27 65.6, 27.69 73.66 C35.1 81.73, 5.94 99.5, 15.93 109.37 C25.92 119.25, 77.71 120.92, 87.62 132.92 C97.54 144.93, 68.75 172.1, 75.44 181.41 C82.13 190.73, 117.72 187.15, 127.77 188.82" stroke="#228be6" stroke-width="4" fill="none"></path></g></g><mask></mask><g stroke-linecap="round"><g stroke-opacity="0.4" fill-opacity="0.4" transform="translate(1895.6664336410358 2751.109631956795) rotate(43.098421135092465 -6.921588691960096 17.684183916471284)"><path d="M0.96 2.78 C-2.02 5.07, -13.33 7.34, -15.57 11.04 C-17.81 14.74, -14.88 20.46, -12.49 24.98 C-10.09 29.5, -3.61 36.15, -1.21 38.16 M-1.97 1.82 C-5.62 4.77, -17.63 10.09, -18.4 14.26 C-19.16 18.43, -9.36 23.61, -6.57 26.84 C-3.77 30.07, -2.58 31.63, -1.63 33.64" stroke="#ffcd38" stroke-width="4" fill="none"></path></g></g><mask></mask><g stroke-linecap="round"><g stroke-opacity="0.4" fill-opacity="0.4" transform="translate(1678.1817384975566 3890.4333737502157) rotate(299.17597873121616 100.42170609902041 110.55203782259537)"><path d="M-1.09 -0.75 C15.99 19.61, 70.05 87.52, 103.39 124.96 C136.74 162.4, 182.54 207.59, 198.99 223.89 M3.52 -3.63 C21.42 18.2, 75.33 90.09, 108.88 127.34 C142.43 164.59, 189.07 204.83, 204.82 219.88" stroke="#0056b3" stroke-width="1" fill="none"></path></g></g><mask></mask><g stroke-linecap="round"><g stroke-opacity="0.4" fill-opacity="0.4" transform="translate(89.65295027134744 2478.0006266990504) rotate(0 28.16668645388563 -13.42659372706305)"><path d="M-1.85 2.79 C5.43 -3, 32 -38.55, 42.02 -37.03 C52.04 -35.5, 56.14 3.76, 58.27 11.95 M2.34 1.83 C9.52 -4.55, 31.28 -43.36, 40.48 -41.14 C49.67 -38.93, 55.17 5.79, 57.51 15.12" stroke="#228be6" stroke-width="4" fill="none"></path></g></g><mask></mask><g stroke-linecap="round"><g stroke-opacity="0.4" fill-opacity="0.4" transform="translate(1946.4591662058046 4539.040535387328) rotate(105.88829305234249 -12.50530979069481 27.46840634394539)"><path d="M1.27 1.65 C3.73 6.11, 14.74 20.63, 12.92 29.55 C11.09 38.47, -1.1 53.58, -9.68 55.19 C-18.25 56.8, -33.93 41.9, -38.53 39.2 M-1.48 0.08 C0.95 6.22, 13.54 23.52, 11.73 33.24 C9.92 42.97, -3.82 57.24, -12.33 58.44 C-20.84 59.64, -35.91 43.77, -39.32 40.44" stroke="#0056b3" stroke-width="2" fill="none"></path></g></g><mask></mask><g stroke-linecap="round"><g stroke-opacity="0.4" fill-opacity="0.4" transform="translate(1892.1957981958349 2327.9207184318657) rotate(334.4424098388608 -57.21499372551534 119.82127960947798)"><path d="M1.93 0.12 C2.4 23.12, 24.83 100.18, 4.08 139.69 C-16.68 179.19, -101.69 220.92, -122.6 237.13 M-0.46 -2.29 C0.82 21.07, 29.08 103.26, 9.64 143.45 C-9.81 183.64, -95.29 223.1, -117.14 238.87" stroke="#228be6" stroke-width="4" fill="none"></path></g><g stroke-opacity="0.4" fill-opacity="0.4" transform="translate(1892.1957981958349 2327.9207184318657) rotate(334.4424098388608 -57.21499372551534 119.82127960947798)"><path d="M-101.3 218.35 C-106.53 224.47, -113.95 232.06, -119.07 238.31 M-100.92 218.72 C-106.82 225.44, -111.18 233.67, -117.43 239.78" stroke="#228be6" stroke-width="4" fill="none"></path></g><g stroke-opacity="0.4" fill-opacity="0.4" transform="translate(1892.1957981958349 2327.9207184318657) rotate(334.4424098388608 -57.21499372551534 119.82127960947798)"><path d="M-92.51 233.02 C-100.87 234.13, -111.32 236.66, -119.07 238.31 M-92.13 233.39 C-101.06 235.13, -108.42 238.34, -117.43 239.78" stroke="#228be6" stroke-width="4" fill="none"></path></g></g><mask></mask><g stroke-opacity="0.4" fill-opacity="0.4" stroke-linecap="round" transform="translate(88.56465160241714 2639.7434434656284) rotate(0 20.053651287733373 20.053651287733032)"><path d="M21.08 -0.77 C25.42 -0.81, 31.1 2.05, 34.13 5.04 C37.17 8.04, 38.76 12.89, 39.3 17.22 C39.84 21.54, 39.58 27.36, 37.39 30.99 C35.19 34.62, 30.27 37.7, 26.14 38.98 C22.01 40.26, 16.5 40.19, 12.61 38.65 C8.73 37.11, 4.98 33.39, 2.82 29.73 C0.66 26.08, -0.98 20.94, -0.33 16.7 C0.32 12.46, 2.97 7.21, 6.71 4.29 C10.44 1.37, 19.41 -0.14, 22.09 -0.81 C24.78 -1.47, 22.71 -0.11, 22.8 0.27 M24.97 0.62 C29.4 1.3, 35.07 4.27, 37.82 7.64 C40.57 11.01, 42.32 16.35, 41.47 20.83 C40.62 25.31, 36.27 31.45, 32.72 34.53 C29.16 37.6, 24.41 39.2, 20.14 39.27 C15.87 39.34, 10.15 37.16, 7.09 34.93 C4.04 32.71, 2.69 29.61, 1.78 25.92 C0.87 22.23, 0.19 16.82, 1.63 12.78 C3.08 8.73, 6.39 3.82, 10.45 1.67 C14.5 -0.49, 23.44 0.15, 25.98 -0.16 C28.51 -0.47, 25.83 -0.64, 25.68 -0.19" stroke="none" stroke-width="0" fill="#ffcd38"></path><path d="M10.33 1.74 C14.11 -0.18, 20.97 -0.42, 25.35 0.75 C29.73 1.92, 34.28 5.31, 36.6 8.75 C38.93 12.19, 39.79 17.03, 39.31 21.4 C38.84 25.77, 36.47 31.91, 33.75 34.96 C31.04 38.01, 27.01 39.5, 23.01 39.71 C19.01 39.92, 13.5 38.64, 9.73 36.22 C5.96 33.8, 1.62 29.19, 0.38 25.2 C-0.85 21.2, 0.2 16.26, 2.33 12.26 C4.47 8.26, 11.08 3.03, 13.2 1.18 C15.32 -0.68, 14.82 0.74, 15.07 1.14 M25.14 1.74 C29.31 2.58, 33.39 5.39, 35.93 8.59 C38.46 11.78, 40.31 16.57, 40.36 20.89 C40.4 25.22, 39.14 31.43, 36.2 34.53 C33.27 37.63, 26.94 39.22, 22.74 39.48 C18.54 39.74, 14.63 38.09, 10.99 36.09 C7.35 34.1, 2.45 31.6, 0.88 27.51 C-0.68 23.42, 0.17 15.74, 1.61 11.54 C3.05 7.35, 6.05 3.96, 9.52 2.32 C13 0.69, 19.94 2.21, 22.46 1.74 C24.99 1.26, 24.64 -0.43, 24.67 -0.53" stroke="#ffcd38" stroke-width="4" fill="none"></path></g><g stroke-linecap="round"><g stroke-opacity="0.4" fill-opacity="0.4" transform="translate(1945.087464415501 3787.522381244731) rotate(0 31.11172028764304 -23.930221667736078)"><path d="M-2.53 -2.52 C-1.08 -10.99, -2.21 -43.27, 7.18 -50.56 C16.56 -57.85, 44.54 -54.66, 53.79 -46.27 C63.03 -37.88, 66.37 -6.75, 62.65 -0.21 C58.92 6.33, 37.96 -2.21, 31.42 -7.02 C24.89 -11.83, 19.81 -27.46, 23.45 -29.06 C27.08 -30.67, 48.84 -18.73, 53.22 -16.66 M1.29 2.29 C2.39 -5.96, -4.14 -39.49, 4.24 -48.4 C12.62 -57.3, 41.68 -59.71, 51.55 -51.16 C61.42 -42.62, 67.27 -4.46, 63.46 2.86 C59.64 10.18, 34.79 -2.76, 28.65 -7.23 C22.52 -11.7, 23.5 -22.07, 26.65 -23.95 C29.8 -25.82, 44.18 -19.8, 47.55 -18.48" stroke="#ffcd38" stroke-width="4" fill="none"></path></g></g><mask></mask><g stroke-opacity="0.4" fill-opacity="0.4" stroke-linecap="round" transform="translate(106.15777703668755 3379.8931620025032) rotate(0 12.816641696763327 11.691883356486642)"><path d="M13.14 0.27 C15.77 0.14, 19.01 1.25, 21.05 2.84 C23.09 4.44, 24.9 7.34, 25.39 9.82 C25.87 12.31, 25.43 15.54, 23.97 17.74 C22.51 19.94, 19.31 22.22, 16.62 23.02 C13.93 23.82, 10.31 23.56, 7.82 22.54 C5.32 21.52, 2.97 19.12, 1.66 16.9 C0.34 14.69, -0.65 11.67, -0.07 9.24 C0.52 6.81, 2.86 3.93, 5.17 2.31 C7.49 0.69, 12.36 -0.1, 13.83 -0.47 C15.31 -0.84, 14.1 -0.25, 14.04 0.09 M9.67 0.26 C11.97 -0.31, 15.9 -0.04, 18.31 1.05 C20.73 2.13, 22.96 4.29, 24.17 6.78 C25.37 9.26, 26.36 13.34, 25.54 15.95 C24.73 18.56, 21.84 21.22, 19.27 22.43 C16.71 23.64, 12.8 23.79, 10.15 23.21 C7.51 22.63, 5.06 20.92, 3.39 18.93 C1.72 16.95, 0.21 13.72, 0.12 11.28 C0.03 8.84, 1.1 6.21, 2.87 4.3 C4.65 2.38, 9.64 0.53, 10.77 -0.21 C11.91 -0.95, 9.71 -0.48, 9.7 -0.13" stroke="none" stroke-width="0" fill="#d0bfff"></path><path d="M12.93 -0.03 C15.46 -0.05, 18.9 1.84, 21.07 3.5 C23.24 5.17, 25.45 7.59, 25.96 9.95 C26.47 12.32, 25.69 15.58, 24.12 17.7 C22.56 19.81, 19.19 21.81, 16.55 22.64 C13.91 23.48, 10.81 23.63, 8.28 22.72 C5.74 21.81, 2.75 19.41, 1.35 17.18 C-0.04 14.96, -0.73 11.78, -0.08 9.37 C0.56 6.96, 2.89 4.3, 5.24 2.73 C7.6 1.16, 12.56 0.26, 14.04 -0.07 C15.52 -0.4, 14.09 0.54, 14.11 0.77 M15.87 0.93 C18.4 1.18, 20.87 2.5, 22.6 4.25 C24.32 6, 26.28 8.82, 26.23 11.42 C26.17 14.03, 24.18 18.02, 22.28 19.88 C20.39 21.73, 17.6 22.28, 14.84 22.56 C12.08 22.83, 8.21 22.62, 5.73 21.53 C3.26 20.45, 0.71 18.54, -0.01 16.07 C-0.74 13.61, 0.31 9.29, 1.37 6.75 C2.43 4.21, 4.07 1.95, 6.34 0.81 C8.6 -0.33, 13.45 0.03, 14.96 -0.11 C16.47 -0.24, 15.43 -0.33, 15.38 -0.01" stroke="#7950f2" stroke-width="2" fill="none"></path></g><g stroke-linecap="round"><g stroke-opacity="0.4" fill-opacity="0.4" transform="translate(1845.401283789046 3418.882863783062) rotate(122.66678704660505 52.06140415383652 95.9066402801202)"><path d="M1.29 -2.08 C-3.45 7.73, -33.45 47.04, -28.03 59.75 C-22.6 72.47, 26.31 65.35, 33.84 74.21 C41.36 83.06, 8.75 102.72, 17.13 112.89 C25.5 123.07, 73.98 123.58, 84.09 135.26 C94.2 146.94, 69.64 173.66, 77.79 182.96 C85.94 192.26, 123.96 189.95, 133 191.08 M-1.45 2.96 C-6.63 13, -36.21 51.13, -30.39 62.31 C-24.57 73.49, 25.53 62.38, 33.48 70.03 C41.42 77.69, 8.09 97.32, 17.27 108.25 C26.46 119.18, 78.03 123.41, 88.59 135.6 C99.14 147.79, 72.83 172.74, 80.58 181.39 C88.34 190.04, 126.92 186.43, 135.12 187.5" stroke="#0056b3" stroke-width="4" fill="none"></path></g></g><mask></mask><g stroke-opacity="0.4" fill-opacity="0.4" stroke-linecap="round" transform="translate(84.1669125426015 4449.542428038965) rotate(0 12.816641696763327 11.691883356486642)"><path d="M12.15 0.28 C14.66 0.06, 18.21 1.05, 20.42 2.49 C22.63 3.93, 24.88 6.5, 25.44 8.93 C25.99 11.37, 25.02 14.86, 23.76 17.08 C22.51 19.31, 20.36 21.42, 17.9 22.29 C15.45 23.16, 11.67 23.07, 9 22.28 C6.33 21.5, 3.36 19.58, 1.88 17.58 C0.39 15.59, -0.25 12.69, 0.1 10.32 C0.44 7.96, 1.88 5.2, 3.95 3.41 C6.02 1.62, 10.94 0.17, 12.52 -0.43 C14.09 -1.03, 13.38 -0.4, 13.41 -0.2 M9.75 1.04 C12.04 0.28, 15.42 0.3, 17.93 1.24 C20.44 2.18, 23.62 4.46, 24.83 6.67 C26.04 8.87, 26.02 11.99, 25.19 14.45 C24.36 16.91, 22.09 20.02, 19.84 21.42 C17.59 22.83, 14.55 23.25, 11.7 22.86 C8.86 22.47, 4.7 20.75, 2.77 19.07 C0.84 17.39, 0.27 15.21, 0.13 12.81 C-0.01 10.4, 0.2 6.72, 1.93 4.66 C3.66 2.61, 9.08 1.15, 10.5 0.46 C11.92 -0.23, 10.53 0.39, 10.43 0.53" stroke="none" stroke-width="0" fill="#d0bfff"></path><path d="M11.7 -0.15 C14.26 -0.4, 18.38 0.91, 20.62 2.41 C22.85 3.91, 24.55 6.44, 25.11 8.86 C25.67 11.28, 25.11 14.63, 23.98 16.93 C22.85 19.22, 20.76 21.65, 18.35 22.63 C15.94 23.61, 12.24 23.49, 9.5 22.83 C6.77 22.18, 3.45 20.74, 1.95 18.7 C0.46 16.67, 0.14 13.17, 0.53 10.61 C0.92 8.06, 2.19 5.1, 4.29 3.39 C6.39 1.67, 11.44 0.87, 13.13 0.32 C14.82 -0.23, 14.49 -0.1, 14.43 0.11 M10.44 -0.47 C12.93 -1.18, 16.31 -0.12, 18.59 1.31 C20.86 2.75, 22.94 5.87, 24.08 8.12 C25.22 10.37, 26.26 12.63, 25.43 14.79 C24.6 16.95, 21.6 19.72, 19.1 21.08 C16.61 22.43, 13.11 23.26, 10.46 22.91 C7.82 22.55, 5.06 20.69, 3.23 18.94 C1.41 17.2, -0.32 14.74, -0.49 12.42 C-0.66 10.11, 0.42 7.15, 2.22 5.04 C4.03 2.94, 8.96 0.54, 10.34 -0.2 C11.72 -0.94, 10.4 0.38, 10.51 0.6" stroke="#7950f2" stroke-width="2" fill="none"></path></g><g stroke-opacity="0.4" fill-opacity="0.4" stroke-linecap="round" transform="translate(1957.7460498582077 4976.994070703714) rotate(0 20.053651287733373 20.05365128773292)"><path d="M16.28 0.87 C20.23 -0.2, 25.44 0.36, 29.03 2.32 C32.62 4.28, 36.04 8.59, 37.83 12.63 C39.62 16.68, 40.87 22.59, 39.77 26.6 C38.67 30.62, 35.03 34.37, 31.22 36.74 C27.42 39.11, 21.11 41.31, 16.94 40.83 C12.77 40.35, 8.89 37.13, 6.2 33.85 C3.52 30.56, 1.11 25.34, 0.83 21.12 C0.55 16.89, 1.2 12.08, 4.51 8.5 C7.83 4.92, 17.54 0.8, 20.71 -0.35 C23.89 -1.51, 23.87 1.2, 23.58 1.56 M24.91 0.57 C28.63 1.92, 32.71 6.88, 35.38 10.28 C38.05 13.68, 41.3 17.1, 40.93 20.94 C40.56 24.79, 36.56 30.26, 33.16 33.33 C29.76 36.4, 24.66 39.05, 20.52 39.37 C16.37 39.7, 11.76 37.55, 8.27 35.28 C4.79 33.01, 0.82 29.53, -0.41 25.74 C-1.64 21.94, -1.18 16.64, 0.9 12.49 C2.98 8.34, 7.89 2.75, 12.07 0.84 C16.25 -1.06, 23.6 1.11, 25.98 1.07 C28.36 1.03, 26.51 0.4, 26.35 0.63" stroke="#228be6" stroke-width="4" fill="none"></path></g><g stroke-linecap="round"><g stroke-opacity="0.4" fill-opacity="0.4" transform="translate(1862.7485313518573 4339.82975595559) rotate(302.6394484402506 40.06405099861877 -4.707069830882119)"><path d="M-1.54 -1.42 C23.23 -10.03, 41.55 -23.65, 77.15 -44.28 M-0.43 -1.03 C29.99 -15.01, 57.36 -31.49, 80.46 -44.62 M79.15 -42.19 C72.08 -16.52, 71.16 14.55, 58.91 34 M81.39 -47.08 C72.67 -23.49, 67.57 0.34, 62.73 34.69 M66.09 36.26 C59.33 24.74, 61.98 13.91, 59.51 -15.96 M62.7 34.54 C63.37 19.82, 61.55 7.04, 59.19 -16.94 M63.22 -19.63 C45.52 -13.94, 29.35 -5.23, -3.14 3.92 M59.21 -16.77 C46.12 -14.12, 36.26 -7.63, -0.51 1.99" stroke="#e03131" stroke-width="2" fill="none"></path></g></g><mask></mask><g stroke-linecap="round"><g stroke-opacity="0.4" fill-opacity="0.4" transform="translate(91.72029473973998 3662.720142088593) rotate(0 176.26291346535527 195.49145296741926)"><path d="M-1 1.64 C58.14 66.86, 294.67 325.7, 353.62 390.25 M3.66 0.07 C62.64 65.8, 294.09 328.34, 351.97 393.48" stroke="#bcdfc9" stroke-width="2" fill="none"></path></g><g stroke-opacity="0.4" fill-opacity="0.4" transform="translate(91.72029473973998 3662.720142088593) rotate(0 176.26291346535527 195.49145296741926)"><path d="M331.18 382.33 C335.06 384.8, 339.72 388.29, 353.14 394.56 M330.9 382.47 C337.62 386.5, 344.98 390.09, 352.61 394.4" stroke="#bcdfc9" stroke-width="2" fill="none"></path></g><g stroke-opacity="0.4" fill-opacity="0.4" transform="translate(91.72029473973998 3662.720142088593) rotate(0 176.26291346535527 195.49145296741926)"><path d="M343.98 371 C344.54 376.33, 345.93 382.72, 353.14 394.56 M343.7 371.14 C346.08 378.93, 349.12 386.35, 352.61 394.4" stroke="#bcdfc9" stroke-width="2" fill="none"></path></g></g><mask></mask><g stroke-linecap="round"><g stroke-opacity="0.4" fill-opacity="0.4" transform="translate(121.39314787534204 2050.390662726513) rotate(91.37688570420873 83.91643874097463 123.50005453632878)"><path d="M2.23 -2.22 C14.63 -0.11, 67.34 -2.21, 73.42 12 C79.51 26.21, 31.44 67.33, 38.73 83.04 C46.02 98.74, 108.8 90.19, 117.17 106.23 C125.55 122.26, 80.26 167.9, 89 179.25 C97.73 190.6, 161.6 163.38, 169.59 174.3 C177.59 185.22, 142.43 232.87, 136.96 244.77 M0 2.74 C12.08 4.1, 64.74 -5.82, 70.95 7.85 C77.15 21.51, 29.56 67.94, 37.24 84.73 C44.92 101.52, 107.75 93.9, 117.01 108.6 C126.27 123.3, 84.77 161.17, 92.81 172.93 C100.85 184.7, 157.76 166.52, 165.24 179.2 C172.72 191.88, 141.55 238.19, 137.69 249.02" stroke="#e03131" stroke-width="1" fill="none"></path></g></g><mask></mask><g stroke-linecap="round"><g stroke-opacity="0.4" fill-opacity="0.4" transform="translate(164.5330446994467 6508.7881405867565) rotate(268.4372131333644 20.555565798942553 39.83058731273104)"><path d="M-0.44 1.58 C-3.41 7, -24.97 17.36, -15.58 30.3 C-6.2 43.24, 44.17 70.58, 55.9 79.23 M-4.12 -0.03 C-7.61 5.84, -27.09 18.82, -17.51 32.51 C-7.93 46.2, 41.43 74.59, 53.35 82.11" stroke="#0056b3" stroke-width="1" fill="none"></path></g></g><mask></mask><g stroke-opacity="0.4" fill-opacity="0.4" stroke-linecap="round" transform="translate(113.1059558089637 5584.128512404654) rotate(0 18.51027045173396 14.660125737128055)"><path d="M18.38 0.98 C21.82 0.86, 25.73 2.17, 28.84 3.83 C31.96 5.5, 35.92 8.21, 37.07 10.98 C38.22 13.74, 37.51 17.58, 35.76 20.43 C34.02 23.27, 30.5 26.83, 26.63 28.04 C22.75 29.26, 16.46 28.76, 12.53 27.71 C8.6 26.67, 5.1 24.21, 3.02 21.77 C0.95 19.33, -0.33 15.93, 0.08 13.09 C0.48 10.25, 1.79 6.93, 5.43 4.72 C9.06 2.51, 18.85 0.59, 21.9 -0.18 C24.94 -0.95, 23.81 -0.29, 23.69 0.11 M19.76 0.6 C23.37 0.38, 27.92 1.82, 30.63 4.08 C33.34 6.35, 35.37 11.2, 36.03 14.19 C36.7 17.18, 36.74 19.46, 34.62 22.02 C32.49 24.59, 27.39 28.48, 23.29 29.58 C19.19 30.69, 13.48 29.85, 10.02 28.65 C6.57 27.46, 4.05 25.35, 2.57 22.43 C1.09 19.51, 0.18 14.57, 1.15 11.15 C2.13 7.73, 5.51 3.56, 8.4 1.9 C11.3 0.25, 16.73 1.56, 18.52 1.21 C20.31 0.86, 19.19 -0.15, 19.13 -0.21" stroke="#228be6" stroke-width="2" fill="none"></path></g><g stroke-linecap="round"><g stroke-opacity="0.4" fill-opacity="0.4" transform="translate(1679.0189158199955 4826.883724397279) rotate(0 38.151706682462645 50.56037019008272)"><path d="M3.97 -1.72 C19.02 10.69, 28.4 16.9, 56.86 21.42 M-0.29 -0.92 C18.59 8, 39.8 16.54, 55.48 22.21 M52.6 19.6 C65.95 55.78, 73.15 84.05, 79.99 101.27 M53.7 24.82 C62.36 48.58, 68.11 77.04, 74.9 101.88 M76.2 103.4 C57.5 97.76, 46.92 98.86, 27.59 95.68 M77.19 101.74 C62.59 100.91, 51.41 98.58, 29.77 97.53 M25.56 98.99 C18.05 66.55, 7.77 34.57, -1.24 -1 M27.44 98.44 C22.9 79.03, 18.83 57.95, 0.37 0.2" stroke="#bcdfc9" stroke-width="2" fill="none"></path></g></g><mask></mask><g stroke-linecap="round"><g stroke-opacity="0.4" fill-opacity="0.4" transform="translate(1726.5944239668534 5826.664289026813) rotate(43.098421135092465 -6.921588691960096 17.684183916471284)"><path d="M-0.41 -1.28 C-2.81 0.27, -15.01 7.34, -17.12 12.06 C-19.23 16.79, -16.15 23.45, -13.05 27.08 C-9.94 30.71, -1.18 32.08, 1.5 33.85 M-4.07 4.19 C-5.4 7.44, -11.59 11.53, -12.15 15.84 C-12.71 20.16, -9.88 26.78, -7.43 30.08 C-4.98 33.37, 1.17 35.43, 2.54 35.63" stroke="#ffcd38" stroke-width="4" fill="none"></path></g></g><mask></mask><g stroke-linecap="round"><g stroke-opacity="0.4" fill-opacity="0.4" transform="translate(1751.5549716139976 6154.171548845149) rotate(93.76441376160619 114.05210108423853 175.17182930013132)"><path d="M-2.24 -0.21 C-2.4 15.31, -21.04 77.66, -3.61 93.44 C13.82 109.23, 90.26 82.13, 102.32 94.48 C114.38 106.83, 58.97 160.24, 68.77 167.54 C78.57 174.83, 152.27 127, 161.12 138.27 C169.98 149.54, 109.88 225.67, 121.88 235.15 C133.89 244.64, 216.3 175.82, 233.14 195.2 C249.98 214.58, 224.87 325.54, 222.95 351.41 M1.74 -2.8 C1.52 13.05, -22.06 80.74, -5.38 96.25 C11.29 111.75, 89.42 78.05, 101.79 90.22 C114.17 102.39, 58.35 161.02, 68.86 169.28 C79.38 177.54, 156.78 129.17, 164.88 139.78 C172.99 150.38, 105.83 223.95, 117.51 232.9 C129.19 241.84, 217.79 173.71, 234.97 193.42 C252.15 213.14, 222.15 325.56, 220.59 351.18" stroke="#ffcd38" stroke-width="2" fill="none"></path></g></g><mask></mask><g stroke-linecap="round"><g stroke-opacity="0.4" fill-opacity="0.4" transform="translate(30.073530804455004 3989.783317873921) rotate(0 28.16668645388563 -13.426593727062937)"><path d="M0.86 -1.52 C8.41 -7.54, 34.01 -38.3, 43.11 -36.34 C52.21 -34.38, 53.67 2.03, 55.44 10.24 M-2.13 3.82 C5.48 -2.93, 32.94 -41.53, 42.15 -40.08 C51.36 -38.64, 51.36 3.12, 53.15 12.49" stroke="#228be6" stroke-width="4" fill="none"></path></g></g><mask></mask><g stroke-linecap="round"><g stroke-opacity="0.4" fill-opacity="0.4" transform="translate(1980.5826128480749 7271.524274136831) rotate(105.88829305234249 -12.50530979069481 27.46840634394539)"><path d="M2.36 2.34 C3.9 7.23, 12.27 18.9, 10.1 27.84 C7.92 36.79, -3.32 53.65, -10.72 56.02 C-18.11 58.39, -30.17 44.03, -34.28 42.08 M0.19 1.14 C1.2 6.51, 8.29 22.29, 7.37 30.61 C6.46 38.93, 1.4 48.7, -5.29 51.08 C-11.98 53.45, -27.22 47.07, -32.77 44.88" stroke="#0056b3" stroke-width="2" fill="none"></path></g></g><mask></mask><g stroke-linecap="round"><g stroke-opacity="0.4" fill-opacity="0.4" transform="translate(211.50094261264894 4592.507502649407) rotate(336.86702681884947 -81.95279111283526 377.21143321203454)"><path d="M-0.89 -1.59 C-25.37 57.33, -117.62 229.81, -144.51 355.87 C-171.39 481.93, -159.05 687.93, -162.19 754.78 M3.82 3.72 C-20.04 63.01, -111.7 225.72, -139.51 351.44 C-167.33 477.17, -159.25 691.27, -163.07 758.09" stroke="#228be6" stroke-width="4" fill="none"></path></g><g stroke-opacity="0.4" fill-opacity="0.4" transform="translate(211.50094261264894 4592.507502649407) rotate(336.86702681884947 -81.95279111283526 377.21143321203454)"><path d="M-172.37 732.61 C-167.13 744.79, -164.51 753.05, -161.23 758.17 M-171.82 735.22 C-168.11 741.93, -166.1 751, -163.77 758.47" stroke="#228be6" stroke-width="4" fill="none"></path></g><g stroke-opacity="0.4" fill-opacity="0.4" transform="translate(211.50094261264894 4592.507502649407) rotate(336.86702681884947 -81.95279111283526 377.21143321203454)"><path d="M-155.27 732.89 C-156.6 744.91, -160.55 753.06, -161.23 758.17 M-154.72 735.5 C-156.79 742.12, -160.56 751.1, -163.77 758.47" stroke="#228be6" stroke-width="4" fill="none"></path></g></g><mask></mask><g stroke-linecap="round"><g stroke-opacity="0.4" fill-opacity="0.4" transform="translate(1707.8159149185267 5412.246558020169) rotate(0 30.80056281623729 -23.930221667736078)"><path d="M1.71 0.36 C3.64 -7.37, 0.21 -37.49, 8.95 -45.28 C17.69 -53.07, 45.57 -53.76, 54.13 -46.38 C62.7 -39, 64.68 -8.28, 60.36 -1.02 C56.03 6.24, 34.13 1.77, 28.2 -2.82 C22.27 -7.4, 21.25 -26.07, 24.76 -28.52 C28.27 -30.98, 45.38 -19.3, 49.27 -17.56 M-0.8 -1.91 C1.04 -10.46, -1.84 -40.66, 7.02 -48.89 C15.88 -57.13, 43.51 -59.75, 52.39 -51.33 C61.26 -42.91, 63.58 -6.82, 60.27 1.61 C56.95 10.04, 39.16 3.38, 32.48 -0.74 C25.8 -4.86, 17.19 -19.93, 20.17 -23.12 C23.15 -26.31, 44.85 -20.67, 50.36 -19.87" stroke="#ffcd38" stroke-width="4" fill="none"></path></g></g><mask></mask><g stroke-opacity="0.4" fill-opacity="0.4" stroke-linecap="round" transform="translate(62.87335846364476 6212.956774701767) rotate(0 12.816641696763327 11.691883356486414)"><path d="M14.46 0.36 C17.09 0.47, 20.28 2.19, 22.2 3.96 C24.11 5.74, 25.78 8.56, 25.97 11.02 C26.17 13.47, 25.04 16.77, 23.36 18.7 C21.69 20.63, 18.66 21.99, 15.93 22.61 C13.2 23.22, 9.52 23.45, 7 22.41 C4.48 21.36, 1.84 18.57, 0.83 16.32 C-0.19 14.07, 0.14 11.24, 0.93 8.91 C1.72 6.57, 3.35 3.71, 5.55 2.32 C7.74 0.92, 12.5 0.91, 14.09 0.54 C15.69 0.18, 15 -0.02, 15.12 0.13 M11.13 -0.02 C13.79 -0.64, 17.69 0.19, 20.1 1.47 C22.51 2.75, 24.76 5.22, 25.62 7.68 C26.48 10.14, 26.48 13.91, 25.27 16.23 C24.07 18.54, 20.98 20.42, 18.38 21.56 C15.79 22.7, 12.42 23.56, 9.71 23.07 C7 22.58, 3.75 20.6, 2.14 18.6 C0.54 16.61, -0.11 13.47, 0.06 11.1 C0.22 8.72, 1.31 6.15, 3.12 4.33 C4.93 2.51, 9.68 0.94, 10.93 0.18 C12.17 -0.59, 10.57 -0.46, 10.59 -0.24" stroke="none" stroke-width="0" fill="#d0bfff"></path><path d="M11.78 0.31 C14.31 -0.08, 17.39 0.53, 19.66 1.82 C21.93 3.11, 24.55 5.58, 25.4 8.05 C26.25 10.51, 25.83 14.21, 24.75 16.6 C23.67 18.99, 21.43 21.25, 18.93 22.38 C16.44 23.5, 12.57 24.03, 9.78 23.34 C6.99 22.65, 3.74 20.32, 2.18 18.23 C0.62 16.13, 0.22 13.28, 0.42 10.77 C0.62 8.26, 1.47 4.9, 3.36 3.16 C5.26 1.43, 10.26 0.81, 11.8 0.36 C13.34 -0.09, 12.52 0.38, 12.59 0.46 M13.62 -0.68 C16.32 -0.66, 19.8 1.17, 21.74 2.86 C23.69 4.55, 24.99 7.02, 25.29 9.48 C25.6 11.94, 24.97 15.48, 23.58 17.64 C22.19 19.81, 19.44 21.68, 16.93 22.46 C14.41 23.23, 11.11 23.28, 8.5 22.28 C5.9 21.27, 2.73 18.72, 1.28 16.44 C-0.17 14.16, -0.69 10.97, -0.17 8.58 C0.35 6.19, 2.23 3.47, 4.4 2.1 C6.56 0.72, 11.32 0.61, 12.85 0.33 C14.38 0.06, 13.49 0.28, 13.58 0.43" stroke="#7950f2" stroke-width="2" fill="none"></path></g><g stroke-opacity="0.4" fill-opacity="0.4" stroke-linecap="round" transform="translate(1790.511372376206 6528.659609149201) rotate(0 12.816641696763327 11.691883356486414)"><path d="M15.24 0.59 C17.85 0.83, 21.27 2.47, 23.03 4.35 C24.79 6.23, 25.87 9.46, 25.8 11.87 C25.73 14.27, 24.45 16.88, 22.61 18.8 C20.78 20.72, 17.56 22.93, 14.8 23.41 C12.05 23.89, 8.36 22.88, 6.1 21.66 C3.83 20.44, 2.1 18.37, 1.2 16.09 C0.3 13.81, -0.11 10.33, 0.69 7.98 C1.5 5.63, 3.5 3.32, 6.06 2 C8.61 0.68, 14.24 0.24, 16.01 0.04 C17.77 -0.16, 16.79 0.56, 16.63 0.79 M15.21 -0.11 C17.89 0.05, 21.17 1.66, 22.99 3.6 C24.81 5.55, 26.24 9.08, 26.13 11.56 C26.02 14.04, 24.2 16.58, 22.33 18.49 C20.46 20.4, 17.59 22.51, 14.89 23.03 C12.2 23.55, 8.46 22.82, 6.14 21.61 C3.83 20.4, 1.93 17.94, 1 15.75 C0.07 13.55, -0.28 10.77, 0.57 8.45 C1.41 6.13, 3.79 3.32, 6.07 1.83 C8.36 0.34, 12.85 -0.29, 14.26 -0.49 C15.67 -0.7, 14.58 0.42, 14.54 0.6" stroke="none" stroke-width="0" fill="#d0bfff"></path><path d="M10.7 -0.02 C13.24 -0.61, 17.41 0.01, 19.82 1.39 C22.24 2.76, 24.28 5.76, 25.17 8.23 C26.06 10.7, 26.2 13.87, 25.15 16.21 C24.11 18.55, 21.43 21.18, 18.89 22.27 C16.35 23.35, 12.54 23.33, 9.92 22.75 C7.29 22.17, 4.84 20.74, 3.16 18.77 C1.48 16.79, -0.15 13.31, -0.17 10.9 C-0.19 8.48, 1.11 6.03, 3.03 4.26 C4.94 2.49, 9.85 1.02, 11.34 0.29 C12.84 -0.43, 11.94 -0.25, 11.99 -0.11 M10.63 0.04 C13.07 -0.56, 16.43 -0.39, 18.77 0.8 C21.11 1.99, 23.63 4.79, 24.7 7.17 C25.76 9.55, 25.95 12.71, 25.16 15.09 C24.38 17.47, 22.42 20.22, 20.01 21.46 C17.59 22.71, 13.55 23.01, 10.67 22.56 C7.78 22.11, 4.58 20.6, 2.71 18.77 C0.83 16.94, -0.52 13.94, -0.58 11.59 C-0.64 9.24, 0.48 6.55, 2.35 4.69 C4.21 2.82, 9.23 1.1, 10.59 0.41 C11.95 -0.28, 10.48 0.45, 10.52 0.53" stroke="#7950f2" stroke-width="2" fill="none"></path></g><g stroke-linecap="round"><g stroke-opacity="0.4" fill-opacity="0.4" transform="translate(38.48575166685623 6063.944627382618) rotate(117.20423028774638 57.22355974300535 -44.40032870375535)"><path d="M1.31 -1.44 C4.05 -16.32, -1.4 -72.96, 14.78 -87.21 C30.97 -101.47, 81.6 -101.57, 98.42 -86.97 C115.23 -72.37, 122.64 -12.56, 115.67 0.39 C108.7 13.35, 68.35 -0.5, 56.6 -9.24 C44.84 -17.97, 39.46 -48.01, 45.15 -52.02 C50.85 -56.03, 82.98 -35.91, 90.78 -33.32 M-1.42 3.96 C1.02 -11.94, -5.48 -75.38, 12.12 -91.36 C29.72 -107.34, 86.72 -106.42, 104.19 -91.92 C121.65 -77.42, 125.32 -18.28, 116.91 -4.36 C108.51 9.57, 66.46 -1.28, 53.76 -8.35 C41.06 -15.43, 34.49 -42.3, 40.71 -46.79 C46.94 -51.28, 83.05 -36.79, 91.1 -35.3" stroke="#0056b3" stroke-width="4" fill="none"></path></g></g><mask></mask><g stroke-linecap="round"><g stroke-opacity="0.4" fill-opacity="0.4" transform="translate(81.69238171303914 5786.094961050047) rotate(1.8919428280141344 40.06405099861877 -4.707069830882119)"><path d="M3.39 1.67 C17.98 -8.86, 34 -24.73, 83.28 -46.83 M1.35 -0.16 C22.94 -10.71, 41.74 -23.02, 79.59 -46.94 M79.15 -46.57 C69.28 -18.08, 65.22 10.98, 60.64 38.91 M78.89 -47.04 C73.46 -24.73, 69.02 -1.06, 63.33 36.46 M59.96 37.62 C62.17 22.34, 64.02 5.44, 62.35 -12.48 M63.24 35.95 C60 15.76, 61.88 -3.92, 60.41 -13.97 M57.99 -12.16 C40.4 -10.89, 17.95 -1.67, -2.46 0.13 M62.71 -16.31 C41.25 -11.05, 19.17 -3.99, -1.62 -1.02" stroke="#e03131" stroke-width="2" fill="none"></path></g></g><mask></mask><g stroke-linecap="round"><g stroke-opacity="0.4" fill-opacity="0.4" transform="translate(1954.79466789473 6676.35435091319) rotate(0 -26.549434708791523 199.06171933372934)"><path d="M1.17 -0.07 C-7.62 65.59, -42.09 329.63, -51.51 396.36 M-1.64 -2.58 C-10.76 64.64, -44.87 332.61, -52.88 399.04" stroke="#bcdfc9" stroke-width="2" fill="none"></path></g><g stroke-opacity="0.4" fill-opacity="0.4" transform="translate(1954.79466789473 6676.35435091319) rotate(0 -26.549434708791523 199.06171933372934)"><path d="M-58.51 375.81 C-57.59 381.44, -52.84 390.67, -53.58 397.2 M-58.02 374.98 C-57.62 381.1, -55.69 386.43, -52.49 398.12" stroke="#bcdfc9" stroke-width="2" fill="none"></path></g><g stroke-opacity="0.4" fill-opacity="0.4" transform="translate(1954.79466789473 6676.35435091319) rotate(0 -26.549434708791523 199.06171933372934)"><path d="M-41.54 377.92 C-46.47 382.9, -47.55 391.4, -53.58 397.2 M-41.05 377.09 C-45.03 382.66, -47.46 387.44, -52.49 398.12" stroke="#bcdfc9" stroke-width="2" fill="none"></path></g></g><mask></mask><g stroke-opacity="0.4" fill-opacity="0.4" stroke-linecap="round" transform="translate(66.11027397908765 4208.753448576471) rotate(34.46571183618625 17.812912257562857 12.332016178312642)"><path d="M35.63 12.33 C35.63 13.05, 35.53 13.77, 35.36 14.47 C35.18 15.18, 34.9 15.88, 34.55 16.55 C34.2 17.22, 33.75 17.88, 33.24 18.5 C32.72 19.12, 32.12 19.71, 31.46 20.26 C30.8 20.81, 30.05 21.32, 29.26 21.78 C28.47 22.24, 27.61 22.65, 26.72 23.01 C25.83 23.37, 24.87 23.68, 23.91 23.92 C22.94 24.16, 21.92 24.35, 20.91 24.48 C19.89 24.6, 18.84 24.66, 17.81 24.66 C16.78 24.66, 15.74 24.6, 14.72 24.48 C13.7 24.35, 12.69 24.16, 11.72 23.92 C10.75 23.68, 9.8 23.37, 8.91 23.01 C8.01 22.65, 7.15 22.24, 6.36 21.78 C5.57 21.32, 4.83 20.81, 4.17 20.26 C3.5 19.71, 2.9 19.12, 2.39 18.5 C1.87 17.88, 1.43 17.22, 1.07 16.55 C0.72 15.88, 0.45 15.18, 0.27 14.47 C0.09 13.77, 0 13.05, 0 12.33 C0 11.62, 0.09 10.89, 0.27 10.19 C0.45 9.49, 0.72 8.78, 1.07 8.11 C1.43 7.44, 1.87 6.78, 2.39 6.17 C2.9 5.55, 3.5 4.95, 4.17 4.41 C4.83 3.86, 5.57 3.34, 6.36 2.89 C7.15 2.43, 8.01 2.01, 8.91 1.65 C9.8 1.3, 10.75 0.99, 11.72 0.74 C12.69 0.5, 13.7 0.31, 14.72 0.19 C15.74 0.06, 16.78 0, 17.81 0 C18.84 0, 19.89 0.06, 20.91 0.19 C21.92 0.31, 22.94 0.5, 23.91 0.74 C24.87 0.99, 25.83 1.3, 26.72 1.65 C27.61 2.01, 28.47 2.43, 29.26 2.89 C30.05 3.34, 30.8 3.86, 31.46 4.41 C32.12 4.95, 32.72 5.55, 33.24 6.17 C33.75 6.78, 34.2 7.44, 34.55 8.11 C34.9 8.78, 35.18 9.49, 35.36 10.19 C35.53 10.89, 35.58 11.98, 35.63 12.33 C35.67 12.69, 35.67 11.98, 35.63 12.33" stroke="none" stroke-width="0" fill="#c92a2a"></path><path d="M35.63 12.33 C35.63 13.05, 35.53 13.77, 35.36 14.47 C35.18 15.18, 34.9 15.88, 34.55 16.55 C34.2 17.22, 33.75 17.88, 33.24 18.5 C32.72 19.12, 32.12 19.71, 31.46 20.26 C30.8 20.81, 30.05 21.32, 29.26 21.78 C28.47 22.24, 27.61 22.65, 26.72 23.01 C25.83 23.37, 24.87 23.68, 23.91 23.92 C22.94 24.16, 21.92 24.35, 20.91 24.48 C19.89 24.6, 18.84 24.66, 17.81 24.66 C16.78 24.66, 15.74 24.6, 14.72 24.48 C13.7 24.35, 12.69 24.16, 11.72 23.92 C10.75 23.68, 9.8 23.37, 8.91 23.01 C8.01 22.65, 7.15 22.24, 6.36 21.78 C5.57 21.32, 4.83 20.81, 4.17 20.26 C3.5 19.71, 2.9 19.12, 2.39 18.5 C1.87 17.88, 1.43 17.22, 1.07 16.55 C0.72 15.88, 0.45 15.18, 0.27 14.47 C0.09 13.77, 0 13.05, 0 12.33 C0 11.62, 0.09 10.89, 0.27 10.19 C0.45 9.49, 0.72 8.78, 1.07 8.11 C1.43 7.44, 1.87 6.78, 2.39 6.17 C2.9 5.55, 3.5 4.95, 4.17 4.41 C4.83 3.86, 5.57 3.34, 6.36 2.89 C7.15 2.43, 8.01 2.01, 8.91 1.65 C9.8 1.3, 10.75 0.99, 11.72 0.74 C12.69 0.5, 13.7 0.31, 14.72 0.19 C15.74 0.06, 16.78 0, 17.81 0 C18.84 0, 19.89 0.06, 20.91 0.19 C21.92 0.31, 22.94 0.5, 23.91 0.74 C24.87 0.99, 25.83 1.3, 26.72 1.65 C27.61 2.01, 28.47 2.43, 29.26 2.89 C30.05 3.34, 30.8 3.86, 31.46 4.41 C32.12 4.95, 32.72 5.55, 33.24 6.17 C33.75 6.78, 34.2 7.44, 34.55 8.11 C34.9 8.78, 35.18 9.49, 35.36 10.19 C35.53 10.89, 35.58 11.98, 35.63 12.33 C35.67 12.69, 35.67 11.98, 35.63 12.33" stroke="#000000" stroke-width="2" fill="none"></path></g><g stroke-opacity="0.4" fill-opacity="0.4" stroke-linecap="round" transform="translate(36.08777414250835 4226.278755701553) rotate(123.53240450131439 27.606472254440632 24.231463182670495)"><path d="M55.21 24.23 C55.21 25.63, 55.07 27.06, 54.79 28.44 C54.52 29.82, 54.09 31.2, 53.55 32.52 C53 33.84, 52.31 35.13, 51.51 36.35 C50.72 37.56, 49.78 38.73, 48.75 39.81 C47.73 40.88, 46.58 41.89, 45.35 42.79 C44.13 43.7, 42.79 44.52, 41.41 45.22 C40.03 45.92, 38.55 46.52, 37.05 47 C35.55 47.48, 33.97 47.85, 32.4 48.09 C30.83 48.34, 29.2 48.46, 27.61 48.46 C26.01 48.46, 24.39 48.34, 22.81 48.09 C21.24 47.85, 19.67 47.48, 18.16 47 C16.66 46.52, 15.19 45.92, 13.8 45.22 C12.42 44.52, 11.09 43.7, 9.86 42.79 C8.64 41.89, 7.49 40.88, 6.46 39.81 C5.43 38.73, 4.5 37.56, 3.7 36.35 C2.9 35.13, 2.21 33.84, 1.66 32.52 C1.12 31.2, 0.7 29.82, 0.42 28.44 C0.14 27.06, 0 25.63, 0 24.23 C0 22.83, 0.14 21.4, 0.42 20.02 C0.7 18.64, 1.12 17.26, 1.66 15.94 C2.21 14.63, 2.9 13.33, 3.7 12.12 C4.5 10.9, 5.43 9.73, 6.46 8.66 C7.49 7.58, 8.64 6.57, 9.86 5.67 C11.09 4.77, 12.42 3.95, 13.8 3.25 C15.19 2.55, 16.66 1.94, 18.16 1.46 C19.67 0.98, 21.24 0.61, 22.81 0.37 C24.39 0.12, 26.01 0, 27.61 0 C29.2 0, 30.83 0.12, 32.4 0.37 C33.97 0.61, 35.55 0.98, 37.05 1.46 C38.55 1.94, 40.03 2.55, 41.41 3.25 C42.79 3.95, 44.13 4.77, 45.35 5.67 C46.58 6.57, 47.73 7.58, 48.75 8.66 C49.78 9.73, 50.72 10.9, 51.51 12.12 C52.31 13.33, 53 14.63, 53.55 15.94 C54.09 17.26, 54.52 18.64, 54.79 20.02 C55.07 21.4, 55.14 23.53, 55.21 24.23 C55.28 24.93, 55.28 23.53, 55.21 24.23" stroke="none" stroke-width="0" fill="#c92a2a"></path><path d="M55.21 24.23 C55.21 25.63, 55.07 27.06, 54.79 28.44 C54.52 29.82, 54.09 31.2, 53.55 32.52 C53 33.84, 52.31 35.13, 51.51 36.35 C50.72 37.56, 49.78 38.73, 48.75 39.81 C47.73 40.88, 46.58 41.89, 45.35 42.79 C44.13 43.7, 42.79 44.52, 41.41 45.22 C40.03 45.92, 38.55 46.52, 37.05 47 C35.55 47.48, 33.97 47.85, 32.4 48.09 C30.83 48.34, 29.2 48.46, 27.61 48.46 C26.01 48.46, 24.39 48.34, 22.81 48.09 C21.24 47.85, 19.67 47.48, 18.16 47 C16.66 46.52, 15.19 45.92, 13.8 45.22 C12.42 44.52, 11.09 43.7, 9.86 42.79 C8.64 41.89, 7.49 40.88, 6.46 39.81 C5.43 38.73, 4.5 37.56, 3.7 36.35 C2.9 35.13, 2.21 33.84, 1.66 32.52 C1.12 31.2, 0.7 29.82, 0.42 28.44 C0.14 27.06, 0 25.63, 0 24.23 C0 22.83, 0.14 21.4, 0.42 20.02 C0.7 18.64, 1.12 17.26, 1.66 15.94 C2.21 14.63, 2.9 13.33, 3.7 12.12 C4.5 10.9, 5.43 9.73, 6.46 8.66 C7.49 7.58, 8.64 6.57, 9.86 5.67 C11.09 4.77, 12.42 3.95, 13.8 3.25 C15.19 2.55, 16.66 1.94, 18.16 1.46 C19.67 0.98, 21.24 0.61, 22.81 0.37 C24.39 0.12, 26.01 0, 27.61 0 C29.2 0, 30.83 0.12, 32.4 0.37 C33.97 0.61, 35.55 0.98, 37.05 1.46 C38.55 1.94, 40.03 2.55, 41.41 3.25 C42.79 3.95, 44.13 4.77, 45.35 5.67 C46.58 6.57, 47.73 7.58, 48.75 8.66 C49.78 9.73, 50.72 10.9, 51.51 12.12 C52.31 13.33, 53 14.63, 53.55 15.94 C54.09 17.26, 54.52 18.64, 54.79 20.02 C55.07 21.4, 55.14 23.53, 55.21 24.23 C55.28 24.93, 55.28 23.53, 55.21 24.23" stroke="#000000" stroke-width="2" fill="none"></path></g><g stroke-linecap="round"><g stroke-opacity="0.4" fill-opacity="0.4" transform="translate(58.00887474563933 4221.488546002195) rotate(34.46571183618625 -10.117129425863823 -5.951252603449348)"><path d="M0 0 C-1.98 -1.98, -8.53 -11.44, -11.9 -11.9 C-15.27 -12.37, -18.85 -4.3, -20.23 -2.78 M0 0 C-1.98 -1.98, -8.53 -11.44, -11.9 -11.9 C-15.27 -12.37, -18.85 -4.3, -20.23 -2.78" stroke="#000000" stroke-width="2" fill="none"></path></g></g><mask></mask><g stroke-linecap="round"><g stroke-opacity="0.4" fill-opacity="0.4" transform="translate(46.3874017341368 4234.563652144253) rotate(34.46571183618625 -10.117129425863823 -5.951252603449348)"><path d="M0 0 C-1.98 -1.98, -8.53 -11.44, -11.9 -11.9 C-15.27 -12.37, -18.85 -4.3, -20.23 -2.78 M0 0 C-1.98 -1.98, -8.53 -11.44, -11.9 -11.9 C-15.27 -12.37, -18.85 -4.3, -20.23 -2.78" stroke="#000000" stroke-width="2" fill="none"></path></g></g><mask></mask><g stroke-linecap="round"><g stroke-opacity="0.4" fill-opacity="0.4" transform="translate(45.19882382716787 4257.327658909158) rotate(34.46571183618625 -10.117129425863823 -5.951252603449348)"><path d="M0 0 C-1.98 -1.98, -8.53 -11.44, -11.9 -11.9 C-15.27 -12.37, -18.85 -4.3, -20.23 -2.78 M0 0 C-1.98 -1.98, -8.53 -11.44, -11.9 -11.9 C-15.27 -12.37, -18.85 -4.3, -20.23 -2.78" stroke="#000000" stroke-width="2" fill="none"></path></g></g><mask></mask><g stroke-linecap="round"><g stroke-opacity="0.4" fill-opacity="0.4" transform="translate(89.9189888829842 4259.660708185486) rotate(34.46571183618625 8.72850381839271 -5.554502429886043)"><path d="M0 0 C1.79 -1.85, 7.8 -11.11, 10.71 -11.11 C13.62 -11.11, 16.33 -1.85, 17.46 0 M0 0 C1.79 -1.85, 7.8 -11.11, 10.71 -11.11 C13.62 -11.11, 16.33 -1.85, 17.46 0" stroke="#000000" stroke-width="2" fill="none"></path></g></g><mask></mask><g stroke-linecap="round"><g stroke-opacity="0.4" fill-opacity="0.4" transform="translate(80.70675661170935 4275.696642274994) rotate(34.46571183618625 8.72850381839271 -6.744752950575958)"><path d="M0 0 C1.32 -2.25, 5.03 -12.76, 7.94 -13.49 C10.84 -14.22, 15.87 -5.89, 17.46 -4.36 M0 0 C1.32 -2.25, 5.03 -12.76, 7.94 -13.49 C10.84 -14.22, 15.87 -5.89, 17.46 -4.36" stroke="#000000" stroke-width="2" fill="none"></path></g></g><mask></mask><g stroke-linecap="round"><g stroke-opacity="0.4" fill-opacity="0.4" transform="translate(67.93220125805055 4282.6797787546875) rotate(34.46571183618625 9.323629078737213 -4.761002082759433)"><path d="M0 0 C1.59 -1.59, 6.41 -9.13, 9.52 -9.52 C12.63 -9.92, 17.13 -3.57, 18.65 -2.38 M0 0 C1.59 -1.59, 6.41 -9.13, 9.52 -9.52 C12.63 -9.92, 17.13 -3.57, 18.65 -2.38" stroke="#000000" stroke-width="2" fill="none"></path></g></g><mask></mask><g stroke-linecap="round"><g stroke-opacity="0.4" fill-opacity="0.4" transform="translate(87.7053237966793 4203.247506725415) rotate(34.46571183618625 -6.34800277701288 -4.56262699597778)"><path d="M0 0 C-0.79 -1.52, -2.65 -8.66, -4.76 -9.13 C-6.88 -9.59, -11.37 -3.84, -12.7 -2.78 M0 0 C-0.79 -1.52, -2.65 -8.66, -4.76 -9.13 C-6.88 -9.59, -11.37 -3.84, -12.7 -2.78" stroke="#000000" stroke-width="2" fill="none"></path></g></g><mask></mask><g stroke-linecap="round"><g stroke-opacity="0.4" fill-opacity="0.4" transform="translate(99.44413848792647 4222.286387491931) rotate(34.46571183618625 6.149627690230773 -4.364251909196128)"><path d="M0 0 C0.66 -1.45, 1.92 -7.41, 3.97 -8.73 C6.02 -10.05, 10.91 -8.07, 12.3 -7.94 M0 0 C0.66 -1.45, 1.92 -7.41, 3.97 -8.73 C6.02 -10.05, 10.91 -8.07, 12.3 -7.94" stroke="#000000" stroke-width="2" fill="none"></path></g></g><mask></mask><g stroke-linecap="round"><g stroke-opacity="0.4" fill-opacity="0.4" transform="translate(1777.3959621606518 5517.897075641405) rotate(139.5989405377259 83.91643874097463 123.50005453632866)"><path d="M-0.83 -2.41 C11.25 -0.74, 66.97 -5.14, 73.6 9.31 C80.23 23.75, 31.12 68.17, 38.96 84.25 C46.79 100.33, 111.97 90.81, 120.61 105.79 C129.25 120.76, 83.2 162.68, 90.79 174.11 C98.37 185.54, 158.53 162.43, 166.1 174.36 C173.67 186.29, 141.14 233.4, 136.22 245.71 M3.91 2.45 C15.49 4.56, 65.61 -1.69, 71.22 12.34 C76.84 26.36, 29.07 70.67, 37.58 86.6 C46.1 102.54, 112.65 93.42, 122.31 107.92 C131.97 122.43, 87.88 161.75, 95.57 173.64 C103.27 185.53, 161.67 166.48, 168.5 179.28 C175.32 192.09, 140.99 239.01, 136.55 250.47" stroke="#e03131" stroke-width="1" fill="none"></path></g></g><mask></mask><g stroke-linecap="round"><g stroke-opacity="0.4" fill-opacity="0.4" transform="translate(1750.9361375455483 6124.530652269738) rotate(268.4372131333644 20.555565798942553 39.83058731273104)"><path d="M-0.26 -1.11 C-2.68 4.55, -25.29 18.2, -15.36 31.52 C-5.43 44.83, 47.34 71.2, 59.33 78.79 M-3.85 -4.18 C-6.49 2.05, -27.58 20.12, -17.16 34.39 C-6.75 48.65, 46.32 74.11, 58.64 81.43" stroke="#0056b3" stroke-width="1" fill="none"></path></g></g><mask></mask><g stroke-linecap="round"><g stroke-opacity="0.4" fill-opacity="0.4" transform="translate(133.16820975708652 6759.107110987252) rotate(111.22625416118883 -6.921588691960096 17.684183916471284)"><path d="M-1.58 -2.07 C-4.32 -0.12, -12.07 5.76, -13.78 10.76 C-15.49 15.76, -14.35 23.99, -11.84 27.94 C-9.34 31.89, -0.66 33.34, 1.24 34.47 M2.75 2.98 C-0.54 5.4, -12.8 9.1, -15.63 13.84 C-18.46 18.57, -17.18 27.6, -14.21 31.4 C-11.25 35.19, -0.9 35.94, 2.15 36.59" stroke="#ffcd38" stroke-width="4" fill="none"></path></g></g><mask></mask><g stroke-linecap="round"><g stroke-opacity="0.4" fill-opacity="0.4" transform="translate(93.32035928855657 7121.568973321958) rotate(299.17597873121616 29.114992676399197 94.35926463954047)"><path d="M0.65 2.29 C9.58 15.41, 46.62 49.48, 56.09 80.73 C65.57 111.98, 56.81 171.84, 57.52 189.79 M-2.44 1.06 C7.13 14.39, 51.69 53.19, 61.34 83.82 C70.98 114.45, 55.29 167, 55.42 184.84" stroke="#e03131" stroke-width="1" fill="none"></path></g></g><mask></mask></svg>